<?xml version='1.0' encoding='iso-8859-1'?>
<svg version="1.1" xmlns="http://www.w3.org/2000/svg" viewBox="0 0 470.001 470.001" xmlns:xlink="http://www.w3.org/1999/xlink" enable-background="new 0 0 470.001 470.001">
  <g>
    <path d="m83.322,380.001c4.142,0 7.5-3.357 7.5-7.5v-59.441h261.831c0.051,0 26.526,0 26.526,0v59.441c0,4.143 3.357,7.5 7.5,7.5s7.5-3.357 7.5-7.5v-66.941c0-4.143-3.357-7.5-7.5-7.5h-28.465l-9.474-30.719c-4.221-13.683-18.743-24.4-33.062-24.4h-73.178v-22.403c0-0.032 0.005-0.064 0.005-0.097s-0.004-0.064-0.005-0.097v-175.572c38.344,31.593 60.854,78.766 60.854,128.899v39.27h-38.349c-4.143,0-7.5,3.357-7.5,7.5s3.357,7.5 7.5,7.5h65.849c4.143,0 7.5-3.357 7.5-7.5s-3.357-7.5-7.5-7.5h-12.5v-39.27c0-58.671-28.288-113.616-75.854-147.81v-18.361c0-4.143-3.357-7.5-7.5-7.5-4.142,0-7.5,3.357-7.5,7.5v205.44h-88.343c-4.142,0-7.5,3.357-7.5,7.5s3.358,7.5 7.5,7.5h88.343v15h-73.178c-14.319,0-28.841,10.718-33.062,24.401l-9.474,30.718h-28.464c-4.142,0-7.5,3.357-7.5,7.5v66.941c0,4.144 3.358,7.501 7.5,7.501zm52.273-108.239c2.271-7.362 11.022-13.821 18.728-13.821h161.357c7.705,0 16.456,6.459 18.728,13.821l8.111,26.298h-215.035l8.111-26.298z"/>
    <path d="m297.568,328.679c-5.751,1.566-35.796,9.381-62.567,9.381-26.751,0-56.813-7.814-62.568-9.381-3.898-1.063-7.944,1.161-9.137,5.026l-11.282,36.586c-1.221,3.958 0.999,8.156 4.957,9.377 3.958,1.219 8.156-0.998 9.377-4.957l9.179-29.764c12.347,2.981 36.878,8.112 59.475,8.112 22.612,0 47.133-5.13 59.475-8.112l9.179,29.764c0.994,3.223 3.96,5.292 7.164,5.292 0.732,0 1.478-0.108 2.213-0.335 3.958-1.221 6.178-5.419 4.957-9.377l-11.282-36.586c-1.195-3.865-5.24-6.089-9.14-5.026z"/>
    <path d="m7.5,410.001c14.17,0 27.804-5.631 37.928-15.386 10.123,9.756 23.744,15.386 37.894,15.386 14.186,0 27.828-5.627 37.955-15.379 10.102,9.751 23.725,15.379 37.903,15.379 14.375,0 27.787-5.511 37.932-15.366 10.101,9.743 23.719,15.366 37.891,15.366 14.16,0 27.784-5.623 37.907-15.366 10.122,9.855 23.527,15.366 37.915,15.366 14.17,0 27.803-5.63 37.927-15.386 10.124,9.756 23.758,15.386 37.928,15.386 14.178,0 27.801-5.627 37.902-15.378 10.124,9.751 23.753,15.378 37.919,15.378 4.143,0 7.5-3.357 7.5-7.5s-3.357-7.5-7.5-7.5c-12.674,0-24.3-5.896-31.896-16.174-1.414-1.914-3.651-3.043-6.031-3.043-2.389,0.002-4.628,1.136-6.04,3.054-7.449,10.121-19.357,16.163-31.854,16.163-12.488,0-24.412-6.046-31.896-16.174-1.414-1.914-3.652-3.043-6.032-3.043s-4.618,1.129-6.032,3.043c-7.483,10.128-19.406,16.174-31.895,16.174-12.651,0-24.265-5.896-31.863-16.175-1.414-1.913-3.652-3.042-6.031-3.042-2.38,0-4.617,1.129-6.031,3.043-7.485,10.127-19.408,16.174-31.896,16.174-12.497,0-24.405-6.042-31.855-16.163-1.411-1.916-3.646-3.049-6.025-3.054-2.389,0-4.623,1.124-6.038,3.03-7.633,10.287-19.262,16.187-31.904,16.187-12.496,0-24.405-6.042-31.854-16.163-1.412-1.918-3.651-3.052-6.033-3.054-2.386,0-4.625,1.129-6.039,3.043-7.483,10.128-19.42,16.174-31.932,16.174-12.464,0-24.375-6.047-31.864-16.176-1.415-1.913-3.652-3.041-6.032-3.041s-4.617,1.13-6.031,3.043c-7.595,10.278-19.22,16.174-31.895,16.174-4.142,0-7.5,3.357-7.5,7.5s3.356,7.5 7.498,7.5z"/>
    <path d="m462.5,455.001c-12.674,0-24.3-5.896-31.896-16.174-1.414-1.914-3.651-3.043-6.031-3.043-2.389,0.002-4.628,1.136-6.04,3.054-7.449,10.121-19.357,16.163-31.854,16.163-12.488,0-24.412-6.046-31.896-16.174-1.414-1.914-3.652-3.043-6.032-3.043s-4.618,1.129-6.032,3.043c-7.483,10.128-19.406,16.174-31.895,16.174-12.651,0-24.265-5.896-31.863-16.175-1.414-1.913-3.652-3.042-6.031-3.042-2.38,0-4.617,1.129-6.031,3.043-7.485,10.127-19.408,16.174-31.896,16.174-12.497,0-24.405-6.042-31.855-16.163-1.411-1.916-3.646-3.049-6.025-3.054-2.389,0-4.623,1.124-6.038,3.03-7.633,10.287-19.262,16.187-31.904,16.187-12.496,0-24.405-6.042-31.854-16.163-1.412-1.918-3.651-3.052-6.033-3.054-2.386,0-4.625,1.129-6.039,3.043-7.483,10.128-19.42,16.174-31.932,16.174-12.464,0-24.375-6.047-31.864-16.176-1.415-1.913-3.652-3.041-6.032-3.041s-4.617,1.13-6.031,3.043c-7.595,10.278-19.22,16.174-31.895,16.174-4.142,0-7.5,3.357-7.5,7.5s3.358,7.5 7.5,7.5c14.17,0 27.804-5.631 37.928-15.386 10.123,9.756 23.744,15.386 37.894,15.386 14.186,0 27.828-5.627 37.955-15.379 10.102,9.751 23.725,15.379 37.903,15.379 14.375,0 27.787-5.511 37.932-15.366 10.101,9.743 23.719,15.366 37.891,15.366 14.16,0 27.784-5.623 37.907-15.366 10.122,9.855 23.527,15.366 37.915,15.366 14.17,0 27.803-5.63 37.927-15.386 10.124,9.756 23.758,15.386 37.928,15.386 14.178,0 27.801-5.627 37.902-15.378 10.124,9.751 23.753,15.378 37.919,15.378 4.143,0 7.5-3.357 7.5-7.5s-3.359-7.5-7.502-7.5z"/>
  </g>
</svg>
