<svg xmlns="http://www.w3.org/2000/svg" width="201" height="201" viewBox="0 0 201 201">
  <metadata><?xpacket begin="﻿" id="W5M0MpCehiHzreSzNTczkc9d"?>
<x:xmpmeta xmlns:x="adobe:ns:meta/" x:xmptk="Adobe XMP Core 5.6-c138 79.159824, 2016/09/14-01:09:01        ">
   <rdf:RDF xmlns:rdf="http://www.w3.org/1999/02/22-rdf-syntax-ns#">
      <rdf:Description rdf:about=""/>
   </rdf:RDF>
</x:xmpmeta>
                                                                                                    
                                                                                                    
                                                                                                    
                                                                                                    
                                                                                                    
                                                                                                    
                                                                                                    
                                                                                                    
                                                                                                    
                                                                                                    
                                                                                                    
                                                                                                    
                                                                                                    
                                                                                                    
                                                                                                    
                                                                                                    
                                                                                                    
                                                                                                    
                                                                                                    
                                                                                                    
                           
<?xpacket end="w"?></metadata>
<defs>
    <style>
      .cls-1 {
        fill-rule: evenodd;
      }
    </style>
  </defs>
  <path id="Forma_1" data-name="Forma 1" class="cls-1" d="M100,0A3.408,3.408,0,0,0,96.592,3.4V170.34a3.407,3.407,0,0,0,6.814,0V3.4A3.407,3.407,0,0,0,100,0Zm88.594,166.935H11.405A3.408,3.408,0,0,0,8,170.34,30.7,30.7,0,0,0,38.665,201H161.334A30.7,30.7,0,0,0,192,170.34,3.41,3.41,0,0,0,188.593,166.933Zm-27.26,27.255H38.664a23.887,23.887,0,0,1-23.608-20.441H184.943A23.888,23.888,0,0,1,161.333,194.188ZM111.759,30.15a3.406,3.406,0,0,0-4.945,3.039V160.12a3.408,3.408,0,0,0,3.407,3.407h32.232a3.412,3.412,0,0,0,2.8-1.465A90.173,90.173,0,0,0,111.759,30.15Zm28.888,126.563H113.629V38.942A83.354,83.354,0,0,1,140.647,156.713ZM110.221,6.812H89.776a3.407,3.407,0,1,0,0,6.813h20.445A3.407,3.407,0,1,0,110.221,6.812ZM69.332,153.306H42.072a3.408,3.408,0,0,0-3.407,3.407V170.34a3.408,3.408,0,0,0,3.407,3.406h27.26a3.408,3.408,0,0,0,3.407-3.406V156.713A3.408,3.408,0,0,0,69.332,153.306Zm-3.407,13.627H45.48v-6.814H65.924v6.814ZM55.7,180.561H45.48a3.407,3.407,0,1,0,0,6.813H55.7A3.407,3.407,0,1,0,55.7,180.561Zm44.3,3.407H93.183a3.407,3.407,0,1,0,0,6.813H100A3.407,3.407,0,1,0,100,183.968Zm47.705-6.814h-13.63a3.407,3.407,0,1,0,0,6.813H147.7A3.407,3.407,0,1,0,147.7,177.154Z"/>
</svg>
