<svg xmlns="http://www.w3.org/2000/svg" width="612" height="612" viewBox="0 0 612 612">
  <metadata><?xpacket begin="﻿" id="W5M0MpCehiHzreSzNTczkc9d"?>
<x:xmpmeta xmlns:x="adobe:ns:meta/" x:xmptk="Adobe XMP Core 5.6-c138 79.159824, 2016/09/14-01:09:01        ">
   <rdf:RDF xmlns:rdf="http://www.w3.org/1999/02/22-rdf-syntax-ns#">
      <rdf:Description rdf:about=""/>
   </rdf:RDF>
</x:xmpmeta>
                                                                                                    
                                                                                                    
                                                                                                    
                                                                                                    
                                                                                                    
                                                                                                    
                                                                                                    
                                                                                                    
                                                                                                    
                                                                                                    
                                                                                                    
                                                                                                    
                                                                                                    
                                                                                                    
                                                                                                    
                                                                                                    
                                                                                                    
                                                                                                    
                                                                                                    
                                                                                                    
                           
<?xpacket end="w"?></metadata>
<defs>
    <style>
      .cls-1 {
        fill-rule: evenodd;
      }
    </style>
  </defs>
  <path id="Forma_1" data-name="Forma 1" class="cls-1" d="M611.209,290.265a10.76,10.76,0,0,0-10.473-6.466L326.272,299.615a10.686,10.686,0,0,0-1.972-4.5l-32.584-43.291c-0.057-.074-0.113-0.148-0.171-0.222-6.115-7.7-28.169-32.822-55.239-32.822h-48.4l-15.587-17.839a10.733,10.733,0,0,0-8.084-3.673H129.331v-20.51a10.741,10.741,0,1,0-21.481,0v21.87a43.092,43.092,0,0,0-32.221,41.664v73.764l-32.613,1.879c-0.085,0-.168.011-0.251,0.018C25.574,317.353,0,331.743,0,365.669v68.573A10.749,10.749,0,0,0,10.741,445H420.1c18.125,0,37.745-2.28,58.4-18.828,0.237-.191.467-0.391,0.687-0.6L608.751,302.338A10.771,10.771,0,0,0,611.209,290.265Zm-330.027-16.7,20.665,27.456-161.232,9.291V273.567H281.182ZM97.111,240.3a21.522,21.522,0,0,1,21.481-21.513h40.773l15.587,17.839a10.732,10.732,0,0,0,8.084,3.674h53.273c8.231,0,17.532,4.985,25.728,11.759H136.32a17.217,17.217,0,0,0-17.183,17.209v42.289l-22.025,1.269V240.3h0ZM464.732,409.647c-16.121,12.765-30.885,13.838-44.633,13.838H21.481V379.9l463-26.389a10.756,10.756,0,0,0-1.22-21.478L22.2,358.313a25.925,25.925,0,0,1,22.2-20.9l528.3-30.443Z"/>
</svg>
