<svg xmlns="http://www.w3.org/2000/svg" width="57" height="57" viewBox="0 0 57 57">
  <metadata><?xpacket begin="﻿" id="W5M0MpCehiHzreSzNTczkc9d"?>
<x:xmpmeta xmlns:x="adobe:ns:meta/" x:xmptk="Adobe XMP Core 5.6-c138 79.159824, 2016/09/14-01:09:01        ">
   <rdf:RDF xmlns:rdf="http://www.w3.org/1999/02/22-rdf-syntax-ns#">
      <rdf:Description rdf:about=""/>
   </rdf:RDF>
</x:xmpmeta>
                                                                                                    
                                                                                                    
                                                                                                    
                                                                                                    
                                                                                                    
                                                                                                    
                                                                                                    
                                                                                                    
                                                                                                    
                                                                                                    
                                                                                                    
                                                                                                    
                                                                                                    
                                                                                                    
                                                                                                    
                                                                                                    
                                                                                                    
                                                                                                    
                                                                                                    
                                                                                                    
                           
<?xpacket end="w"?></metadata>
<defs>
    <style>
      .cls-1 {
        fill-rule: evenodd;
      }
    </style>
  </defs>
  <path id="Forma_1" data-name="Forma 1" class="cls-1" d="M4.324,50.017l3.1,6.973H43L53.959,44.671Zm37.744,4.853H8.783l-1.36-3.056,41.321-4.45Zm-15.146-9.13,1-.047V8.62l-1.909,2.8c-8.535,12.5-21.59,31.468-22.562,32.5a1.159,1.159,0,0,0-.284,1.261c0.3,0.756.65,1.062,6.38,1.062C16.217,46.239,26.814,45.746,26.922,45.741Zm-1.1-30.328V43.668c-2.8.122-10.856,0.451-16.281,0.451-1.711,0-2.831-.034-3.562-0.075C9.589,39.11,20.766,22.809,25.825,15.413Zm24.319,26.8C50.195,41.96,55,16.513,30.5,3.541L28.967,2.73V45.9L50,42.951Zm-1.93-1.156-17.153,2.4V6.27C50.524,17.583,48.815,36.985,48.214,41.061ZM26.441,3.533l0.568-2.041c-12.227-3.486-14.635-.43-15.083.588L13.84,2.942C14.542,1.347,20.921,1.959,26.441,3.533Z"/>
</svg>
