<svg xmlns="http://www.w3.org/2000/svg" width="691" height="800" viewBox="0 0 691 800">
  <metadata><?xpacket begin="﻿" id="W5M0MpCehiHzreSzNTczkc9d"?>
<x:xmpmeta xmlns:x="adobe:ns:meta/" x:xmptk="Adobe XMP Core 5.6-c138 79.159824, 2016/09/14-01:09:01        ">
   <rdf:RDF xmlns:rdf="http://www.w3.org/1999/02/22-rdf-syntax-ns#">
      <rdf:Description rdf:about=""/>
   </rdf:RDF>
</x:xmpmeta>
                                                                                                    
                                                                                                    
                                                                                                    
                                                                                                    
                                                                                                    
                                                                                                    
                                                                                                    
                                                                                                    
                                                                                                    
                                                                                                    
                                                                                                    
                                                                                                    
                                                                                                    
                                                                                                    
                                                                                                    
                                                                                                    
                                                                                                    
                                                                                                    
                                                                                                    
                                                                                                    
                           
<?xpacket end="w"?></metadata>
<defs>
    <style>
      .cls-1 {
        fill-rule: evenodd;
      }
    </style>
  </defs>
  <path class="cls-1" d="M355.193,588V523.458a229.35,229.35,0,0,0,162.714-77.24l70.519,57.055L600,488.986l-70.418-56.971a228.981,228.981,0,0,0,2.731-272.263l67.466-51.376L588.637,93.749,520.95,145.291A229.466,229.466,0,0,0,355.193,64.542V0H336.807V64.542a229.355,229.355,0,0,0-162.714,77.239L103.574,84.727,92,99.014l70.418,56.971a228.979,228.979,0,0,0-2.73,272.263L92.221,479.624l11.142,14.627,67.687-51.542a229.434,229.434,0,0,0,165.757,80.749V588h18.386ZM281.65,294A64.35,64.35,0,1,1,346,358.312,64.407,64.407,0,0,1,281.65,294Zm73.543,211.083V376.146A82.542,82.542,0,0,0,403.308,353.5l100.313,81.153A211.032,211.032,0,0,1,355.193,505.083ZM557.437,294A210.17,210.17,0,0,1,515.3,420.457L415.085,339.386a82.233,82.233,0,0,0,.165-90.5l102.437-78A210.044,210.044,0,0,1,557.437,294ZM506.305,156.445L403.529,234.7a82.476,82.476,0,0,0-48.336-22.85V82.917A211.05,211.05,0,0,1,506.305,156.445Zm-169.5-73.528V211.845a82.542,82.542,0,0,0-48.115,22.648L188.378,153.339A211.065,211.065,0,0,1,336.807,82.917ZM134.563,294A210.169,210.169,0,0,1,176.7,167.543l100.212,81.071a82.233,82.233,0,0,0-.165,90.5l-102.437,78A210.032,210.032,0,0,1,134.563,294Zm51.131,137.556L288.471,353.3a82.476,82.476,0,0,0,48.336,22.85V505.073A211.009,211.009,0,0,1,185.694,431.556Z"/>
  <path id="AUTO" class="cls-1" d="M87.4,608.086a6.54,6.54,0,0,0-1.333-2.25,5.431,5.431,0,0,0-2.425-1.4,19.026,19.026,0,0,0-4.122-.668q-2.546-.183-6.425-0.183-3.637,0-6,.183a17.38,17.38,0,0,0-3.879.668,5.271,5.271,0,0,0-2.3,1.338,6.349,6.349,0,0,0-1.273,2.189L7.028,754.134A15.024,15.024,0,0,0,6,758.451a3.079,3.079,0,0,0,.849,2.493A5.769,5.769,0,0,0,10,762.1a44.464,44.464,0,0,0,5.758.3,50.41,50.41,0,0,0,5.516-.243,10.793,10.793,0,0,0,3.273-.79,4.71,4.71,0,0,0,1.758-1.338,6.369,6.369,0,0,0,.97-1.885l12.85-37.819h65.219L118.8,758.633a9.421,9.421,0,0,0,1.03,1.825,3.6,3.6,0,0,0,1.7,1.155,13.553,13.553,0,0,0,3.395.608q2.241,0.181,6,.182a58.445,58.445,0,0,0,6-.243,5.846,5.846,0,0,0,3.212-1.094,2.989,2.989,0,0,0,.91-2.493,15.158,15.158,0,0,0-1.031-4.317Zm12.486,95.582H45.335l27.033-78.436H72.49Zm220.659-96.19a2.764,2.764,0,0,0-.545-1.7,3.626,3.626,0,0,0-1.7-1.155,16.787,16.787,0,0,0-3.152-.73,33.654,33.654,0,0,0-4.91-.3,34.675,34.675,0,0,0-5.031.3,18.388,18.388,0,0,0-3.212.73,3.24,3.24,0,0,0-1.7,1.155,3,3,0,0,0-.485,1.7v96.19a59.168,59.168,0,0,1-2.606,18.484,35.949,35.949,0,0,1-7.516,13.255,30.743,30.743,0,0,1-12,8.026,45.624,45.624,0,0,1-16.183,2.675,43.989,43.989,0,0,1-15.941-2.736,32.05,32.05,0,0,1-12.123-8.148,36,36,0,0,1-7.7-13.559,61.49,61.49,0,0,1-2.667-19.092v-95.1a3.016,3.016,0,0,0-.485-1.7,3.238,3.238,0,0,0-1.636-1.155,16.817,16.817,0,0,0-3.213-.73,34.952,34.952,0,0,0-4.97-.3,34.391,34.391,0,0,0-5.091.3,18.406,18.406,0,0,0-3.152.73,3.24,3.24,0,0,0-1.7,1.155,3,3,0,0,0-.485,1.7v97.649a72.914,72.914,0,0,0,4.121,25.537,48.732,48.732,0,0,0,11.759,18.423,49.989,49.989,0,0,0,18.305,11.127,70.577,70.577,0,0,0,23.639,3.77,74.549,74.549,0,0,0,25.336-4.013,50.317,50.317,0,0,0,18.911-11.8,52.386,52.386,0,0,0,11.941-19.031,73.114,73.114,0,0,0,4.182-25.6V607.478Zm179.059,1.763a9.4,9.4,0,0,0-.788-2.858,3.765,3.765,0,0,0-1.334-1.581,3.293,3.293,0,0,0-1.757-.486h-109.1a3.287,3.287,0,0,0-1.758.486,3.382,3.382,0,0,0-1.273,1.581,12.3,12.3,0,0,0-.788,2.858,24.3,24.3,0,0,0-.3,4.074,23.192,23.192,0,0,0,.3,4.013,11.082,11.082,0,0,0,.788,2.736,3.4,3.4,0,0,0,1.273,1.52,3.269,3.269,0,0,0,1.758.486h44.126V758.512a2.993,2.993,0,0,0,.485,1.7,3.229,3.229,0,0,0,1.7,1.156,18.189,18.189,0,0,0,3.273.729,41.277,41.277,0,0,0,10,0,18.217,18.217,0,0,0,3.212-.729,3.249,3.249,0,0,0,1.7-1.156,3.008,3.008,0,0,0,.485-1.7V622.07h44.126a3.275,3.275,0,0,0,1.757-.486,3.815,3.815,0,0,0,1.334-1.52,8.524,8.524,0,0,0,.788-2.736,28.976,28.976,0,0,0,.242-4.013A30.361,30.361,0,0,0,499.605,609.241ZM681.823,647.3q-4.182-14.775-12.729-24.807a54.693,54.693,0,0,0-21.4-15.262q-12.851-5.226-30.185-5.229-17.943,0-31.4,5.776A59.575,59.575,0,0,0,563.689,624.2a70.408,70.408,0,0,0-13.456,25.842,119.2,119.2,0,0,0-4.485,33.806q0,19.458,4.121,34.414t12.547,25.051a53.841,53.841,0,0,0,21.336,15.383q12.911,5.291,30.609,5.29,17.94,0,31.4-5.776a58.46,58.46,0,0,0,22.366-16.539,72.1,72.1,0,0,0,13.4-26.084,122.445,122.445,0,0,0,4.485-34.414Q686.005,662.08,681.823,647.3Zm-20.3,59.526a58.517,58.517,0,0,1-8.111,20.126,41.416,41.416,0,0,1-15.013,13.8q-9.325,5.108-23,5.108-13.8,0-22.941-4.682a37.183,37.183,0,0,1-14.591-13.133,57.175,57.175,0,0,1-7.749-20.126,132.237,132.237,0,0,1-2.3-25.537,111.723,111.723,0,0,1,2.481-23.9,56.759,56.759,0,0,1,8.234-19.882,42.85,42.85,0,0,1,14.952-13.62q9.2-5.108,22.762-5.108T639,624.624a38.022,38.022,0,0,1,14.71,13.194,57.257,57.257,0,0,1,7.87,19.943,123.589,123.589,0,0,1,2.362,24.869A116.648,116.648,0,0,1,661.52,706.829Z"/>
</svg>
