<svg width="511.99938" height="511" xmlns="http://www.w3.org/2000/svg">

 <g>
  <title>Layer 1</title>
  <path stroke="null" id="svg_1" d="m497.35938,307.7601c-80.56641,0 -156.07032,-24.34158 -207.60938,-66.83244l0,-26.09466c-0.01172,-5.69485 -6.73047,-10.32493 -15,-10.333l-37.5,0c-8.26953,0.00807 -15,4.63815 -15,10.333l0,26.09466c-51.53906,42.49086 -127.04297,66.83244 -207.60937,66.83244c-8.24219,0 -14.8711,4.67041 -14.63282,10.34375c3.66016,87.15965 99.36328,158.44202 222.51563,169.53057c1.32422,4.76452 7.41797,8.38094 14.72656,8.38901l37.5,0c7.30469,-0.00807 13.39063,-3.62449 14.72266,-8.38901c123.54297,-11.12351 218.86718,-82.58872 222.51953,-169.53057c0.23828,-5.67065 -6.38672,-10.34375 -14.63281,-10.34375zm-275.10938,169.4284c-49.28125,-4.76184 -95.26562,-19.99112 -131.55859,-43.52068c45.05859,-2.31773 93.20312,-8.73586 131.55859,-30.09288l0,73.61356zm0,-87.39358c-39.85156,26.4926 -95.42969,32.29769 -145.38672,34.13144c-19.7539,-15.07333 -35.08984,-32.16593 -45.66406,-50.92558c84.17969,-1.6079 146.97266,-15.85846 191.05078,-43.40774l0,60.20189zm52.5,95.90089l-37.5,0l0,-181.86941c0,-2.84204 -3.37109,-5.1544 -7.5,-5.1544c-4.14062,0 -7.5,2.31236 -7.5,5.1544l0,11.28752c-42.29297,30.85112 -106.57422,46.45414 -196.27344,47.63182c-6.59765,-14.4334 -10.28906,-29.43682 -10.96484,-44.66071c77.98437,-0.0726 152.89062,-22.08837 207.23828,-61.63233l0,26.70232c0,2.85012 3.35938,5.16247 7.5,5.16247c4.12891,0 7.5,-2.31235 7.5,-5.16247l0,-68.32202l37.5,0l0,270.86281zm15,-8.50731l0,-73.61356c38.35547,21.35702 86.50391,27.77515 131.55859,30.09288c-36.29296,23.52956 -82.27343,38.75884 -131.55859,43.52068zm145.38281,-53.26214c-49.95312,-1.83375 -105.53515,-7.63884 -145.38281,-34.13144l0,-60.20189c44.07813,27.5466 106.87109,41.79985 191.05078,43.40774c-10.57422,18.75965 -25.91015,35.84957 -45.66797,50.92558zm50.89063,-61.18061c-89.69922,-1.17769 -153.98047,-16.78071 -196.27344,-47.63182l0,-58.66122c54.25781,39.47943 129.125,61.55973 207.23828,61.63233c-0.67578,15.22389 -4.36719,30.23 -10.96484,44.66071zm0,0"/>
  <path id="svg_3" d="m462.79347,120.63667l14.26936,-14.7l-27.58912,0l-27.58906,0l0,-9.09999l0,-9.1l27.27256,0c14.99988,0 27.27253,-0.46123 27.27253,-1.02496c0,-0.56372 -5.97141,-7.17872 -13.26978,-14.69999l-13.26982,-13.67505l12.26537,0l12.26532,0l18.73193,19.26844l18.73192,19.26843l-18.76785,19.23156l-18.76785,19.23156l-12.91245,0l-12.91248,0l14.2694,-14.7l0.00001,0z" stroke="null"/>
  <path transform="rotate(-180 47.8823 96.8367)" id="svg_4" d="m43.79106,120.63667l14.26937,-14.7l-27.58912,0l-27.58906,0l0,-9.09999l0,-9.10001l27.27256,0c14.99988,0 27.27253,-0.46123 27.27253,-1.02496c0,-0.56372 -5.97141,-7.17872 -13.26978,-14.69999l-13.26982,-13.67505l12.26537,0l12.26532,0l18.73193,19.26844l18.73192,19.26843l-18.76785,19.23156l-18.76785,19.23157l-12.91245,0l-12.91248,0l14.26941,-14.70001l0,0.00001z" stroke="null"/>
  <line id="svg_7" y2="102.5" x2="241.99969" y1="73.5" x1="149.99969" fill="none"/>
  <rect stroke="null" id="svg_9" height="19" width="323.00003" y="87.5" x="95.99966" fill="#000000"/>
 </g>
</svg>