<svg width="511.99938" height="511" xmlns="http://www.w3.org/2000/svg">
 <g>
  <title>Layer 1</title>
  <g stroke="null">
   <g stroke="null">
    <path stroke="null" d="m23.47235,449.29559c-5.2308,0 -9.47266,4.24091 -9.47266,9.47266s4.24186,9.47266 9.47266,9.47266l21.78711,0l0,21.78711c0,5.2308 4.24186,9.47266 9.47266,9.47266s9.47266,-4.24186 9.47266,-9.47266l0,-21.78711l40.73242,0l0,21.78711c0,5.2308 4.24186,9.47266 9.47266,9.47266s9.47266,-4.24186 9.47266,-9.47266l0,-21.78711l37.89063,0l0,21.78711c0,5.2308 4.24186,9.47266 9.47266,9.47266s9.47266,-4.24186 9.47266,-9.47266l0,-21.78711l37.89063,0l0,21.78711c0,5.2308 4.24186,9.47266 9.47266,9.47266s9.47266,-4.24186 9.47266,-9.47266l0,-21.78711l37.89063,0l0,21.78711c0,5.2308 4.24186,9.47266 9.47266,9.47266s9.47266,-4.24186 9.47266,-9.47266l0,-21.78711l37.89063,0l0,21.78711c0,5.2308 4.24186,9.47266 9.47266,9.47266s9.47266,-4.24186 9.47266,-9.47266l0,-21.78711l37.89063,0l0,21.78711c0,5.2308 4.24186,9.47266 9.47266,9.47266s9.47266,-4.24186 9.47266,-9.47266l0,-21.78711l37.89063,0l0,21.78711c0,5.2308 4.24186,9.47266 9.47266,9.47266s9.47266,-4.24186 9.47266,-9.47266l0,-21.78711l24.62891,0c5.2308,0 9.47266,-4.24091 9.47266,-9.47266s-4.24186,-9.47266 -9.47266,-9.47266l-53.04688,0l0,-64.41406c0,-5.23175 -4.24186,-9.47266 -9.47266,-9.47266s-9.47266,4.24091 -9.47266,9.47266l0,64.41406l-37.89063,0l0,-211.24023l37.89063,0l0,61.57227c0,5.23175 4.24186,9.47266 9.47266,9.47266s9.47266,-4.24091 9.47266,-9.47266l0,-71.04492c0,-5.23175 -4.24186,-9.47266 -9.47266,-9.47266l-56.83594,0c-5.2308,0 -9.47266,4.24091 -9.47266,9.47266l0,220.71289l-37.89063,0l0,-163.87695c0,-5.23175 -4.24186,-9.47266 -9.47266,-9.47266l-56.83594,0c-5.2308,0 -9.47266,4.24091 -9.47266,9.47266l0,163.87695l-37.89063,0l0,-107.04102c0,-5.23175 -4.24186,-9.47266 -9.47266,-9.47266l-56.83594,0c-5.2308,0 -9.47266,4.24091 -9.47266,9.47266l0,107.04102l-69.15039,0l0,-425.32227c0,-5.23175 -4.24186,-9.47266 -9.47266,-9.47266s-9.47266,4.24091 -9.47266,9.47266l0,24.62891l-21.78711,0c-5.2308,0 -9.47266,4.24091 -9.47266,9.47266s4.24186,9.47266 9.47266,9.47266l21.78711,0l0,37.89063l-21.78711,0c-5.2308,0 -9.47266,4.24091 -9.47266,9.47266s4.24186,9.47266 9.47266,9.47266l21.78711,0l0,37.89063l-21.78711,0c-5.2308,0 -9.47266,4.24091 -9.47266,9.47266s4.24186,9.47266 9.47266,9.47266l21.78711,0l0,37.89063l-21.78711,0c-5.2308,0 -9.47266,4.24091 -9.47266,9.47266s4.24186,9.47266 9.47266,9.47266l21.78711,0l0,37.89062l-21.78711,0c-5.2308,0 -9.47266,4.24091 -9.47266,9.47266s4.24186,9.47266 9.47266,9.47266l21.78711,0l0,37.89063l-21.78711,0c-5.2308,0 -9.47266,4.24091 -9.47266,9.47266s4.24186,9.47266 9.47266,9.47266l21.78711,0l0,37.89063l-21.78711,0c-5.2308,0 -9.47266,4.24091 -9.47266,9.47266s4.24186,9.47266 9.47266,9.47266l21.78711,0l0,40.73242l-21.78711,0zm242.5,-154.4043l37.89063,0l0,154.4043l-37.89063,0l0,-154.4043zm-113.67188,56.83594l37.89063,0l0,97.56836l-37.89063,0l0,-97.56836z"/>
    <path stroke="null" d="m427.0075,152.80145c5.2308,0 9.47266,-4.24091 9.47266,-9.47266l0,-56.83594c0,-5.23175 -4.24186,-9.47266 -9.47266,-9.47266l-56.83594,0c-5.2308,0 -9.47266,4.24091 -9.47266,9.47266s4.24186,9.47266 9.47266,9.47266l33.9661,0l-94.72656,94.72656l-52.91142,0c-2.51215,0 -4.92104,0.99842 -6.69812,2.77454l-85.25391,85.25391c-3.69907,3.69907 -3.69907,9.69716 0,13.39718c3.70097,3.69907 9.69621,3.69813 13.39718,0l82.47937,-82.47937l52.91142,0c2.51215,0 4.92104,-0.99842 6.69812,-2.77454l97.5011,-97.50205l0,33.9661c0,5.2327 4.24186,9.4736 9.47266,9.4736z"/>
    <circle stroke="null" r="9.47266" cy="342.25458" cx="427.0075"/>
    <g stroke="null">
     <path stroke="null" d="m154.66864,197.42007a53.34192,53.34192 0 0 0 53.28179,-53.28179c0,-25.81554 -37.82964,-81.91775 -45.41087,-92.92065a9.92611,9.92611 0 0 0 -15.74185,0c-7.58123,10.98103 -45.41087,67.08324 -45.41087,92.92065a53.34192,53.34192 0 0 0 53.28179,53.28179zm0,-123.50247c15.56148,24.08285 34.15107,57.1298 34.15107,70.22068a34.15107,34.15107 0 0 1 -68.32401,0c0.02186,-13.07995 18.61693,-46.13237 34.17293,-70.22068z"/>
    </g>
   </g>
  </g>
 </g>

</svg>