<?xml version="1.0" encoding="iso-8859-1"?>
<!-- Generator: Adobe Illustrator 19.0.0, SVG Export Plug-In . SVG Version: 6.00 Build 0)  -->
<svg version="1.1" id="Layer_1" xmlns="http://www.w3.org/2000/svg" xmlns:xlink="http://www.w3.org/1999/xlink" x="0px" y="0px"
	 viewBox="0 0 214.292 214.292" style="enable-background:new 0 0 214.292 214.292;" xml:space="preserve">
<g>
	<g>
		<g>
			<path d="M182.652,64.756c-12.888-9.104-39.828-24.376-75.504-24.376C50.076,40.38,0,82.32,0,107.668
				c0,12.092,11.5,22.876,30.336,30.712v0.884c0,4.416,1.872,9.676,4.776,13.572c6.1,10.152,31.244,21.076,72.036,21.076
				c39.308,0,64.456-10.516,71.92-20.912c3.016-4.06,4.888-9.324,4.888-13.736v-0.888c18.836-7.832,30.336-18.616,30.336-30.708
				C214.292,95.18,201.872,78.336,182.652,64.756z M34.608,141.896c0.008-0.156,0.012-0.3,0.012-0.392
				c0-1.836,0.876-3.752,2.384-5.676l-1.664,8.788C35.032,143.704,34.776,142.792,34.608,141.896z M38.432,150.616
				c-0.916-1.236-1.656-2.636-2.3-4.068l2.348-12.396c1.592-1.604,3.664-3.192,6.156-4.744l-4.444,23.468
				C39.504,152.124,38.888,151.372,38.432,150.616z M41.164,153.86l4.784-25.252c1.764-1.024,3.7-2.028,5.828-2.996l-6.004,31.712
				C43.956,156.2,42.416,155.04,41.164,153.86z M46.804,157.956l6.228-32.888c0.876-0.38,1.712-0.768,2.64-1.136
				c0.984-0.392,2.028-0.74,3.044-1.104L51.6,160.392C49.86,159.604,48.244,158.792,46.804,157.956z M52.668,160.884l7.292-38.508
				c1.816-0.628,3.684-1.216,5.592-1.768l-7.984,42.164C55.84,162.168,54.192,161.54,52.668,160.884z M58.656,163.132l8.124-42.896
				c1.804-0.5,3.652-0.956,5.524-1.388l-8.676,45.804C61.892,164.168,60.236,163.664,58.656,163.132z M64.728,164.968l8.788-46.412
				c1.792-0.396,3.62-0.744,5.464-1.076l-9.224,48.712C68.016,165.808,66.344,165.4,64.728,164.968z M70.86,166.432l9.316-49.176
				c1.784-0.304,3.592-0.572,5.412-0.816l-9.652,50.968C74.192,167.108,72.504,166.78,70.86,166.432z M77.06,167.584l9.72-51.308
				c1.772-0.224,3.568-0.404,5.368-0.572l-9.972,52.644C80.424,168.116,78.724,167.86,77.06,167.584z M83.312,168.484l10.016-52.904
				c1.76-0.148,3.54-0.244,5.324-0.336l-10.188,53.808C86.704,168.888,84.996,168.692,83.312,168.484z M89.604,169.14l10.22-53.972
				c1.752-0.08,3.516-0.104,5.284-0.128l-10.32,54.492C93.02,169.428,91.3,169.292,89.604,169.14z M95.932,169.588l10.336-54.572
				c0.296,0,0.588-0.02,0.88-0.02c1.46,0,2.912,0.052,4.364,0.092l-10.364,54.724C99.372,169.76,97.644,169.68,95.932,169.588z
				 M107.148,169.912c-1.648,0-3.244-0.04-4.848-0.076l10.364-54.72c1.744,0.06,3.48,0.156,5.208,0.268l-10.324,54.52
				C107.412,169.904,107.284,169.912,107.148,169.912z M108.708,169.888l10.308-54.432c1.736,0.124,3.456,0.284,5.172,0.464
				l-10.204,53.88C112.264,169.856,110.488,169.872,108.708,169.888z M115.148,169.74l10.172-53.7
				c1.728,0.192,3.436,0.416,5.132,0.664l-9.996,52.768C118.728,169.588,116.944,169.668,115.148,169.74z M121.632,169.38
				l9.948-52.508c1.716,0.264,3.416,0.552,5.092,0.872l-9.692,51.176C125.244,169.1,123.448,169.248,121.632,169.38z
				 M128.164,168.772l9.624-50.808c1.708,0.34,3.392,0.7,5.052,1.092l-9.288,49.032
				C131.804,168.344,130.004,168.568,128.164,168.772z M134.748,167.904l9.2-48.572c1.696,0.42,3.368,0.864,5.004,1.34
				l-8.768,46.292C138.428,167.304,136.616,167.616,134.748,167.904z M141.388,166.72l8.66-45.72
				c1.688,0.508,3.34,1.048,4.952,1.616l-8.12,42.868C145.12,165.924,143.288,166.336,141.388,166.72z M148.096,165.196
				l7.988-42.184c0.844,0.308,1.72,0.596,2.54,0.924c0.824,0.328,1.568,0.676,2.352,1.012l-7.316,38.632
				C151.896,164.148,150.04,164.688,148.096,165.196z M154.892,163.156l7.152-37.748c1.712,0.764,3.328,1.548,4.812,2.352
				l-6.304,33.28C158.8,161.776,156.896,162.48,154.892,163.156z M161.82,160.488l6.088-32.152c1.756,1,3.292,2.024,4.68,3.056
				l-4.952,26.148C165.916,158.556,163.956,159.54,161.82,160.488z M175.216,151.392c-1.456,1.78-3.552,3.572-6.264,5.312
				l4.648-24.552c1.896,1.52,3.372,3.06,4.392,4.588L175.216,151.392z M176.808,149.108l2.04-10.772
				c0.492,1.072,0.828,2.14,0.828,3.176c0,0.08,0.004,0.224,0.012,0.36C179.244,144.284,178.204,146.828,176.808,149.108z
				 M179.952,137.996c-2.364-5.252-9.784-10.704-20.908-15.116c-6.384-2.532-13.508-4.536-21.044-6.028v-0.004
				c-0.012,0.004-0.024-0.004-0.036-0.004c-9.756-1.928-20.212-2.98-30.82-2.98c-37.088,0-67.56,12.492-72.812,24.168v-2.176
				c0-1.196,0.2-3.552,0.348-5.4c0.108-1.304,0.192-2.376,0.192-2.728c0-5.876,16.368-18.24,48.976-22.232
				c5.452,4.804,15.896,7.632,23.3,7.632c0.028,0,0.06,0,0.084,0c7.368-0.024,17.792-2.868,23.212-7.632
				c32.604,3.996,48.968,16.356,48.968,22.232c0,0.348,0.084,1.42,0.192,2.728c0.152,1.848,0.348,4.204,0.348,5.4V137.996z
				 M192.684,129.488c-2.684,1.528-5.628,2.988-8.816,4.364c-0.072-1.184-0.18-2.536-0.276-3.72c-0.092-1.148-0.176-2.088-0.176-2.4
				c0-5.504-6.648-12.02-18.448-17.328c-9.02-4.452-21.32-8.184-35.548-10.16c-0.044,0.4-0.172,0.784-0.42,1.092l-0.652,0.656
				c-4.376,4.384-14.372,7.12-21.124,7.14c-0.024,0-0.048,0-0.076,0c-6.78,0-16.784-2.72-21.192-7.14l-0.656-0.656
				c0.02-0.004,0.04-0.008,0.056-0.008c-0.232-0.312-0.36-0.692-0.392-1.084c-14.136,1.956-26.372,5.644-35.384,10.052
				c-11.96,5.328-18.708,11.896-18.708,17.44c0,0.312-0.084,1.252-0.176,2.4c-0.096,1.18-0.204,2.532-0.276,3.716
				c-1.78-0.768-3.484-1.56-5.112-2.376c-10.588-6.208-16.86-13.644-16.86-21.668c0-20.472,42.772-61.376,98.94-61.376
				c56.164,0,98.936,40.908,98.936,61.376C206.324,116.988,201.316,123.704,192.684,129.488z M201.392,123.472
				c3.88-4.272,6.068-8.864,6.068-13.664c0-23.552-46.768-62.508-100.072-62.508C54.084,47.3,7.312,86.26,7.312,109.808
				c0,5.4,2.7,10.552,7.552,15.256c-6.92-5.288-10.868-11.2-10.868-17.396c0-21.108,44.592-63.288,103.148-63.288
				c58.556,0,103.144,42.18,103.144,63.288C210.292,113.252,207.084,118.6,201.392,123.472z"/>
			<path d="M107.148,52.752c-0.024,0-0.052,0-0.08,0c-14.36,0.048-26.004,11.764-25.96,26.124
				c0.044,14.328,11.716,25.956,26.04,25.956c0.024,0,0.052,0,0.08,0c6.956-0.024,13.488-2.752,18.392-7.684
				s7.588-11.484,7.572-18.436C133.144,64.38,121.472,52.752,107.148,52.752z M123.612,95.148
				c-4.372,4.396-10.192,6.828-16.392,6.848c-0.024,0-0.048,0-0.072,0c-12.76,0-23.168-10.364-23.208-23.132
				c-0.04-12.8,10.336-23.24,23.136-23.28c0.024,0,0.048,0,0.072,0c12.76,0,23.168,10.364,23.208,23.132
				C130.376,84.916,127.98,90.752,123.612,95.148z"/>
			<path d="M118.256,82.676c-0.06-0.34-0.308-0.612-0.64-0.708c-0.084-0.024-0.168-0.036-0.252-0.036
				c-0.248,0-0.492,0.104-0.668,0.292l-3.156,3.42c-0.212,0.232-0.292,0.556-0.208,0.86c0.084,0.304,0.324,0.54,0.624,0.628
				l0.052,0.016c-0.836,0.652-1.88,1.096-3.156,1.344c-0.272,0.052-0.496,0.084-0.692,0.084c-0.236,0-0.34,0-0.532-0.852
				c-0.248-1.108-0.544-2.564-0.616-4.012c-0.088-1.732-0.14-3.468-0.18-5.204l3.56-0.012c0.496,0,0.96-0.196,1.312-0.544
				c0.356-0.352,0.552-0.82,0.548-1.316c-0.004-1.02-0.84-1.848-1.868-1.848l-3.636,0.012l-0.012-0.496
				c-0.008-0.424-0.004-0.852,0-1.276c2.252-0.704,3.816-2.764,3.808-5.16c-0.008-2.968-2.46-5.384-5.468-5.384h-0.012
				c-1.464,0.004-2.836,0.568-3.864,1.588c-1.032,1.024-1.6,2.384-1.596,3.828c0.008,2.4,1.584,4.456,3.848,5.14l0.008,0.936
				l0.008,0.832l-3.652,0.012c-0.496,0-0.96,0.196-1.312,0.544c-0.356,0.352-0.552,0.82-0.548,1.316
				c0.004,1.02,0.84,1.848,1.868,1.848l3.644-0.012c-0.02,1.892-0.092,4.196-0.344,6.512c-0.108,0.98-0.304,2.016-0.592,3.084
				c-0.104,0.388-0.188,0.464-0.192,0.468c-0.1,0.008-0.18,0.008-0.244,0.008c-0.112,0-0.184-0.008-0.26-0.02
				c-1.44-0.196-2.616-0.656-3.56-1.388l0.044-0.012c0.304-0.088,0.536-0.328,0.62-0.632c0.084-0.304,0.004-0.628-0.212-0.86
				l-3.176-3.4c-0.176-0.188-0.416-0.288-0.664-0.288c-0.088,0-0.172,0.012-0.26,0.036c-0.328,0.1-0.576,0.376-0.636,0.712
				L95.216,87.3c-0.052,0.308,0.056,0.624,0.288,0.832c0.172,0.152,0.388,0.232,0.608,0.232c0.084,0,0.172-0.012,0.252-0.036
				l0.872-0.252c0.36,0.664,0.856,1.276,1.472,1.832c2.452,2.2,5.336,3.764,7.848,5.056c0.128,0.068,0.444,0.136,0.588,0.136
				c0.256,0,0.524-0.064,0.74-0.18c0.86-0.456,1.72-0.916,2.56-1.408c1.892-1.116,3.88-2.352,5.58-4.08
				c0.412-0.416,0.756-0.892,1.032-1.412l0.876,0.248c0.08,0.024,0.164,0.036,0.248,0.036c0.224,0,0.44-0.08,0.608-0.236
				c0.232-0.212,0.34-0.524,0.284-0.832L118.256,82.676z M116.552,86.916c-0.256,0.688-0.632,1.316-1.172,1.864
				c-1.58,1.604-3.468,2.796-5.396,3.936c-0.828,0.488-1.676,0.94-2.524,1.388c-0.084,0.044-0.208,0.076-0.316,0.076
				c-0.064,0-0.124-0.012-0.172-0.036c-2.712-1.396-5.376-2.876-7.656-4.924c-0.712-0.636-1.256-1.376-1.58-2.244l-1.62,0.472
				l0.788-4.548l3.176,3.4l-1.516,0.44c1.296,1.624,3.08,2.448,5.16,2.732c0.168,0.024,0.316,0.036,0.452,0.036
				c0.704,0,1.02-0.324,1.244-1.156c0.284-1.056,0.5-2.136,0.616-3.22c0.272-2.5,0.348-5.008,0.356-7.52l-4.556,0.016
				c-0.528,0-0.96-0.424-0.96-0.944s0.428-0.948,0.96-0.948l4.56-0.016c-0.008-1.132-0.02-2.264-0.024-3.396
				c-2.172-0.34-3.836-2.184-3.844-4.42c-0.008-2.48,2.028-4.5,4.548-4.508c0.004,0,0.008,0,0.016,0c2.512,0,4.552,2.004,4.56,4.48
				c0.008,2.228-1.636,4.08-3.8,4.44c-0.004,0.672-0.024,1.344-0.012,2.012c0.012,0.46,0.02,0.924,0.032,1.384l4.52-0.016h0.004
				c0.528,0,0.96,0.424,0.96,0.944s-0.428,0.948-0.96,0.948l-4.484,0.012c0.044,2.052,0.096,4.104,0.2,6.156
				c0.072,1.396,0.332,2.796,0.64,4.164c0.256,1.136,0.592,1.56,1.416,1.56c0.244,0,0.528-0.036,0.864-0.104
				c1.896-0.372,3.528-1.18,4.704-2.688l-1.528-0.436l3.156-3.42l0.82,4.548L116.552,86.916z"/>
			<path d="M110.192,67.88c-0.004-1.688-1.396-3.048-3.104-3.048c-0.004,0-0.008,0-0.012,0c-1.716,0.004-3.1,1.38-3.096,3.068
				c0.004,1.688,1.396,3.048,3.104,3.048V70.04c-1.208,0-2.192-0.964-2.196-2.144c-0.004-1.188,0.98-2.156,2.192-2.16
				c1.216,0,2.2,0.964,2.204,2.144c0,0.572-0.224,1.112-0.636,1.52c-0.416,0.412-0.968,0.64-1.556,0.64l-0.008,0.908
				c0.004,0,0.008,0,0.012,0C108.812,70.944,110.196,69.568,110.192,67.88z"/>
		</g>
	</g>
</g>
<g>
</g>
<g>
</g>
<g>
</g>
<g>
</g>
<g>
</g>
<g>
</g>
<g>
</g>
<g>
</g>
<g>
</g>
<g>
</g>
<g>
</g>
<g>
</g>
<g>
</g>
<g>
</g>
<g>
</g>
</svg>
