<?xml version="1.0" encoding="iso-8859-1"?>
<!-- Generator: Adobe Illustrator 19.0.0, SVG Export Plug-In . SVG Version: 6.00 Build 0)  -->
<svg version="1.1" id="Layer_1" xmlns="http://www.w3.org/2000/svg" xmlns:xlink="http://www.w3.org/1999/xlink" x="0px" y="0px"
	 viewBox="0 0 512 512" style="enable-background:new 0 0 512 512;" xml:space="preserve">
<g>
	<g>
		<g>
			<path d="M51.2,68.267c-18.825,0-34.133,15.309-34.133,34.133v51.2c0,15.855,10.914,29.107,25.6,32.922V435.2
				c0,4.71,3.814,8.533,8.533,8.533s8.533-3.823,8.533-8.533V186.522c14.686-3.814,25.6-17.067,25.6-32.922v-51.2
				C85.333,83.575,70.025,68.267,51.2,68.267z M68.267,153.6c0,9.412-7.654,17.067-17.067,17.067
				c-9.412,0-17.067-7.654-17.067-17.067v-51.2c0-9.412,7.654-17.067,17.067-17.067c9.412,0,17.067,7.654,17.067,17.067V153.6z"/>
			<path d="M469.333,325.478V76.8c0-4.71-3.814-8.533-8.533-8.533c-4.719,0-8.533,3.823-8.533,8.533v248.678
				c-14.686,3.814-25.6,17.067-25.6,32.922v51.2c0,18.825,15.309,34.133,34.133,34.133c18.825,0,34.133-15.309,34.133-34.133v-51.2
				C494.933,342.545,484.019,329.293,469.333,325.478z M477.867,409.6c0,9.412-7.663,17.067-17.067,17.067
				s-17.067-7.654-17.067-17.067v-51.2c0-9.412,7.663-17.067,17.067-17.067s17.067,7.654,17.067,17.067V409.6z"/>
			<path d="M256,0c-84.693,0-153.6,68.907-153.6,153.6v204.8c0,84.693,68.907,153.6,153.6,153.6s153.6-68.907,153.6-153.6V153.6
				C409.6,68.907,340.693,0,256,0z M256,17.067c21.666,0,42.103,5.205,60.314,14.225c-0.06,0.179-0.205,0.316-0.256,0.495
				L301.79,81.715c-13.252-8.474-28.928-13.449-45.79-13.449s-32.538,4.975-45.79,13.449l-14.268-49.929
				c-0.051-0.179-0.188-0.316-0.256-0.495C213.897,22.272,234.334,17.067,256,17.067z M324.267,153.6v51.2H187.733v-51.2
				c0-37.641,30.626-68.267,68.267-68.267S324.267,115.959,324.267,153.6z M180.506,39.936l15.24,53.308
				c-15.488,15.454-25.079,36.804-25.079,60.356h-51.2C119.467,106.214,143.761,64.427,180.506,39.936z M119.467,358.4h51.2
				c0,23.552,9.591,44.902,25.079,60.356l-15.24,53.308C143.761,447.573,119.467,405.786,119.467,358.4z M187.733,358.4v-51.2
				h136.533v51.2c0,37.641-30.626,68.267-68.267,68.267S187.733,396.041,187.733,358.4z M256,494.933
				c-21.658,0-42.086-5.205-60.297-14.225c0.06-0.179,0.188-0.316,0.239-0.495l14.268-49.929
				c13.252,8.465,28.928,13.448,45.79,13.448s32.538-4.983,45.79-13.448l14.268,49.929c0.051,0.179,0.179,0.316,0.239,0.495
				C298.086,489.728,277.658,494.933,256,494.933z M331.494,472.064l-15.232-53.308c15.479-15.454,25.071-36.804,25.071-60.356h51.2
				C392.533,405.786,368.239,447.573,331.494,472.064z M392.533,341.333h-51.2v-93.867c0-4.71-3.814-8.533-8.533-8.533
				s-8.533,3.823-8.533,8.533v42.667H179.2c-4.719,0-8.533,3.823-8.533,8.533v42.667h-51.2V170.667h51.2v93.867
				c0,4.71,3.814,8.533,8.533,8.533s8.533-3.823,8.533-8.533v-42.667H332.8c4.719,0,8.533-3.823,8.533-8.533v-42.667h51.2V341.333z
				 M341.333,153.6c0-23.552-9.591-44.902-25.071-60.356l15.232-53.308c36.745,24.491,61.039,66.278,61.039,113.664H341.333z"/>
		</g>
	</g>
</g>
<g>
</g>
<g>
</g>
<g>
</g>
<g>
</g>
<g>
</g>
<g>
</g>
<g>
</g>
<g>
</g>
<g>
</g>
<g>
</g>
<g>
</g>
<g>
</g>
<g>
</g>
<g>
</g>
<g>
</g>
</svg>
