<?xml version="1.0" encoding="iso-8859-1"?>
<!-- Generator: Adobe Illustrator 18.0.0, SVG Export Plug-In . SVG Version: 6.00 Build 0)  -->
<!DOCTYPE svg PUBLIC "-//W3C//DTD SVG 1.1//EN" "http://www.w3.org/Graphics/SVG/1.1/DTD/svg11.dtd">
<svg version="1.1" id="Capa_1" xmlns="http://www.w3.org/2000/svg" xmlns:xlink="http://www.w3.org/1999/xlink" x="0px" y="0px"
	 viewBox="0 0 487.538 487.538" style="enable-background:new 0 0 487.538 487.538;" xml:space="preserve">
<g>
	<path d="M113.751,283.521c-1.688-7.825-0.51-14.522,3.609-20.436c10.1-14.5,34.689-19.673,42.886-21.028
		c4.355,11.136,15.063,18.637,27.278,18.637c2.353,0,4.713-0.287,7.016-0.852l70.231-17.234
		c15.717-3.857,25.367-19.781,21.512-35.499c-3.23-13.164-14.941-22.358-28.48-22.358c-2.353,0-4.713,0.287-7.016,0.852
		l-70.232,17.233c-14.186,3.482-23.427,16.796-22.257,30.916c-9.774,1.641-36.074,7.504-47.899,24.457
		c-5.087,7.293-6.88,15.672-5.365,24.941c-3.056,0.146-6.106,0.576-9.099,1.31c-12.339,3.028-22.76,10.68-29.345,21.546
		c-6.584,10.865-8.542,23.645-5.515,35.983c5.238,21.336,24.22,36.237,46.161,36.237c3.812,0,7.637-0.464,11.37-1.38
		c12.339-3.027,22.76-10.679,29.344-21.544c6.585-10.866,8.543-23.646,5.516-35.984C148.75,300.104,132.885,286.115,113.751,283.521
		z M229.568,199.561l9.866,40.512l-34.131,8.376l-9.914-40.501L229.568,199.561z M252.811,193.858
		c1.641-0.403,3.319-0.607,4.99-0.607c9.613,0,17.931,6.532,20.225,15.884c2.739,11.166-4.116,22.479-15.281,25.218l-15.057,3.694
		l-9.866-40.511L252.811,193.858z M182.579,211.091l4.556-1.117l9.914,40.5l-4.534,1.112c-1.641,0.403-3.319,0.607-4.99,0.607
		c-9.613,0-17.932-6.533-20.229-15.885C164.559,225.143,171.415,213.83,182.579,211.091z M140.682,350.898
		c-5.408,8.924-13.967,15.207-24.101,17.693c-3.071,0.754-6.215,1.136-9.345,1.136c-18.017,0-33.604-12.239-37.905-29.764
		c-2.487-10.134-0.879-20.629,4.529-29.553c5.407-8.924,13.966-15.208,24.1-17.694c3.071-0.754,6.215-1.136,9.344-1.136
		c18.019,0,33.605,12.239,37.906,29.764C147.697,331.478,146.089,341.974,140.682,350.898z"/>
	<path d="M482.15,167.679c-5.872-8.694-15.648-13.885-26.151-13.885c-6.291,0-12.383,1.867-17.615,5.4l-108.543,73.286
		c-6.767-1.389-13.835-1.278-20.57,0.375L190.093,262.1c-25.083,6.156-40.482,31.57-34.328,56.653
		c5.24,21.351,24.431,35.686,45.493,35.685c3.666,0,7.391-0.436,11.107-1.343l55.232,54.791c4.509,4.472,10.489,6.935,16.84,6.935
		c6.424,0,12.453-2.512,16.977-7.071c4.5-4.534,6.964-10.55,6.938-16.937c-0.026-6.387-2.538-12.382-7.072-16.881l-34.471-34.194
		l64.789-15.898c19.284-4.731,33.276-20.81,35.401-40.372l106.665-72.018C488.069,201.723,491.877,182.088,482.15,167.679z
		 M299.851,390.847c0.017,4.116-1.571,7.992-4.472,10.915c-2.916,2.94-6.802,4.559-10.942,4.559c-4.093,0-7.947-1.587-10.853-4.47
		l-80.498-79.854c-2.924-2.899-4.542-6.763-4.559-10.88c-0.017-4.116,1.571-7.993,4.472-10.916
		c2.916-2.939,6.802-4.559,10.941-4.559c4.093,0,7.947,1.588,10.855,4.472l80.498,79.853
		C298.215,382.867,299.834,386.731,299.851,390.847z M329.571,315.583l-69.838,17.137l-38.953-38.642
		c-4.51-4.473-10.491-6.937-16.841-6.937c-6.424,0-12.452,2.512-16.976,7.072c-4.499,4.534-6.963,10.549-6.938,16.936
		c0.025,6.388,2.537,12.383,7.072,16.881l17.861,17.719c-18.648,1.824-36.347-10.304-40.94-29.022
		c-5.038-20.531,7.566-41.334,28.098-46.372l119.178-29.244c2.439-0.599,4.889-0.946,7.338-1.064l-10.6,7.156
		c-6.98,4.713-11.707,11.86-13.31,20.127c-1.604,8.267,0.108,16.662,4.819,23.641c5.873,8.696,15.649,13.888,26.153,13.888
		c6.292,0,12.384-1.868,17.616-5.401l13.573-9.164C352.859,302.687,342.72,312.358,329.571,315.583z M468.907,204.404l-130.35,88.01
		c-3.822,2.582-8.27,3.946-12.859,3.946c-7.676,0-14.819-3.792-19.108-10.145c-3.441-5.097-4.691-11.228-3.521-17.265
		c1.172-6.038,4.624-11.259,9.722-14.701l130.35-88.01c3.823-2.581,8.27-3.945,12.859-3.945c4.858,0,9.502,1.523,13.346,4.25
		l-63.134,47.328c-1.879,1.408-2.26,4.071-0.852,5.949c0.835,1.114,2.111,1.701,3.403,1.701c0.888,0,1.782-0.276,2.546-0.85
		l63.976-47.959C482.155,183.21,479.337,197.363,468.907,204.404z"/>
	<path d="M38.25,275.717c-8.96,0-16.25,7.29-16.25,16.25c0,8.96,7.29,16.25,16.25,16.25s16.25-7.29,16.25-16.25
		C54.5,283.007,47.21,275.717,38.25,275.717z M38.25,299.717c-4.273,0-7.75-3.477-7.75-7.75c0-4.273,3.477-7.75,7.75-7.75
		s7.75,3.477,7.75,7.75C46,296.241,42.523,299.717,38.25,299.717z"/>
	<path d="M82.5,207.967c0-8.96-7.29-16.25-16.25-16.25S50,199.007,50,207.967c0,8.96,7.29,16.25,16.25,16.25
		S82.5,216.927,82.5,207.967z M58.5,207.967c0-4.273,3.477-7.75,7.75-7.75s7.75,3.477,7.75,7.75c0,4.273-3.477,7.75-7.75,7.75
		S58.5,212.241,58.5,207.967z"/>
	<path d="M36.5,178.967c0-8.96-7.29-16.25-16.25-16.25S4,170.007,4,178.967c0,8.96,7.29,16.25,16.25,16.25
		S36.5,187.927,36.5,178.967z M20.25,186.717c-4.273,0-7.75-3.477-7.75-7.75c0-4.273,3.477-7.75,7.75-7.75s7.75,3.477,7.75,7.75
		C28,183.241,24.523,186.717,20.25,186.717z"/>
	<path d="M53.25,135.217c8.96,0,16.25-7.29,16.25-16.25c0-8.96-7.29-16.25-16.25-16.25S37,110.007,37,118.967
		C37,127.927,44.29,135.217,53.25,135.217z M53.25,111.217c4.273,0,7.75,3.477,7.75,7.75c0,4.273-3.477,7.75-7.75,7.75
		s-7.75-3.477-7.75-7.75C45.5,114.694,48.977,111.217,53.25,111.217z"/>
	<path d="M16.25,105.217c8.96,0,16.25-7.29,16.25-16.25c0-8.96-7.29-16.25-16.25-16.25S0,80.007,0,88.967
		C0,97.927,7.29,105.217,16.25,105.217z M16.25,81.217c4.273,0,7.75,3.477,7.75,7.75c0,4.273-3.477,7.75-7.75,7.75
		s-7.75-3.477-7.75-7.75C8.5,84.694,11.977,81.217,16.25,81.217z"/>
</g>
<g>
</g>
<g>
</g>
<g>
</g>
<g>
</g>
<g>
</g>
<g>
</g>
<g>
</g>
<g>
</g>
<g>
</g>
<g>
</g>
<g>
</g>
<g>
</g>
<g>
</g>
<g>
</g>
<g>
</g>
</svg>
