<?xml version="1.0" encoding="iso-8859-1"?>
<!-- Generator: Adobe Illustrator 19.0.0, SVG Export Plug-In . SVG Version: 6.00 Build 0)  -->
<svg version="1.1" id="Capa_1" xmlns="http://www.w3.org/2000/svg" xmlns:xlink="http://www.w3.org/1999/xlink" x="0px" y="0px"
	 viewBox="0 0 512.002 512.002" style="enable-background:new 0 0 512.002 512.002;" xml:space="preserve">
<g>
	<g>
		<path d="M343.753,289.981h-17.125c-4.146,0-7.508,3.362-7.508,7.508s3.362,7.508,7.508,7.508h17.125
			c3.412,0,6.177,2.765,6.177,6.177v18.825c0,20.071-15.961,36.619-35.578,36.889c-13.377,0.159-25.743-7.038-32.191-18.85
			c-7.121-13.042-21.016-21.144-36.26-21.144h-43.018c-15.244,0-29.138,8.102-36.26,21.145
			c-6.368,11.663-18.475,18.852-31.689,18.852c-0.166,0-0.334-0.001-0.5-0.003c-19.62-0.27-35.58-16.818-35.58-36.889v-18.825
			c0-3.412,2.765-6.177,6.177-6.177h172.745c4.146,0,7.508-3.362,7.508-7.508s-3.362-7.508-7.508-7.508H105.029
			c-11.704,0-21.192,9.488-21.192,21.192v18.825c0,28.238,22.605,51.521,50.39,51.903c0.237,0.004,0.471,0.005,0.709,0.005
			c18.712-0.001,35.857-10.172,44.866-26.672c4.487-8.22,13.331-13.326,23.08-13.326H245.9c9.748,0,18.593,5.106,23.08,13.325
			c9.01,16.501,26.154,26.673,44.867,26.673c0.236,0,0.474-0.001,0.71-0.005c27.784-0.381,50.388-23.665,50.388-51.903v-18.825
			C364.945,299.469,355.457,289.981,343.753,289.981z"/>
	</g>
</g>
<g>
	<g>
		<path d="M217.685,149.937c-13.214-12.326-33.948-27.019-57.686-27.019c-23.737,0-44.475,14.408-58.798,28.067l-19.542-11.75
			c-3.936-2.365-8.809-2.341-12.717,0.066c-3.91,2.406-6.128,6.745-5.789,11.324l1.882,25.418L63.268,196.8
			c-0.391,4.603,1.802,8.979,5.722,11.421c3.92,2.442,8.817,2.482,12.774,0.101l19.437-11.687
			c14.324,13.66,35.061,28.068,58.798,28.068c23.738,0,44.472-14.693,57.686-27.019c6.594-6.151,10.376-14.853,10.376-23.873
			S224.279,156.088,217.685,149.937z M160.002,209.687c-22.058,0-42.221-17.371-52.276-27.725c-1.455-1.498-3.412-2.277-5.39-2.277
			c-1.327,0-2.665,0.351-3.865,1.073l-19.778,11.892l1.355-15.929c0.034-0.396,0.036-0.795,0.007-1.19l-1.53-20.658l19.944,11.991
			c2.989,1.799,6.823,1.299,9.255-1.204c10.055-10.355,30.218-27.725,52.276-27.725c1.984,0,3.95,0.146,5.895,0.406
			c-5.001,12.695-14.777,44.655,0.656,70.85C164.393,209.51,162.208,209.687,160.002,209.687z M207.442,186.703
			c-6.824,6.367-15.905,13.47-26.204,18.073c-14.349-21.667-4.474-52.503-0.739-62.259c10.603,4.588,19.955,11.882,26.942,18.401
			c3.613,3.371,5.604,7.948,5.604,12.893C213.046,178.755,211.056,183.333,207.442,186.703z"/>
	</g>
</g>
<g>
	<g>
		<path d="M302.089,151.242c-12.445,0-22.569,10.124-22.569,22.569s10.124,22.569,22.569,22.569
			c12.445,0,22.569-10.124,22.569-22.569S314.534,151.242,302.089,151.242z M302.089,181.364c-4.164,0-7.553-3.389-7.553-7.553
			c0-4.164,3.389-7.553,7.553-7.553c4.164,0,7.553,3.389,7.553,7.553C309.642,177.975,306.253,181.364,302.089,181.364z"/>
	</g>
</g>
<g>
	<g>
		<path d="M342.376,68.326c-16.046,0-29.101,13.055-29.101,29.102c0,16.046,13.055,29.101,29.101,29.101
			c16.047,0,29.102-13.055,29.102-29.101C371.478,81.38,358.423,68.326,342.376,68.326z M342.376,111.511
			c-7.766,0-14.085-6.319-14.085-14.085s6.318-14.086,14.085-14.086c7.767,0,14.086,6.32,14.086,14.086
			C356.462,105.193,350.142,111.511,342.376,111.511z"/>
	</g>
</g>
<g>
	<g>
		<path d="M287.028,0c-18.239,0-33.077,14.838-33.077,33.077c0,18.239,14.838,33.077,33.077,33.077
			c18.239,0,33.077-14.838,33.077-33.077C320.105,14.838,305.267,0,287.028,0z M287.028,51.138c-9.958,0-18.061-8.103-18.061-18.061
			c0-9.958,8.103-18.061,18.061-18.061s18.061,8.102,18.061,18.061C305.089,43.035,296.987,51.138,287.028,51.138z"/>
	</g>
</g>
<g>
	<g>
		<path d="M436.161,103.933h-7.983c-9.391,0-17.031,7.64-17.031,17.031v327.225c0,5.924-2.35,11.468-6.618,15.611
			c-4.264,4.139-9.852,6.336-15.813,6.146c-11.636-0.345-21.103-10.385-21.103-22.379v-14.454c0-8.402-6.834-15.236-15.236-15.236
			h-11.572c-8.402,0-15.237,6.834-15.237,15.236v14.223c0,35.123,28.182,64.129,62.822,64.658c0.334,0.005,0.668,0.008,1.001,0.008
			c16.841,0,32.695-6.498,44.742-18.363c12.289-12.103,19.057-28.244,19.057-45.448V120.964
			C453.191,111.573,445.552,103.933,436.161,103.933z M343.011,462.691c-1.567-4.847-2.427-10.006-2.427-15.357v-14.223
			c0-0.121,0.099-0.22,0.221-0.22h11.572c0.121,0,0.22,0.099,0.22,0.22v14.454c0,2.894,0.344,5.717,0.975,8.437L343.011,462.691z
			 M354.853,482.3c-1.852-1.894-3.551-3.941-5.087-6.113l10.131-6.416c1.469,2.005,3.132,3.857,4.955,5.531L354.853,482.3z
			 M423.597,482.938c-9.215,9.076-21.336,14.046-34.213,14.046c-0.254,0-0.511-0.002-0.766-0.006
			c-7.537-0.115-14.671-2.005-21.026-5.267l11.701-8.19c2.869,0.845,5.876,1.34,8.975,1.432
			c10.026,0.289,19.513-3.389,26.717-10.381c7.206-6.995,11.175-16.366,11.175-26.385V225.383h12.013v222.806h0.002
			C438.175,461.34,432.998,473.681,423.597,482.938z M438.175,210.367h-12.013v-13.988h12.013V210.367z M438.176,181.364
			L438.176,181.364h-12.014v-60.399c0-1.11,0.904-2.015,2.015-2.015h7.983c1.11,0,2.015,0.904,2.015,2.015V181.364z"/>
	</g>
</g>
<g>
	<g>
		<path d="M348.398,264.954H100.385c-22.923,0-41.573,18.65-41.573,41.573v24.276c0,41.977,34.15,76.127,76.127,76.127
			c15.136,0,29.49-4.378,41.637-12.312c3.62,11.298,14.221,19.5,26.705,19.5h45.173c11.922,0,22.122-7.482,26.17-17.994
			c11.611,6.982,25.074,10.804,39.219,10.804c41.976,0.001,76.127-34.149,76.127-76.126v-24.276
			C389.971,283.605,371.321,264.954,348.398,264.954z M248.454,399.104H203.28c-7.181,0-13.023-5.842-13.023-13.023
			c0-0.351-0.032-0.694-0.079-1.032l-0.128-1.671c3.679-3.869,6.997-8.157,9.875-12.839h48.931l0.03-0.046
			c3.566,5.826,7.808,11.048,12.587,15.6C261.467,393.269,255.629,399.104,248.454,399.104z M374.955,330.804
			c0,33.696-27.415,61.111-61.112,61.111c-21.44,0-40.935-10.938-52.149-29.259c-2.692-4.4-7.612-7.131-12.838-7.131h-48.931
			c-5.227,0-10.147,2.732-12.838,7.131c-11.214,18.32-30.709,29.259-52.15,29.259c-33.696,0-61.111-27.415-61.111-61.111v-24.276
			c0-14.643,11.914-26.557,26.557-26.557h248.014c14.644,0,26.558,11.914,26.558,26.558V330.804z"/>
	</g>
</g>
<g>
</g>
<g>
</g>
<g>
</g>
<g>
</g>
<g>
</g>
<g>
</g>
<g>
</g>
<g>
</g>
<g>
</g>
<g>
</g>
<g>
</g>
<g>
</g>
<g>
</g>
<g>
</g>
<g>
</g>
</svg>
