<svg xmlns="http://www.w3.org/2000/svg" width="512" height="512" viewBox="0 0 512 512">
  <metadata><?xpacket begin="﻿" id="W5M0MpCehiHzreSzNTczkc9d"?>
<x:xmpmeta xmlns:x="adobe:ns:meta/" x:xmptk="Adobe XMP Core 5.6-c138 79.159824, 2016/09/14-01:09:01        ">
   <rdf:RDF xmlns:rdf="http://www.w3.org/1999/02/22-rdf-syntax-ns#">
      <rdf:Description rdf:about=""/>
   </rdf:RDF>
</x:xmpmeta>
                                                                                                    
                                                                                                    
                                                                                                    
                                                                                                    
                                                                                                    
                                                                                                    
                                                                                                    
                                                                                                    
                                                                                                    
                                                                                                    
                                                                                                    
                                                                                                    
                                                                                                    
                                                                                                    
                                                                                                    
                                                                                                    
                                                                                                    
                                                                                                    
                                                                                                    
                                                                                                    
                           
<?xpacket end="w"?></metadata>
<defs>
    <style>
      .cls-1 {
        fill-rule: evenodd;
      }
    </style>
  </defs>
  <path id="Forma_1" data-name="Forma 1" class="cls-1" d="M358.138,494.211H244.4s-0.036-128.063-.091-128.535c-1.007-31.265-10.812-61.089-27.259-82.518-14.81-19.294-23.3-46.577-23.3-74.852v-74.2c0-4.912-2.852-8.894-6.372-8.894S181,129.2,181,134.111v74.2c0,33.188,9.969,65.209,27.351,87.855,12.562,16.365,20.575,38.478,22.721,62.069H202.665c-3.52,0-6.373,3.982-6.373,8.894V452.5c0,4.912,2.853,8.894,6.373,8.894h28.988v41.709c0,4.912,2.852,8.894,6.372,8.894H358.138c3.52,0,6.372-3.982,6.372-8.894S361.658,494.211,358.138,494.211Zm-126.485-50.6H209.037v-67.59h22.616v67.59ZM477.474,206.438h-169.4V52.99c0-16.906-9.855-30.66-21.966-30.66h-35.2V8.894c0-4.912-2.852-8.894-6.372-8.894s-6.372,3.982-6.372,8.894V22.329h-35.2C190.853,22.329,181,36.083,181,52.99v47.324c0,4.912,2.852,8.894,6.372,8.894s6.372-3.982,6.372-8.894V76.532h64.993c3.52,0,6.372-3.982,6.372-8.894s-2.852-8.894-6.372-8.894H193.743V52.99c0-7.1,4.138-12.873,9.223-12.873H286.11c5.084,0,9.222,5.774,9.222,12.872v5.754H279.976c-3.52,0-6.372,3.982-6.372,8.894s2.852,8.894,6.372,8.894h15.355V256.66c0,4.912,2.852,8.894,6.372,8.894H470.449v14.532H400.191c-3.52,0-6.372,3.982-6.372,8.894s2.852,8.895,6.372,8.895h69.966c-2.278,36.034-18.246,68.294-41.995,83.771-22.666,14.771-37.312,47.038-37.312,82.2V494.21H379.378c-3.52,0-6.373,3.982-6.373,8.894S375.858,512,379.378,512h17.844c3.519,0,6.372-3.982,6.372-8.894V463.849c0-28.286,11.76-54.226,29.96-66.086,30.154-19.651,49.639-62.351,49.639-108.782V264.416C491.735,260.95,498,249.934,498,236.907v-1.82C498,219.289,488.793,206.438,477.474,206.438Zm0,41.329h-169.4V224.226h169.4c4.291,0,7.781,4.872,7.781,10.86v1.82h0C485.256,242.9,481.766,247.767,477.475,247.767Zm-99.8,32.32h-41.2c-3.52,0-6.373,3.982-6.373,8.894s2.853,8.894,6.373,8.894h41.2c3.52,0,6.372-3.982,6.372-8.894S381.2,280.087,377.678,280.087Z"/>
  <path class="cls-1" d="M177.412,258.717a4.881,4.881,0,0,0-4.57-3.05H112.914l59.42-94.042a4.619,4.619,0,0,0,0-5.083A5.334,5.334,0,0,0,167.763,154H86.506a5.333,5.333,0,0,0-4.571,2.542L5.756,309.042a4.62,4.62,0,0,0,0,5.083,6.059,6.059,0,0,0,4.571,2.542H62.636L5.756,452.392c-1.016,2.033,0,4.575,2.031,6.1a3.8,3.8,0,0,0,2.54.508,5.763,5.763,0,0,0,4.063-1.525L176.905,264.308A5.456,5.456,0,0,0,177.412,258.717ZM28.1,424.942L74.825,313.109a4.947,4.947,0,0,0-.508-4.575,6.267,6.267,0,0,0-4.063-2.033h-51.8l71.1-142.334h69.069L98.694,258.208a4.62,4.62,0,0,0,0,5.083,5.333,5.333,0,0,0,4.571,2.542h58.912Z"/>
</svg>
