<svg xmlns="http://www.w3.org/2000/svg" width="600" height="600" viewBox="0 0 600 600">
  <metadata><?xpacket begin="﻿" id="W5M0MpCehiHzreSzNTczkc9d"?>
<x:xmpmeta xmlns:x="adobe:ns:meta/" x:xmptk="Adobe XMP Core 5.6-c138 79.159824, 2016/09/14-01:09:01        ">
   <rdf:RDF xmlns:rdf="http://www.w3.org/1999/02/22-rdf-syntax-ns#">
      <rdf:Description rdf:about=""/>
   </rdf:RDF>
</x:xmpmeta>
                                                                                                    
                                                                                                    
                                                                                                    
                                                                                                    
                                                                                                    
                                                                                                    
                                                                                                    
                                                                                                    
                                                                                                    
                                                                                                    
                                                                                                    
                                                                                                    
                                                                                                    
                                                                                                    
                                                                                                    
                                                                                                    
                                                                                                    
                                                                                                    
                                                                                                    
                                                                                                    
                           
<?xpacket end="w"?></metadata>
<defs>
    <style>
      .cls-1 {
        fill-rule: evenodd;
      }
    </style>
  </defs>
  <path class="cls-1" d="M589,134.295A80.383,80.383,0,0,0,508.713,54H257.287a80.3,80.3,0,0,0-1.056,160.583v71.442A52.008,52.008,0,0,0,231,302.313c-8.291,9.9-11.85,22.473-9.764,34.49,3.036,17.479,17.178,30.6,35,34.728V401A52,52,0,0,0,231,417.293c-8.29,9.9-11.849,22.474-9.763,34.49,3.036,17.477,17.178,30.592,35,34.722V540H509.767V442.425c24.1-6.587,40.035-28.534,36.14-51.093h0c-2.076-12.016-9.656-22.654-20.8-29.186a50.241,50.241,0,0,0-15.344-5.84V327.444c24.1-6.581,40.036-28.526,36.14-51.091h0a41.815,41.815,0,0,0-17.49-27.059,49.726,49.726,0,0,0-18.65-7.95V214.584A80.388,80.388,0,0,0,589,134.295ZM478.077,508.305H287.923V485.118l190.154-36.453v59.64Zm36.6-111.576c1.174,6.806-5.919,13.957-15.489,15.618L272.222,455.859c-9.556,1.606-18.586-2.728-19.762-9.5-0.667-3.842,1.493-7.113,2.839-8.722a21.345,21.345,0,0,1,12.667-6.894l226.994-43.5a21.313,21.313,0,0,1,14.124,2.243C510.889,390.545,514.018,392.9,514.679,396.729Zm-226.756-2.078V370.143l190.154-36.46v24.526ZM510.166,275.2a10.4,10.4,0,0,1,4.513,6.544c1.176,6.81-5.915,13.961-15.482,15.617L272.223,340.881c-9.551,1.608-18.587-2.729-19.764-9.5-0.667-3.841,1.492-7.11,2.838-8.718a21.36,21.36,0,0,1,12.668-6.891l227-43.5C500.625,271.311,506.16,272.38,510.166,275.2ZM508.713,182.9H478.077v60.34l-190.154,36.44V182.9H257.287a48.6,48.6,0,0,1,0-97.2H508.713A48.6,48.6,0,0,1,508.713,182.9Z"/>
  <path class="cls-1" d="M208.346,332.6a5.785,5.785,0,0,0-5.417-3.6H131.9l70.425-111a5.435,5.435,0,0,0,0-6,6.326,6.326,0,0,0-5.417-3H100.6a6.326,6.326,0,0,0-5.417,3L4.9,392a5.435,5.435,0,0,0,0,6,7.189,7.189,0,0,0,5.417,3h62L4.9,561.2c-1.2,2.4,0,5.4,2.407,7.2,0.6,0.6,1.806.6,3.01,0.6a6.848,6.848,0,0,0,4.816-1.8l192.616-228A6.42,6.42,0,0,0,208.346,332.6ZM31.38,528.8l55.377-132a5.818,5.818,0,0,0-.6-5.4A7.439,7.439,0,0,0,81.34,389h-61.4l84.27-168h81.861L115.048,332a5.435,5.435,0,0,0,0,6,6.327,6.327,0,0,0,5.418,3h69.823Z"/>
</svg>
