<svg xmlns="http://www.w3.org/2000/svg" width="612" height="611" viewBox="0 0 612 611">
  <metadata><?xpacket begin="﻿" id="W5M0MpCehiHzreSzNTczkc9d"?>
<x:xmpmeta xmlns:x="adobe:ns:meta/" x:xmptk="Adobe XMP Core 5.6-c138 79.159824, 2016/09/14-01:09:01        ">
   <rdf:RDF xmlns:rdf="http://www.w3.org/1999/02/22-rdf-syntax-ns#">
      <rdf:Description rdf:about=""/>
   </rdf:RDF>
</x:xmpmeta>
                                                                                                    
                                                                                                    
                                                                                                    
                                                                                                    
                                                                                                    
                                                                                                    
                                                                                                    
                                                                                                    
                                                                                                    
                                                                                                    
                                                                                                    
                                                                                                    
                                                                                                    
                                                                                                    
                                                                                                    
                                                                                                    
                                                                                                    
                                                                                                    
                                                                                                    
                                                                                                    
                           
<?xpacket end="w"?></metadata>
<defs>
    <style>
      .cls-1 {
        fill-rule: evenodd;
      }
    </style>
  </defs>
  <path id="Forma_1" data-name="Forma 1" class="cls-1" d="M528.556,334.079l-80.764,80.79h64.913c0,27.845-8.405,53.9-25.424,78.171q-25.175,35.924-68.8,58.373c-29.016,14.944-61.319,23.63-96.321,26.057v-422.4h35a16.478,16.478,0,0,0,16.451-16.8,16.247,16.247,0,0,0-16.451-16.477h-35.6c26.624-7.473,45.468-31.422,45.468-59.267,0-17.052-6.279-31.741-18.545-44S321.561,0,304.51,0,272.724,6.2,260.535,18.522c-12.041,12.2-17.944,26.951-17.944,44A59.373,59.373,0,0,0,255.156,99.95a61.337,61.337,0,0,0,32.009,21.842h-32.3a16.247,16.247,0,0,0-16.451,16.477,16.478,16.478,0,0,0,16.451,16.8h34.4V577.47c-35.3-2.108-67.574-10.538-97.215-25.482-29.285-14.689-52.749-34.041-70-58.373-17.147-24.141-25.724-50.582-26.024-78.746h68.205l-83.469-80.79L0,414.869H63.113c0.3,35.637,10.97,68.336,32.6,98.544,21.736,30.272,51.18,53.774,87.943,71.21Q239.349,611.062,304.5,611q65.054,0,120.846-26.376c37.032-17.5,66.31-41.066,87.943-71.21,21.735-30.336,32.6-62.907,32.6-98.544H612ZM283.872,82.9c-11.212-10.921-11.148-29.378,0-41,11.583-12.07,29.54-11.879,41.282,0,11.589,11.751,11.665,29.953,0,41A29.6,29.6,0,0,1,283.872,82.9Z"/>
  <path class="cls-1" d="M590.292,147.244q-1.956-3.91-5.868-3.91h-76.93L583.773,22.775a5.916,5.916,0,0,0,0-6.516A6.849,6.849,0,0,0,577.905,13H473.592a6.85,6.85,0,0,0-5.868,3.259l-97.793,195.5a5.916,5.916,0,0,0,0,6.516,7.782,7.782,0,0,0,5.868,3.259H442.95l-73.019,174c-1.3,2.606,0,5.865,2.608,7.82C373.19,404,374.494,404,375.8,404a7.4,7.4,0,0,0,5.215-1.955L589.641,154.411A6.989,6.989,0,0,0,590.292,147.244Zm-191.675,213.1L458.6,216.972a6.332,6.332,0,0,0-.652-5.865,8.051,8.051,0,0,0-5.216-2.606h-66.5L477.5,26.034H566.17L489.239,146.591a5.917,5.917,0,0,0,0,6.517,6.848,6.848,0,0,0,5.868,3.258h75.627Z"/>
</svg>
