<svg xmlns="http://www.w3.org/2000/svg" width="800" height="800" viewBox="0 0 800 800">
  <metadata><?xpacket begin="﻿" id="W5M0MpCehiHzreSzNTczkc9d"?>
<x:xmpmeta xmlns:x="adobe:ns:meta/" x:xmptk="Adobe XMP Core 5.6-c138 79.159824, 2016/09/14-01:09:01        ">
   <rdf:RDF xmlns:rdf="http://www.w3.org/1999/02/22-rdf-syntax-ns#">
      <rdf:Description rdf:about=""/>
   </rdf:RDF>
</x:xmpmeta>
                                                                                                    
                                                                                                    
                                                                                                    
                                                                                                    
                                                                                                    
                                                                                                    
                                                                                                    
                                                                                                    
                                                                                                    
                                                                                                    
                                                                                                    
                                                                                                    
                                                                                                    
                                                                                                    
                                                                                                    
                                                                                                    
                                                                                                    
                                                                                                    
                                                                                                    
                                                                                                    
                           
<?xpacket end="w"?></metadata>
<defs>
    <style>
      .cls-1 {
        fill-rule: evenodd;
      }
    </style>
  </defs>
  <path id="Forma_1" data-name="Forma 1" class="cls-1" d="M160,749.317c0,6.815-1.635,13.346-4.546,18.163S148.59,775,144.473,775l-130.928-.031c-8.572,0-15.519-11.5-15.519-25.678L-2,33.68C-2,26.868-.361,20.337,2.55,15.52S9.41,8,13.526,8L144.451,8.031c8.572,0,15.52,11.5,15.52,25.678ZM29.067,723.611l99.885,0.026L128.931,59.391l-99.883-.026Z"/>
  <path id="Forma_1-2" data-name="Forma 1" class="cls-1" d="M525.276,483.88a0.126,0.126,0,0,0-.017-0.011L423.823,420.545c-7.6-4.743-19.891-4.726-27.455.042s-7.534,12.477.065,17.221l68.1,42.515H53.413C42.691,480.323,34,485.775,34,492.5s8.691,12.178,19.413,12.178H464.536l-68.1,42.514c-7.6,4.745-7.628,12.455-.065,17.222s19.856,4.784,27.455.041L525.26,501.132l0.017-.012C532.88,496.36,532.856,488.625,525.276,483.88Z"/>
  <path id="Forma_1-3" data-name="Forma 1" class="cls-1" d="M800,606H188V131ZM220.283,580.944H722.061L220.283,191.492V580.944Z"/>
</svg>
