<svg width="511.99938" height="511" xmlns="http://www.w3.org/2000/svg">

 <g>
  <title>Layer 1</title>
  <g stroke="null">
   <g stroke="null" id="svg_13">
    <path stroke="null" fill-rule="nonzero" fill="rgb(0%,0%,0%)" d="m405.66717,58.92504c11.42614,0.50209 21.11525,-8.33211 21.64448,-19.77177c0.50209,-11.41255 -8.33208,-21.11525 -19.77177,-21.63093c-0.62424,-0.02713 -1.24848,-0.02713 -1.88626,0l-313.32245,0c-11.43969,-0.52922 -21.11522,8.31853 -21.64448,19.75822c-0.51568,11.42614 8.33211,21.11525 19.75822,21.64448c0.63782,0.01358 1.26202,0.01358 1.88626,0l4.31533,0l0,397.22701l-4.31533,0c-11.41252,-0.51568 -21.11522,8.31853 -21.64448,19.75822c-0.50209,11.43969 8.33211,21.11525 19.7718,21.64448c0.62424,0.02713 1.24844,0.02713 1.88626,0l313.32241,0c11.43969,0.51568 21.11525,-8.33211 21.64448,-19.75822c0.52926,-11.43969 -8.33208,-21.1288 -19.74463,-21.64448c-0.65137,-0.02713 -1.27561,-0.02713 -1.89985,0l-4.30175,0l0,-397.22701l4.30175,0zm0,410.14584c4.2882,-0.3121 8.03356,2.90403 8.3457,7.20578c0.32568,4.2882 -2.90403,8.03356 -7.1922,8.34566c-0.39357,0.04071 -0.77351,0.04071 -1.16705,0l-313.32245,0c-4.28817,0.32568 -8.01998,-2.904 -8.34566,-7.1922c-0.32568,-4.28817 2.90403,-8.04711 7.1922,-8.35925c0.39353,-0.02713 0.75993,-0.02713 1.15346,0c0,0 313.336,0 313.336,0zm-144.34625,-192.05907c-2.56476,2.5376 -2.56476,6.67652 -0.02713,9.22774c2.55122,2.56476 6.69011,2.56476 9.24132,0.02713l0,-0.29855c8.65776,-9.63485 14.77793,-21.27808 17.79052,-33.85765c3.48756,9.51271 4.24749,19.79893 2.19836,29.71872c-2.0355,8.03356 -5.44163,15.67359 -10.06907,22.56727c0.55636,-3.33828 0.86849,-6.71727 0.93634,-10.12336c0,-3.5554 -2.89045,-6.45943 -6.44585,-6.45943c-1.38417,-0.02713 -2.74117,0.43425 -3.85396,1.24848c-3.56895,2.63261 -7.30076,5.0481 -11.15468,7.24646c-7.40936,-12.90525 -10.89688,-27.71035 -9.98767,-42.55616c0.23067,-3.56895 -2.48337,-6.64939 -6.03877,-6.86651c-1.22131,-0.08143 -2.4562,0.18999 -3.51465,0.78706c-0.35285,0 -28.90456,17.22058 -25.5527,58.97613c-10.25909,-14.90011 -11.41255,-34.26479 -3.01259,-50.27762c5.99802,-12.71529 11.0597,-22.26872 15.1172,-29.93588c7.80289,-14.73725 12.40316,-23.51716 13.2581,-34.889c14.19444,10.31335 23.25932,26.24478 24.90133,43.72321c2.11693,26.964 -1.50631,37.52161 -3.189,40.83276c-0.28497,0.55636 -0.50209,0.90921 -0.47496,0.90921l-0.12214,0zm-151.70131,-110.6786l0,-107.40817l278.77272,0l0,107.40817l-278.77272,0zm117.11087,12.93242c-0.02713,0.35282 -0.02713,0.71922 0,1.07203c1.88626,14.87294 -1.42485,21.21023 -11.37184,40.03211c-4.3153,7.78931 -9.21416,17.47842 -15.37504,30.43797c-23.30004,49.28698 21.10167,81.16338 21.53592,81.50262c1.08562,0.75993 2.38836,1.16705 3.70468,1.16705c3.56895,0.01358 6.47298,-2.87687 6.47298,-6.4594c0,-0.97705 -0.21712,-1.95411 -0.66495,-2.84977c-8.61708,-29.10807 -1.16701,-46.87146 6.07945,-56.38417c1.68272,14.52009 6.81225,28.41598 14.99509,40.53417c1.61484,2.21195 4.43744,3.16187 7.05651,2.36122c2.67333,-0.88204 5.22454,-2.06267 7.6129,-3.47397c-1.35704,7.1108 -3.21617,14.50654 -4.2882,18.03481c-0.92276,3.44684 1.11275,7.00221 4.55959,7.925c1.95411,0.51568 4.0032,0.10856 5.59094,-1.11275c14.73722,-12.28105 25.26769,-28.83671 30.16655,-47.38717c7.27363,-29.85445 -12.93242,-58.70471 -13.73306,-59.91244c-2.06267,-2.91762 -6.10658,-3.6097 -9.01062,-1.56058c-1.88623,1.32987 -2.91758,3.58253 -2.71404,5.87588c0,1.57416 0,3.12116 0,4.64102c-2.17123,-22.10586 -14.14014,-42.0812 -32.60917,-54.44364l143.65417,0l0,156.49157l-278.77272,0l0,-156.49157l117.11087,0zm161.66185,169.41041l0,107.47601l-278.77272,0l0,-107.47601l278.77272,0zm6.4594,-302.66983l-302.52055,0c-4.28817,0.31214 -8.01998,-2.91758 -8.34566,-7.20578c-0.32568,-4.30175 2.90403,-8.03356 7.1922,-8.35925c0.39353,-0.02713 0.78706,-0.02713 1.16705,0l313.32241,0c4.2882,-0.32568 8.03356,2.90403 8.3457,7.19223c0.32568,4.30175 -2.90403,8.04711 -7.1922,8.37279c-0.39357,0.01358 -0.75993,0.01358 -1.1535,0l-10.81545,0zm0,0"/>
   </g>
  </g>
 </g>
</svg>