<?xml version="1.0" encoding="iso-8859-1"?>
<!-- Generator: Adobe Illustrator 19.0.0, SVG Export Plug-In . SVG Version: 6.00 Build 0)  -->
<svg version="1.1" id="Layer_1" xmlns="http://www.w3.org/2000/svg" xmlns:xlink="http://www.w3.org/1999/xlink" x="0px" y="0px"
	 viewBox="0 0 512.001 512.001" style="enable-background:new 0 0 512.001 512.001;" xml:space="preserve">
<g>
	<g>
		<g>
			<path d="M148.502,366.964h-0.236c-5.523,0-10,4.477-10,10s4.477,10,10,10h0.236c5.523,0,10-4.477,10-10
				S154.024,366.964,148.502,366.964z"/>
			<path d="M465.757,223.814v-38.472c0-21.016-17.098-38.113-38.113-38.113c-27.513,0-40.044-62.901-40.044-121.344
				C387.6,11.612,375.986,0,361.711,0c-27.182,0-55.846,14.017-76.677,37.495C274.963,48.846,263.801,65.639,256,89.408
				c-7.8-23.77-18.962-40.562-29.033-51.914C206.135,14.017,177.471,0,150.289,0c-14.273,0-25.887,11.612-25.887,25.886
				c0,58.443-12.531,121.344-40.045,121.344c-21.016,0-38.113,17.097-38.113,38.113v38.472c0,12.468,6.019,23.556,15.302,30.514
				c-9.397,8.62-15.302,20.991-15.302,34.718v50.798c0,15.063,7.113,28.487,18.148,37.119
				c-11.035,8.631-18.148,22.055-18.148,37.118v50.799c0,25.982,21.139,47.12,47.12,47.12H256h162.637
				c25.982,0,47.12-21.138,47.12-47.12v-50.799c0-15.062-7.113-28.487-18.147-37.118c11.034-8.632,18.147-22.056,18.147-37.119
				v-50.798c0-13.727-5.903-26.099-15.302-34.718C459.738,247.371,465.757,236.282,465.757,223.814z M296.001,271.928H216
				c-11.027,0-19.998-8.972-19.998-20.001c0-11.027,8.971-19.999,19.998-19.999h80.001c11.027,0,19.999,8.972,19.999,20.001
				C316,262.956,307.028,271.928,296.001,271.928z M334.734,261.928h83.902c14.954,0,27.12,12.166,27.12,27.119v50.798
				c0,14.954-12.166,27.119-27.12,27.119h-83.902v0c-4.451-17.233-20.129-30.001-38.733-30.001H266v-45.035h30.001
				C314.605,291.928,330.283,279.161,334.734,261.928z M66.244,185.343c0-9.987,8.126-18.113,18.113-18.113h132.855
				c5.523,0,10-4.477,10-10s-4.477-10-10-10h-98.076c22.956-32.88,25.266-97.125,25.266-121.344c0-3.191,2.695-5.886,5.887-5.886
				c21.551,0,44.623,11.502,61.717,30.769C227.514,68.247,246,100.905,246,157.229v54.699h-30c-18.604,0-34.28,12.767-38.732,29.999
				H93.364h-9.007v0.001c-9.987,0-18.113-8.125-18.113-18.113V185.343z M245.999,492H93.364
				c-14.954,0.001-27.12-12.165-27.12-27.119v-50.799c0-14.953,12.166-27.118,27.12-27.118h27.284c5.523,0,10-4.477,10-10
				s-4.477-10-10-10H93.364c-14.954,0-27.12-12.165-27.12-27.119v-50.798c0-14.954,12.166-27.119,27.12-27.119h83.902
				c4.451,17.233,20.13,30,38.733,30h30v45.035h-30c-22.055,0-39.998,17.945-39.998,40.002c0,22.056,17.943,39.999,39.998,39.999h30
				V492z M216,396.964L216,396.964c-11.027,0.001-19.998-8.971-19.998-20c0-11.028,8.971-20.001,19.998-20.001h80.001
				c11.027,0,19.999,8.973,19.999,20.002c0,11.027-8.972,19.999-19.999,19.999H216z M445.757,464.881
				c0,14.954-12.166,27.12-27.12,27.12H266v-75.036h30.001c18.604,0,34.282-12.768,38.733-30.001h83.902
				c14.955,0,27.121,12.165,27.121,27.118V464.881z M445.758,223.815c0,9.988-8.126,18.113-18.113,18.113h-9.007h-83.904
				c-4.451-17.232-20.129-29.999-38.733-29.999H266V157.23c0-56.325,18.486-88.982,33.994-106.461
				C317.089,31.502,340.16,20,361.711,20c3.191,0,5.889,2.695,5.889,5.886c0,24.219,2.309,88.463,25.265,121.344h-63.776
				c-5.523,0-10,4.477-10,10s4.477,10,10,10h98.556c9.987,0,18.113,8.126,18.113,18.113V223.815z"/>
			<path d="M299.909,147.229h-0.195c-5.522,0-10,4.477-10,10s4.478,10,10,10h0.195c5.522,0,10-4.477,10-10
				C309.909,151.707,305.432,147.229,299.909,147.229z"/>
		</g>
	</g>
</g>
<g>
</g>
<g>
</g>
<g>
</g>
<g>
</g>
<g>
</g>
<g>
</g>
<g>
</g>
<g>
</g>
<g>
</g>
<g>
</g>
<g>
</g>
<g>
</g>
<g>
</g>
<g>
</g>
<g>
</g>
</svg>
