<svg width="511.99938" height="511" xmlns="http://www.w3.org/2000/svg">
 <g>
  <title>Layer 1</title>
  <g stroke="null">
   <path stroke="null" d="m270.78122,498.5l-30.56401,0c-24.72001,0 -44.83254,-20.11158 -44.83254,-44.83158l0,-10.34019c-10.5095,-3.35764 -20.72033,-7.59606 -30.52976,-12.67246l-7.32783,7.32783c-17.74792,17.76979 -46.17749,17.24855 -63.40987,-0.00666l-21.60206,-21.60111c-17.26282,-17.24379 -17.75933,-45.66386 0.00571,-63.40987l7.32212,-7.32212c-5.0764,-9.80944 -9.31387,-20.01836 -12.67246,-30.52976l-10.33924,0c-24.71905,0 -44.83158,-20.11158 -44.83158,-44.83158l0,-30.56496c0,-24.72001 20.11253,-44.83158 44.83254,-44.83158l10.33924,0c3.35859,-10.51045 7.59606,-20.72033 12.67246,-30.52976l-7.32783,-7.32688c-17.75457,-17.73555 -17.26472,-46.15847 0.00571,-63.40987l21.60397,-21.60302c17.27233,-17.29611 45.69525,-17.72794 63.40892,0.00571l7.32117,7.32117c9.80944,-5.07545 20.02027,-9.31387 30.52976,-12.67246l0,-10.33924c0,-24.72001 20.11158,-44.83158 44.83254,-44.83158l30.56401,0c24.72001,0 44.83158,20.11158 44.83158,44.83158l0,10.34019c10.5095,3.35764 20.72033,7.59606 30.52976,12.67246l7.32783,-7.32783c17.74792,-17.76979 46.17749,-17.24855 63.40987,0.00666l21.60206,21.60111c17.26282,17.24379 17.75933,45.66386 -0.00571,63.40987l-7.32212,7.32212c5.0764,9.80944 9.31387,20.01836 12.67246,30.52976l10.33924,0c24.72001,0 44.83254,20.11158 44.83254,44.83158l0,30.56496c0,24.72001 -20.11253,44.83158 -44.83254,44.83158l-10.33924,0c-3.35859,10.51045 -7.59606,20.72033 -12.67246,30.52976l7.32783,7.32783c17.75457,17.73555 17.26472,46.15847 -0.00571,63.40987l-21.60397,21.60302c-17.27233,17.29611 -45.69525,17.72794 -63.40892,-0.00571l-7.32117,-7.32117c-9.80944,5.07545 -20.02027,9.31387 -30.52976,12.67246l0,10.34019c0,24.7181 -20.11158,44.82968 -44.83254,44.82968zm-101.15618,-97.809c13.62744,8.05928 28.29451,14.14773 43.59316,18.09604c6.30056,1.62555 10.70259,7.30785 10.70259,13.81482l0,21.06655c0,8.98572 7.31166,16.29643 16.29738,16.29643l30.56401,0c8.98572,0 16.29738,-7.31071 16.29738,-16.29643l0,-21.06655c0,-6.50697 4.40202,-12.18927 10.70259,-13.81482c15.29865,-3.94831 29.96572,-10.03677 43.59316,-18.09604c5.60716,-3.31579 12.7457,-2.41407 17.35223,2.19245l14.92198,14.92294c6.43373,6.44134 16.76536,6.292 23.04119,0.00666l21.61728,-21.61633c6.26061,-6.253 6.46987,-16.58654 0.00571,-23.04214l-14.92864,-14.92864c-4.60557,-4.60557 -5.50729,-11.74507 -2.19245,-17.35128c8.05928,-13.62649 14.14678,-28.29356 18.09509,-43.59316c1.6265,-6.30056 7.3088,-10.70163 13.81482,-10.70163l21.0656,0c8.98572,0 16.29738,-7.31071 16.29738,-16.29643l0,-30.56496c0,-8.98572 -7.31166,-16.29643 -16.29738,-16.29643l-21.0656,0c-6.50697,0 -12.18832,-4.40202 -13.81482,-10.70163c-3.94831,-15.2996 -10.03677,-29.96667 -18.09509,-43.59316c-3.31483,-5.60621 -2.41312,-12.7457 2.19245,-17.35128l14.92294,-14.92294c6.45085,-6.44324 6.28249,-16.77296 0.00571,-23.04214l-21.61538,-21.61538c-6.26537,-6.27393 -16.5989,-6.45751 -23.04214,-0.00571l-14.92769,14.92864c-4.60557,4.60653 -11.74697,5.50824 -17.35223,2.19245c-13.62744,-8.05928 -28.29451,-14.14773 -43.59316,-18.09604c-6.30056,-1.62555 -10.70259,-7.30785 -10.70259,-13.81482l0,-21.06846c0,-8.98572 -7.31166,-16.29643 -16.29738,-16.29643l-30.56401,0c-8.98572,0 -16.29738,7.31071 -16.29738,16.29643l0,21.06655c0,6.50697 -4.40202,12.18927 -10.70259,13.81482c-15.29865,3.94831 -29.96572,10.03677 -43.59316,18.09604c-5.60811,3.31483 -12.74665,2.41312 -17.35223,-2.19245l-14.92198,-14.92294c-6.43373,-6.44134 -16.76631,-6.292 -23.04119,-0.00666l-21.61728,21.61633c-6.26061,6.253 -6.46987,16.58558 -0.00571,23.04214l14.92864,14.92864c4.60557,4.60557 5.50729,11.74507 2.19245,17.35128c-8.05928,13.62649 -14.14678,28.29356 -18.09509,43.59316c-1.6265,6.30056 -7.3088,10.70163 -13.81482,10.70163l-21.06655,0c-8.98572,0.00095 -16.29738,7.31166 -16.29738,16.29738l0,30.56496c0,8.98572 7.31166,16.29643 16.29738,16.29643l21.0656,0c6.50697,0 12.18832,4.40202 13.81482,10.70163c3.94831,15.2996 10.03677,29.96667 18.09509,43.59316c3.31483,5.60621 2.41312,12.7457 -2.19245,17.35128l-14.92294,14.92294c-6.45085,6.44324 -6.28249,16.77296 -0.00571,23.04214l21.61538,21.61538c6.26537,6.27393 16.5989,6.45751 23.04214,0.00571l14.92769,-14.92864c3.39378,-3.39283 10.45433,-6.27203 17.35318,-2.1915z"/>
   <path stroke="null" d="m255.49969,360.96055c-58.42763,0 -105.96055,-47.53386 -105.96055,-105.96055s47.53291,-105.96055 105.96055,-105.96055s105.96055,47.53386 105.96055,105.96055s-47.53291,105.96055 -105.96055,105.96055zm0,-183.38594c-42.69335,0 -77.42539,34.73299 -77.42539,77.42539s34.73299,77.42539 77.42539,77.42539s77.42539,-34.73299 77.42539,-77.42539s-34.73204,-77.42539 -77.42539,-77.42539z"/>
  </g>
 </g>

</svg>