<?xml version="1.0" encoding="iso-8859-1"?>
<!-- Generator: Adobe Illustrator 17.1.0, SVG Export Plug-In . SVG Version: 6.00 Build 0)  -->
<!DOCTYPE svg PUBLIC "-//W3C//DTD SVG 1.1//EN" "http://www.w3.org/Graphics/SVG/1.1/DTD/svg11.dtd">
<svg version="1.1" id="Capa_1" xmlns="http://www.w3.org/2000/svg" xmlns:xlink="http://www.w3.org/1999/xlink" x="0px" y="0px"
	 viewBox="0 0 492.887 492.887" style="enable-background:new 0 0 492.887 492.887;" xml:space="preserve">
<path d="M149.177,69.108c0,8.249-6.687,14.936-14.936,14.936c-8.249,0-14.936-6.687-14.936-14.936
	c0-8.249,6.687-14.936,14.936-14.936C142.49,54.172,149.177,60.859,149.177,69.108z M429.328,77.316
	c-1.004,1.718-2.648,2.966-4.573,3.471l-79.961,20.976c-0.638,0.167-1.278,0.247-1.908,0.247c-3.327,0-6.366-2.23-7.25-5.599
	l-1.412-5.383l-31.159,8.186l12.192,59.877c0.101,0.492,0.151,0.993,0.151,1.496v25.708c0,27.941-22.732,50.673-50.673,50.673
	h-104.65v169.513c0,22.353-18.185,40.537-40.537,40.537h-5.734c-4.142,0-7.5-3.357-7.5-7.5v-10.846H95.879v56.714
	c0,4.143-3.358,7.5-7.5,7.5s-7.5-3.357-7.5-7.5v-56.714H70.034c-4.142,0-7.5-3.357-7.5-7.5s3.358-7.5,7.5-7.5h10.845V356.96
	c0-4.143,3.358-7.5,7.5-7.5s7.5,3.357,7.5,7.5v56.713h10.436V236.415c-24.397-3.635-43.173-24.726-43.173-50.119V94.058
	C63.142,42.194,105.336,0,157.198,0h97.566c16.661,0,30.884,11.883,33.855,28.268l11.448,56.225l30.35-7.974l-1.414-5.388
	c-0.505-1.924-0.225-3.97,0.779-5.688c1.004-1.718,2.648-2.966,4.573-3.471l79.961-20.976c4.007-1.049,8.106,1.346,9.157,5.352
	l6.632,25.28C430.612,73.553,430.331,75.599,429.328,77.316z M288.536,103.032l-22.329,5.866c0.002,0.136,0.01,0.271,0.01,0.408
	c0,17.137-13.942,31.079-31.08,31.079s-31.08-13.942-31.08-31.079c0-17.138,13.942-31.08,31.08-31.08
	c11.735,0,21.97,6.539,27.258,16.164l23.143-6.08l-11.633-57.136c-0.012-0.059-0.023-0.118-0.034-0.178
	C272.216,21.728,264.18,15,254.765,15h-97.566c-43.592,0-79.057,35.465-79.057,79.058v59.03h188.883c4.142,0,7.5,3.357,7.5,7.5
	s-3.358,7.5-7.5,7.5H78.142v18.208c0,19.67,16.003,35.673,35.673,35.673h15.978c4.142,0,7.5,3.357,7.5,7.5s-3.358,7.5-7.5,7.5
	h-8.478v194.989c13.26-0.91,23.771-11.989,23.771-25.477V229.469c0-4.143,3.358-7.5,7.5-7.5h112.15
	c19.67,0,35.673-16.003,35.673-35.673v-24.952L288.536,103.032z M233.231,102.053l13.729-3.607
	c-2.941-3.199-7.145-5.219-11.823-5.219c-8.866,0-16.08,7.214-16.08,16.08s7.213,16.079,16.08,16.079
	c7.611,0,13.99-5.321,15.647-12.435l-13.742,3.61c-0.639,0.168-1.28,0.248-1.911,0.248c-3.326,0-6.364-2.229-7.249-5.597
	C226.831,107.206,229.225,103.105,233.231,102.053z M413.695,68.181l-2.826-10.771l-65.452,17.17l1.412,5.382c0,0,0,0,0,0.001
	l0,0.001l1.413,5.388L413.695,68.181z"/>
<g>
</g>
<g>
</g>
<g>
</g>
<g>
</g>
<g>
</g>
<g>
</g>
<g>
</g>
<g>
</g>
<g>
</g>
<g>
</g>
<g>
</g>
<g>
</g>
<g>
</g>
<g>
</g>
<g>
</g>
</svg>
