<?xml version="1.0" encoding="iso-8859-1"?>
<!-- Generator: Adobe Illustrator 19.0.0, SVG Export Plug-In . SVG Version: 6.00 Build 0)  -->
<svg version="1.1" id="Layer_1" xmlns="http://www.w3.org/2000/svg" xmlns:xlink="http://www.w3.org/1999/xlink" x="0px" y="0px"
	 viewBox="0 0 512 512" style="enable-background:new 0 0 512 512;" xml:space="preserve">
<g>
	<g>
		<path d="M229.061,31.353c-3.396-9.583-10.322-17.272-19.505-21.65c-18.952-9.03-41.729-0.977-50.775,17.958
			c-4.383,9.177-4.926,19.508-1.53,29.093c3.396,9.585,10.322,17.273,19.505,21.651c5.277,2.515,10.849,3.705,16.34,3.705
			c14.229,0,27.909-8,34.435-21.664C231.914,51.269,232.457,40.938,229.061,31.353z M213.995,53.982
			c-5.482,11.479-19.294,16.361-30.785,10.882c-5.565-2.652-9.764-7.312-11.821-13.118c-2.056-5.804-1.727-12.062,0.927-17.619
			c3.956-8.282,12.247-13.13,20.875-13.13c3.33,0,6.71,0.723,9.91,2.248c5.565,2.652,9.764,7.312,11.821,13.118
			C216.979,42.167,216.65,48.425,213.995,53.982z"/>
	</g>
</g>
<g>
	<g>
		<path d="M508.187,468.081c-21.006-19.182-38.479-21.252-45.017-21.252c-0.562,0-1.097,0.029-1.637,0.053
			c-4.332-5.512-11.008-8.874-18.224-8.874H354.5c-4.143,0-7.5,3.357-7.5,7.5s3.357,7.5,7.5,7.5h6.846
			c-2.714,2.022-4.979,4.28-7.054,6.352c-4.74,4.731-8.164,8.149-15.422,8.149c-7.251,0-10.674-3.417-15.41-8.146
			c-2.076-2.072-4.342-4.331-7.057-6.355h5.847c4.143,0,7.5-3.358,7.5-7.5c0-4.142-3.357-7.5-7.5-7.5h-51.725
			c-3.705-6.05-10.039-10.177-17.324-10.958l-5.707-0.605c-0.137-2.423-0.7-4.829-1.744-7.088l-2.995-6.486l22.336-66.922
			c1.089-3.251,1.42-6.7,1.02-10.078l39.163-85.178c8.952,1.063,18.106-3.169,22.877-11.46c3.089-5.37,3.9-11.62,2.283-17.598
			c-0.672-2.485-1.75-4.786-3.143-6.865c1.164,0.18,2.34,0.279,3.521,0.279c9.937,0,18.763-6.32,21.961-15.728
			c1.994-5.864,1.582-12.153-1.159-17.707c-2.178-4.414-5.632-7.921-9.897-10.182l44.378-96.518c1.73-3.763,0.082-8.217-3.682-9.947
			c-3.764-1.731-8.218-0.082-9.947,3.682l-44.894,97.641l-20.03-6.796c-3.923-1.328-8.181,0.771-9.512,4.693s0.77,8.181,4.693,9.512
			l18.548,6.293l-6.872,14.945l-41.13-13.953l-10.999-6.315l-19.611-31.509l16.438,15.068c0.767,0.704,1.672,1.239,2.658,1.574
			l9.818,3.331c0.799,0.271,1.61,0.399,2.41,0.399c3.125,0,6.042-1.969,7.102-5.093c1.331-3.922-0.771-8.181-4.693-9.512
			l-8.323-2.824l-57.23-52.459c-0.115-0.106-0.238-0.199-0.358-0.296c-5.936-5.224-14.287-7.193-22.132-4.776
			c-10.062,3.088-16.791,12.581-16.363,23.083l4.487,111.613l-20.096,113.678l-19.261,24.825c-2.539,3.273-1.944,7.985,1.328,10.524
			c3.27,2.537,7.982,1.944,10.523-1.328l20.397-26.291c0.747-0.963,1.248-2.093,1.46-3.292l20.559-116.302
			c0.094-0.53,0.13-1.069,0.108-1.606l-4.52-112.427c-0.151-3.699,2.224-7.045,5.785-8.138c3.549-1.095,7.398,0.347,9.363,3.506
			l48.41,77.782c0.654,1.052,1.559,1.925,2.633,2.541l13.162,7.556c0.035,0.021,0.071,0.041,0.106,0.061l43.982,25.252
			c0.035,0.021,0.071,0.041,0.106,0.061l1.602,0.92c1.9,1.092,3.261,2.855,3.831,4.964c0.569,2.106,0.283,4.31-0.806,6.203
			c-2.252,3.916-7.277,5.267-11.195,3.017l-62.384-35.814c-1.164-0.667-2.157-1.628-2.873-2.776l-19.1-30.681
			c-1.8-2.89-5.321-4.207-8.572-3.204c-3.254,1.001-5.426,4.067-5.289,7.469l2.201,54.781c0.025,0.553-0.015,1.135-0.113,1.704
			l-21.532,121.805c-0.227,1.293-0.775,2.529-1.588,3.576l-62.399,80.422c-1.32,1.701-1.829,3.871-1.444,5.957H96.955l32.473-41.856
			c2.539-3.273,1.944-7.985-1.328-10.524c-3.274-2.538-7.983-1.945-10.523,1.328l-34.408,44.351
			c-1.57,2.022-2.788,4.294-3.612,6.701H68.692c-6.194,0-12.016,2.41-16.396,6.788c-0.657,0.658-1.254,1.361-1.823,2.085
			c-0.538-0.023-1.071-0.053-1.631-0.053c-19.594,0-38.013,14.859-45.01,21.236c-2.821,2.561-4.218,6.302-3.739,9.994
			C2.124,493.988,19.841,506,41.301,506H470.7c21.461,0,39.178-12.012,41.207-27.926
			C512.387,474.366,510.991,470.625,508.187,468.081z M335.426,185.112c1.158,0.785,2.103,1.852,2.737,3.14
			c0.966,1.958,1.111,4.175,0.409,6.242c-1.13,3.322-4.248,5.555-7.76,5.555c-0.712,0-1.418-0.12-2.113-0.307L335.426,185.112z
			 M443.309,453.009c0.279,0,0.552,0.033,0.825,0.061c-2.677,2.007-4.919,4.24-6.973,6.29c-4.739,4.732-8.164,8.15-15.422,8.15
			c-7.251,0-10.674-3.417-15.41-8.146c-2.076-2.072-4.342-4.331-7.057-6.355H443.309z M265.733,453.009
			c0.008,0,0.016,0.002,0.024,0.002c0.009,0,0.018-0.002,0.026-0.002h12.701c-2.712,2.022-4.977,4.28-7.051,6.351
			c-4.739,4.732-8.164,8.15-15.423,8.15c-7.251,0-10.673-3.416-15.41-8.144c-1.226-1.224-2.534-2.523-3.963-3.804l1.174-2.553
			H265.733z M225.966,204.109c2.022,3.247,4.839,5.965,8.141,7.859l57.332,32.913l-32.392,70.45l-36.274-95.234l-0.907-22.575
			L225.966,204.109z M218.621,251.343l31.646,83.082l-27.176,59.108l-7.697,2.189l18.162-54.389
			c0.548-1.644,0.511-3.428-0.106-5.047l-20.385-53.512L218.621,251.343z M196.556,360.826c2.306-2.972,3.866-6.493,4.511-10.174
			l6.911-39.096l10.501,27.566l-20.826,62.368c-3.347,2.004-6.064,4.961-7.728,8.581l-12.845,27.937h-26.113
			c-2.745-2.604-6.113-4.536-9.794-5.557l-0.157-0.044L196.556,360.826z M166.166,466.098c-3.11-1.428-5.528-3.833-8.438-6.737
			c-2.075-2.071-4.341-4.329-7.054-6.352h19.508l-2.947,6.409C166.259,461.54,165.91,463.836,166.166,466.098z M68.692,453.009
			h44.056c-2.715,2.023-4.981,4.282-7.057,6.355c-4.736,4.729-8.159,8.146-15.41,8.146c-7.258,0-10.683-3.418-15.423-8.149
			c-2.061-2.057-4.311-4.297-7-6.309C68.134,453.023,68.412,453.009,68.692,453.009z M41.301,491
			c-13.881,0-23.729-6.515-25.931-13.125c9.173-7.984,22.349-16.046,33.472-16.046c7.258,0,10.682,3.418,15.422,8.149
			c5.594,5.583,12.556,12.532,26.018,12.532c13.457,0,20.416-6.947,26.008-12.531c4.739-4.732,8.164-8.15,15.422-8.15
			c7.258,0,10.682,3.418,15.422,8.149c5.594,5.583,12.556,12.532,26.018,12.532c3.772,0,7.222-0.549,10.456-1.656L205.72,491H41.301
			z M186.908,465.864c-0.032-0.015-0.064-0.03-0.096-0.044l-4.963-2.277l6.878-14.959c0.029-0.064,0.061-0.126,0.088-0.191
			l14.738-32.054c0.556-1.209,1.61-2.112,2.892-2.477l17.896-5.089l7.794,16.875c0.557,1.204,0.558,2.588,0.003,3.794l-5.994,13.036
			c-0.021,0.046-0.044,0.09-0.063,0.137l-5.462,11.88c-0.019,0.038-0.035,0.076-0.053,0.114l-10.137,22.048L186.908,465.864z
			 M470.7,491H217.384c2.425-1.249,4.468-3.281,5.693-5.944l6.929-15.071c5.592,5.581,12.55,12.525,26.004,12.525
			c13.465,0,20.426-6.95,26.02-12.534c4.736-4.729,8.159-8.146,15.41-8.146c7.258,0,10.683,3.418,15.422,8.15
			c5.592,5.583,12.551,12.531,26.008,12.531c13.462,0,20.424-6.948,26.017-12.532c4.74-4.731,8.164-8.149,15.422-8.149
			c7.259,0,10.684,3.419,15.423,8.15c5.592,5.583,12.552,12.531,26.008,12.531c13.464,0,20.426-6.95,26.019-12.534
			c4.736-4.729,8.159-8.146,15.41-8.146c11.138,0,24.296,8.055,33.465,16.046C494.442,484.477,484.589,491,470.7,491z"/>
	</g>
</g>
<g>
</g>
<g>
</g>
<g>
</g>
<g>
</g>
<g>
</g>
<g>
</g>
<g>
</g>
<g>
</g>
<g>
</g>
<g>
</g>
<g>
</g>
<g>
</g>
<g>
</g>
<g>
</g>
<g>
</g>
</svg>
