<?xml version="1.0" encoding="iso-8859-1"?>
<!-- Generator: Adobe Illustrator 17.1.0, SVG Export Plug-In . SVG Version: 6.00 Build 0)  -->
<!DOCTYPE svg PUBLIC "-//W3C//DTD SVG 1.1//EN" "http://www.w3.org/Graphics/SVG/1.1/DTD/svg11.dtd">
<svg version="1.1" id="Capa_1" xmlns="http://www.w3.org/2000/svg" xmlns:xlink="http://www.w3.org/1999/xlink" x="0px" y="0px"
	 viewBox="0 0 511 511" style="enable-background:new 0 0 511 511;" xml:space="preserve">
<g>
	<path d="M455.5,0h-400C24.897,0,0,24.897,0,55.5v400C0,486.103,24.897,511,55.5,511h400c30.603,0,55.5-24.897,55.5-55.5v-400
		C511,24.897,486.103,0,455.5,0z M496,455.5c0,22.332-18.168,40.5-40.5,40.5h-400C33.168,496,15,477.832,15,455.5v-400
		C15,33.168,33.168,15,55.5,15h400c22.332,0,40.5,18.168,40.5,40.5V455.5z"/>
	<path d="M455.5,248.005c-4.142,0-7.5,3.358-7.5,7.5c-0.001,51.417-20.024,99.756-56.382,136.113
		c-75.056,75.056-197.181,75.056-272.236,0c-73.279-73.279-75-191.417-5.19-266.82l23.349,23.348
		c-20.64,22.635-34.182,50.362-39.3,80.644c-5.413,32.028-1.085,64.468,12.517,93.814c1.269,2.737,3.979,4.348,6.81,4.348
		c1.056,0,2.128-0.224,3.149-0.697c3.758-1.742,5.393-6.201,3.651-9.958c-12.322-26.585-16.242-55.979-11.336-85.006
		c4.596-27.193,16.71-52.103,35.141-72.512l23.363,23.363C153.729,202.461,144,228.231,144,255.5
		c0,29.783,11.598,57.783,32.658,78.842C197.717,355.402,225.717,367,255.5,367s57.783-11.598,78.842-32.658
		c21.058-21.058,32.656-49.056,32.658-78.837c0-4.142-3.357-7.5-7.5-7.5h0c-4.142,0-7.5,3.358-7.5,7.5
		c-0.001,25.774-10.039,50.006-28.264,68.231C305.509,341.962,281.276,352,255.5,352s-50.009-10.038-68.236-28.264
		S159,281.276,159,255.5c0-23.26,8.176-45.262,23.165-62.729l23.454,23.455c-19.633,24.9-17.984,61.212,4.979,84.176
		c12.379,12.379,28.64,18.569,44.901,18.569s32.522-6.189,44.901-18.569C312.395,288.409,319,272.463,319,255.503
		c0-4.143-3.357-7.5-7.5-7.5h0c-4.142,0-7.5,3.358-7.5,7.5c0,12.954-5.045,25.133-14.205,34.293c-18.911,18.91-49.68,18.909-68.59,0
		c-17.106-17.107-18.735-43.917-4.892-62.875l33.883,33.883c1.464,1.464,3.384,2.197,5.303,2.197s3.839-0.732,5.303-2.197
		c2.929-2.929,2.929-7.678,0-10.606l-160-160c-2.929-2.929-7.678-2.929-10.606,0c-2.929,2.929-2.929,7.678,0,10.606l13.38,13.38
		C67.687,152.698,48,202.583,48,255.5c0,55.425,21.583,107.533,60.775,146.725c40.452,40.452,93.588,60.678,146.725,60.678
		s106.272-20.226,146.725-60.678c39.19-39.19,60.774-91.296,60.775-146.72C463,251.363,459.642,248.005,455.5,248.005z"/>
	<path d="M279.697,397.972c-29.032,4.903-58.431,0.979-85.018-11.351c-3.759-1.742-8.217-0.109-9.959,3.649
		s-0.109,8.217,3.649,9.959c21.146,9.806,43.896,14.796,66.946,14.796c8.94,0,17.928-0.751,26.881-2.263
		c32.754-5.533,62.523-20.913,86.089-44.479c30.124-30.124,46.714-70.175,46.716-112.776c0-4.142-3.357-7.5-7.5-7.5h0
		c-4.142,0-7.5,3.358-7.5,7.5c-0.002,38.595-15.033,74.879-42.323,102.17C336.327,379.028,309.361,392.961,279.697,397.972z"/>
	<path d="M31.5,248c-1.97,0-3.91,0.8-5.3,2.2c-1.4,1.39-2.2,3.33-2.2,5.3c0,1.97,0.8,3.91,2.2,5.3c1.39,1.4,3.32,2.2,5.3,2.2
		c1.97,0,3.91-0.8,5.3-2.2c1.4-1.39,2.2-3.33,2.2-5.3c0-1.97-0.8-3.91-2.2-5.3C35.41,248.8,33.47,248,31.5,248z"/>
	<path d="M74.2,250.2c-1.4,1.39-2.2,3.33-2.2,5.3c0,1.97,0.8,3.91,2.2,5.3c1.39,1.4,3.33,2.2,5.3,2.2c1.97,0,3.91-0.8,5.3-2.2
		c1.4-1.39,2.2-3.33,2.2-5.3c0-1.97-0.8-3.91-2.2-5.3c-1.39-1.4-3.33-2.2-5.3-2.2C77.53,248,75.59,248.8,74.2,250.2z"/>
	<path d="M135,255.5c0-1.97-0.8-3.91-2.2-5.3c-1.39-1.4-3.33-2.2-5.3-2.2c-1.97,0-3.91,0.8-5.3,2.2c-1.4,1.39-2.2,3.33-2.2,5.3
		c0,1.97,0.8,3.91,2.2,5.3c1.39,1.4,3.33,2.2,5.3,2.2c1.97,0,3.91-0.8,5.3-2.2C134.2,259.41,135,257.47,135,255.5z"/>
	<path d="M170.2,250.2c-1.4,1.39-2.2,3.33-2.2,5.3c0,1.97,0.8,3.91,2.2,5.3c1.39,1.4,3.33,2.2,5.3,2.2c1.97,0,3.91-0.8,5.3-2.2
		c1.4-1.39,2.2-3.33,2.2-5.3c0-1.97-0.8-3.91-2.2-5.3c-1.39-1.4-3.33-2.2-5.3-2.2C173.53,248,171.59,248.8,170.2,250.2z"/>
	<path d="M218.2,250.2c-1.4,1.39-2.2,3.33-2.2,5.3c0,1.97,0.8,3.91,2.2,5.3c1.39,1.4,3.32,2.2,5.3,2.2s3.91-0.8,5.3-2.2
		c1.4-1.39,2.2-3.33,2.2-5.3c0-1.97-0.8-3.91-2.2-5.3c-1.39-1.4-3.33-2.2-5.3-2.2C221.53,248,219.59,248.8,218.2,250.2z"/>
	<path d="M287.5,263c1.97,0,3.91-0.8,5.3-2.2c1.4-1.39,2.2-3.33,2.2-5.3c0-1.97-0.8-3.91-2.2-5.3c-1.39-1.4-3.33-2.2-5.3-2.2
		c-1.97,0-3.91,0.8-5.3,2.2c-1.4,1.39-2.2,3.33-2.2,5.3c0,1.97,0.8,3.91,2.2,5.3C283.59,262.2,285.53,263,287.5,263z"/>
	<path d="M335.5,263c1.98,0,3.91-0.8,5.3-2.2c1.4-1.39,2.2-3.33,2.2-5.3c0-1.98-0.8-3.91-2.2-5.3c-1.39-1.4-3.33-2.2-5.3-2.2
		c-1.97,0-3.91,0.8-5.3,2.2c-1.4,1.39-2.2,3.32-2.2,5.3c0,1.97,0.8,3.91,2.2,5.3C331.59,262.2,333.53,263,335.5,263z"/>
	<path d="M383.5,263c1.98,0,3.91-0.8,5.3-2.2c1.4-1.39,2.2-3.33,2.2-5.3c0-1.98-0.8-3.91-2.2-5.3c-1.39-1.4-3.33-2.2-5.3-2.2
		c-1.97,0-3.91,0.8-5.3,2.2c-1.4,1.39-2.2,3.33-2.2,5.3c0,1.97,0.8,3.91,2.2,5.3C379.59,262.2,381.53,263,383.5,263z"/>
	<path d="M431.5,263c1.98,0,3.91-0.8,5.3-2.2c1.4-1.39,2.2-3.33,2.2-5.3c0-1.97-0.8-3.91-2.2-5.3c-1.39-1.4-3.33-2.2-5.3-2.2
		c-1.97,0-3.91,0.8-5.3,2.2c-1.4,1.39-2.2,3.33-2.2,5.3c0,1.97,0.8,3.91,2.2,5.3C427.59,262.2,429.52,263,431.5,263z"/>
	<path d="M474.2,250.2c-1.4,1.39-2.2,3.33-2.2,5.3c0,1.97,0.8,3.91,2.2,5.3c1.39,1.4,3.33,2.2,5.3,2.2c1.97,0,3.91-0.8,5.3-2.2
		c1.4-1.39,2.2-3.32,2.2-5.3s-0.8-3.91-2.2-5.3c-1.39-1.4-3.32-2.2-5.3-2.2C477.53,248,475.59,248.8,474.2,250.2z"/>
	<path d="M255.5,472c-1.98,0-3.91,0.8-5.3,2.2c-1.4,1.39-2.2,3.33-2.2,5.3c0,1.97,0.8,3.91,2.2,5.3c1.39,1.4,3.33,2.2,5.3,2.2
		c1.97,0,3.91-0.8,5.3-2.2c1.4-1.39,2.2-3.33,2.2-5.3c0-1.97-0.8-3.91-2.2-5.3C259.41,472.8,257.48,472,255.5,472z"/>
	<path d="M250.2,426.2c-1.4,1.39-2.2,3.33-2.2,5.3c0,1.97,0.8,3.91,2.2,5.3c1.39,1.4,3.33,2.2,5.3,2.2c1.97,0,3.91-0.8,5.3-2.2
		c1.4-1.39,2.2-3.33,2.2-5.3c0-1.97-0.8-3.91-2.2-5.3c-1.39-1.4-3.32-2.2-5.3-2.2S251.59,424.8,250.2,426.2z"/>
	<path d="M260.8,388.8c1.4-1.39,2.2-3.33,2.2-5.3c0-1.97-0.8-3.91-2.2-5.3c-1.39-1.4-3.33-2.2-5.3-2.2c-1.97,0-3.91,0.8-5.3,2.2
		c-1.4,1.39-2.2,3.33-2.2,5.3c0,1.97,0.8,3.91,2.2,5.3c1.39,1.4,3.33,2.2,5.3,2.2C257.47,391,259.41,390.2,260.8,388.8z"/>
	<path d="M250.2,330.2c-1.4,1.39-2.2,3.33-2.2,5.3c0,1.97,0.8,3.91,2.2,5.3c1.39,1.4,3.33,2.2,5.3,2.2c1.97,0,3.91-0.8,5.3-2.2
		c1.4-1.39,2.2-3.33,2.2-5.3c0-1.97-0.8-3.91-2.2-5.3c-1.39-1.4-3.33-2.2-5.3-2.2C253.53,328,251.59,328.8,250.2,330.2z"/>
	<path d="M255.5,280c-1.98,0-3.91,0.8-5.3,2.2c-1.4,1.39-2.2,3.33-2.2,5.3c0,1.97,0.8,3.91,2.2,5.3c1.39,1.4,3.33,2.2,5.3,2.2
		c1.97,0,3.91-0.8,5.3-2.2c1.4-1.39,2.2-3.33,2.2-5.3c0-1.97-0.8-3.91-2.2-5.3C259.41,280.8,257.48,280,255.5,280z"/>
	<path d="M255.5,231c1.97,0,3.91-0.8,5.3-2.2c1.4-1.39,2.2-3.33,2.2-5.3c0-1.97-0.8-3.91-2.2-5.3c-1.39-1.4-3.32-2.2-5.3-2.2
		s-3.91,0.8-5.3,2.2c-1.4,1.39-2.2,3.33-2.2,5.3c0,1.97,0.8,3.91,2.2,5.3C251.59,230.2,253.53,231,255.5,231z"/>
	<path d="M255.5,183c1.97,0,3.91-0.8,5.3-2.2c1.4-1.39,2.2-3.33,2.2-5.3c0-1.97-0.8-3.91-2.2-5.3c-1.39-1.4-3.33-2.2-5.3-2.2
		c-1.97,0-3.91,0.8-5.3,2.2c-1.4,1.39-2.2,3.33-2.2,5.3c0,1.97,0.8,3.91,2.2,5.3C251.59,182.2,253.53,183,255.5,183z"/>
	<path d="M255.5,135c1.98,0,3.91-0.8,5.3-2.2c1.4-1.39,2.2-3.33,2.2-5.3c0-1.97-0.8-3.91-2.2-5.3c-1.39-1.4-3.33-2.2-5.3-2.2
		c-1.97,0-3.91,0.8-5.3,2.2c-1.4,1.39-2.2,3.33-2.2,5.3c0,1.97,0.8,3.91,2.2,5.3C251.59,134.2,253.52,135,255.5,135z"/>
	<path d="M255.5,87c1.97,0,3.91-0.8,5.3-2.2c1.4-1.39,2.2-3.33,2.2-5.3c0-1.97-0.8-3.91-2.2-5.3c-1.39-1.4-3.33-2.2-5.3-2.2
		c-1.97,0-3.91,0.8-5.3,2.2c-1.4,1.39-2.2,3.33-2.2,5.3c0,1.97,0.8,3.91,2.2,5.3C251.59,86.2,253.53,87,255.5,87z"/>
	<path d="M255.5,39c1.97,0,3.91-0.8,5.3-2.2c1.4-1.39,2.2-3.33,2.2-5.3c0-1.97-0.8-3.91-2.2-5.3c-1.39-1.4-3.32-2.2-5.3-2.2
		s-3.91,0.8-5.3,2.2c-1.4,1.39-2.2,3.33-2.2,5.3c0,1.97,0.8,3.91,2.2,5.3C251.59,38.2,253.53,39,255.5,39z"/>
	<path d="M147.5,391c15.164,0,27.5-12.336,27.5-27.5S162.664,336,147.5,336S120,348.336,120,363.5S132.336,391,147.5,391z
		 M147.5,351c6.893,0,12.5,5.607,12.5,12.5s-5.607,12.5-12.5,12.5s-12.5-5.607-12.5-12.5S140.607,351,147.5,351z"/>
</g>
<g>
</g>
<g>
</g>
<g>
</g>
<g>
</g>
<g>
</g>
<g>
</g>
<g>
</g>
<g>
</g>
<g>
</g>
<g>
</g>
<g>
</g>
<g>
</g>
<g>
</g>
<g>
</g>
<g>
</g>
</svg>
