<?xml version="1.0" encoding="iso-8859-1"?>
<!-- Generator: Adobe Illustrator 19.0.0, SVG Export Plug-In . SVG Version: 6.00 Build 0)  -->
<svg version="1.1" id="Capa_1" xmlns="http://www.w3.org/2000/svg" xmlns:xlink="http://www.w3.org/1999/xlink" x="0px" y="0px"
	 viewBox="0 0 512.001 512.001" style="enable-background:new 0 0 512.001 512.001;" xml:space="preserve">
<g>
	<g>
		<path d="M511.768,499.855l-54-245.873c-1.008-4.587-5.071-7.854-9.768-7.854h-23.633c-4.419-89.828-78.884-161.55-169.789-161.55
			S89.209,156.3,84.789,246.128H64c-4.696,0-8.76,3.268-9.768,7.854l-54,245.873c-0.649,2.959,0.077,6.052,1.975,8.412
			C4.107,510.628,6.971,512,10,512h492c3.029,0,5.895-1.373,7.793-3.733C511.692,505.906,512.417,502.814,511.768,499.855z
			 M254.578,104.578c79.874,0,145.359,62.756,149.757,141.549H104.821C109.219,167.334,174.706,104.578,254.578,104.578z
			 M318.711,348l4.668,62H188.622l4.668-62H318.711z M194.797,328l4.658-61.873h113.092L317.206,328H194.797z M162.393,492H22.435
			l13.616-62H167.06L162.393,492z M168.566,410H40.445l13.617-62h119.173L168.566,410z M174.74,328H58.453l13.589-61.873h107.355
			L174.74,328z M182.448,492l4.668-62h137.768l4.668,62H182.448z M332.604,266.128h107.355L453.547,328H337.261L332.604,266.128z
			 M338.768,348H457.94l13.617,62H343.435L338.768,348z M349.609,492l-4.668-62H475.95l13.617,62H349.609z"/>
	</g>
</g>
<g>
	<g>
		<path d="M256,0c-5.522,0-10,4.478-10,10v50.656c0,5.523,4.478,10,10,10c5.522,0,10-4.478,10-10V10C266,4.479,261.523,0,256,0z"/>
	</g>
</g>
<g>
	<g>
		<path d="M163.32,82.81l-25.329-43.869c-2.762-4.781-8.876-6.421-13.66-3.66c-4.783,2.762-6.422,8.878-3.66,13.66L146,92.81
			c1.853,3.208,5.213,5.002,8.67,5.002c1.696,0,3.416-0.433,4.99-1.342C164.443,93.708,166.083,87.592,163.32,82.81z"/>
	</g>
</g>
<g>
	<g>
		<path d="M484.053,131.669c-2.761-4.782-8.874-6.421-13.66-3.66l-43.869,25.327c-4.783,2.761-6.422,8.877-3.66,13.66
			c1.853,3.208,5.213,5.002,8.67,5.002c1.696,0,3.415-0.433,4.99-1.342l43.869-25.327
			C485.176,142.568,486.815,136.453,484.053,131.669z"/>
	</g>
</g>
<g>
	<g>
		<path d="M85.476,153.336l-43.871-25.327c-4.784-2.762-10.9-1.122-13.66,3.66c-2.762,4.783-1.123,10.9,3.66,13.66l43.871,25.327
			c1.575,0.909,3.294,1.342,4.99,1.342c3.456,0,6.818-1.794,8.67-5.002C91.898,162.213,90.259,156.097,85.476,153.336z"/>
	</g>
</g>
<g>
	<g>
		<path d="M387.669,35.281c-4.784-2.762-10.898-1.123-13.66,3.66L348.68,82.81c-2.762,4.782-1.123,10.898,3.66,13.66
			c1.575,0.909,3.294,1.342,4.99,1.342c3.456,0,6.817-1.794,8.67-5.002l25.329-43.869C394.091,44.159,392.453,38.044,387.669,35.281
			z"/>
	</g>
</g>
<g>
	<g>
		<path d="M375.246,203.729l-0.026-0.064c-2.092-5.112-7.919-7.527-13.029-5.438c-5.113,2.092-7.548,7.963-5.457,13.074
			c1.585,3.873,5.319,6.217,9.26,6.217c1.261,0,2.543-0.24,3.782-0.747C374.888,214.68,377.337,208.84,375.246,203.729z"/>
	</g>
</g>
<g>
	<g>
		<path d="M354.732,170.271c-24.955-29.617-61.46-46.604-100.154-46.604c-5.522,0-10,4.478-10,10
			c0,5.522,4.479,10.001,10.001,10.001c32.783,0,63.713,14.394,84.859,39.49c1.979,2.348,4.806,3.557,7.652,3.557
			c2.275,0,4.563-0.772,6.438-2.353C357.752,180.802,358.291,174.495,354.732,170.271z"/>
	</g>
</g>
<g>
</g>
<g>
</g>
<g>
</g>
<g>
</g>
<g>
</g>
<g>
</g>
<g>
</g>
<g>
</g>
<g>
</g>
<g>
</g>
<g>
</g>
<g>
</g>
<g>
</g>
<g>
</g>
<g>
</g>
</svg>
