<?xml version="1.0" encoding="iso-8859-1"?>
<!-- Generator: Adobe Illustrator 19.0.0, SVG Export Plug-In . SVG Version: 6.00 Build 0)  -->
<svg version="1.1" id="Capa_1" xmlns="http://www.w3.org/2000/svg" xmlns:xlink="http://www.w3.org/1999/xlink" x="0px" y="0px"
	 viewBox="0 0 512 512" style="enable-background:new 0 0 512 512;" xml:space="preserve">
<g>
	<g>
		<path d="M451,0H61c-4.142,0-7.5,3.357-7.5,7.5v497c0,4.143,3.358,7.5,7.5,7.5h390c4.143,0,7.5-3.357,7.5-7.5V7.5
			C458.5,3.357,455.143,0,451,0z M68.5,45h60c12.407,0,22.5,10.094,22.5,22.5v10.044c-22.956,3.299-41.157,21.5-44.456,44.456H103.5
			c-4.142,0-7.5,3.357-7.5,7.5s3.358,7.5,7.5,7.5h110c4.142,0,7.5-3.357,7.5-7.5s-3.358-7.5-7.5-7.5h-3.044
			c-3.299-22.956-21.5-41.157-44.456-44.456V67.5c0-20.678-16.822-37.5-37.5-37.5h-60V15h180v452h-180V45z M158.5,92
			c18.11,0,33.261,12.904,36.745,30h-73.491C125.239,104.904,140.39,92,158.5,92z M443.5,497h-375v-15h375V497z M443.5,467h-180V15
			h180V467z"/>
	</g>
</g>
<g>
	<g>
		<path d="M286,188.5c-4.143,0-7.5,3.357-7.5,7.5v90c0,4.143,3.357,7.5,7.5,7.5s7.5-3.357,7.5-7.5v-90
			C293.5,191.857,290.143,188.5,286,188.5z"/>
	</g>
</g>
<g>
	<g>
		<path d="M226,188.5c-4.142,0-7.5,3.357-7.5,7.5v90c0,4.143,3.358,7.5,7.5,7.5c4.142,0,7.5-3.357,7.5-7.5v-90
			C233.5,191.857,230.142,188.5,226,188.5z"/>
	</g>
</g>
<g>
	<g>
		<path d="M158.5,152c-4.142,0-7.5,3.357-7.5,7.5v15c0,4.143,3.358,7.5,7.5,7.5c4.142,0,7.5-3.357,7.5-7.5v-15
			C166,155.357,162.642,152,158.5,152z"/>
	</g>
</g>
<g>
	<g>
		<path d="M128.5,152c-4.142,0-7.5,3.357-7.5,7.5v15c0,4.143,3.358,7.5,7.5,7.5c4.142,0,7.5-3.357,7.5-7.5v-15
			C136,155.357,132.642,152,128.5,152z"/>
	</g>
</g>
<g>
	<g>
		<path d="M188.5,152c-4.142,0-7.5,3.357-7.5,7.5v15c0,4.143,3.358,7.5,7.5,7.5c4.142,0,7.5-3.357,7.5-7.5v-15
			C196,155.357,192.642,152,188.5,152z"/>
	</g>
</g>
<g>
	<g>
		<path d="M158.5,197c-4.142,0-7.5,3.357-7.5,7.5v15c0,4.143,3.358,7.5,7.5,7.5c4.142,0,7.5-3.357,7.5-7.5v-15
			C166,200.357,162.642,197,158.5,197z"/>
	</g>
</g>
<g>
	<g>
		<path d="M128.5,197c-4.142,0-7.5,3.357-7.5,7.5v15c0,4.143,3.358,7.5,7.5,7.5c4.142,0,7.5-3.357,7.5-7.5v-15
			C136,200.357,132.642,197,128.5,197z"/>
	</g>
</g>
<g>
	<g>
		<path d="M188.5,197c-4.142,0-7.5,3.357-7.5,7.5v15c0,4.143,3.358,7.5,7.5,7.5c4.142,0,7.5-3.357,7.5-7.5v-15
			C196,200.357,192.642,197,188.5,197z"/>
	</g>
</g>
<g>
	<g>
		<path d="M158.5,242c-4.142,0-7.5,3.357-7.5,7.5v15c0,4.143,3.358,7.5,7.5,7.5c4.142,0,7.5-3.357,7.5-7.5v-15
			C166,245.357,162.642,242,158.5,242z"/>
	</g>
</g>
<g>
	<g>
		<path d="M128.5,242c-4.142,0-7.5,3.357-7.5,7.5v15c0,4.143,3.358,7.5,7.5,7.5c4.142,0,7.5-3.357,7.5-7.5v-15
			C136,245.357,132.642,242,128.5,242z"/>
	</g>
</g>
<g>
	<g>
		<path d="M188.5,242c-4.142,0-7.5,3.357-7.5,7.5v15c0,4.143,3.358,7.5,7.5,7.5c4.142,0,7.5-3.357,7.5-7.5v-15
			C196,245.357,192.642,242,188.5,242z"/>
	</g>
</g>
<g>
	<g>
		<path d="M158.5,287c-4.142,0-7.5,3.357-7.5,7.5v15c0,4.143,3.358,7.5,7.5,7.5c4.142,0,7.5-3.357,7.5-7.5v-15
			C166,290.357,162.642,287,158.5,287z"/>
	</g>
</g>
<g>
	<g>
		<path d="M128.5,287c-4.142,0-7.5,3.357-7.5,7.5v15c0,4.143,3.358,7.5,7.5,7.5c4.142,0,7.5-3.357,7.5-7.5v-15
			C136,290.357,132.642,287,128.5,287z"/>
	</g>
</g>
<g>
	<g>
		<path d="M188.5,287c-4.142,0-7.5,3.357-7.5,7.5v15c0,4.143,3.358,7.5,7.5,7.5c4.142,0,7.5-3.357,7.5-7.5v-15
			C196,290.357,192.642,287,188.5,287z"/>
	</g>
</g>
<g>
	<g>
		<path d="M158.5,332c-4.142,0-7.5,3.357-7.5,7.5v15c0,4.143,3.358,7.5,7.5,7.5c4.142,0,7.5-3.357,7.5-7.5v-15
			C166,335.357,162.642,332,158.5,332z"/>
	</g>
</g>
<g>
	<g>
		<path d="M128.5,332c-4.142,0-7.5,3.357-7.5,7.5v15c0,4.143,3.358,7.5,7.5,7.5c4.142,0,7.5-3.357,7.5-7.5v-15
			C136,335.357,132.642,332,128.5,332z"/>
	</g>
</g>
<g>
	<g>
		<path d="M188.5,332c-4.142,0-7.5,3.357-7.5,7.5v15c0,4.143,3.358,7.5,7.5,7.5c4.142,0,7.5-3.357,7.5-7.5v-15
			C196,335.357,192.642,332,188.5,332z"/>
	</g>
</g>
<g>
	<g>
		<path d="M158.5,377c-4.142,0-7.5,3.357-7.5,7.5v15c0,4.143,3.358,7.5,7.5,7.5c4.142,0,7.5-3.357,7.5-7.5v-15
			C166,380.357,162.642,377,158.5,377z"/>
	</g>
</g>
<g>
	<g>
		<path d="M128.5,377c-4.142,0-7.5,3.357-7.5,7.5v15c0,4.143,3.358,7.5,7.5,7.5c4.142,0,7.5-3.357,7.5-7.5v-15
			C136,380.357,132.642,377,128.5,377z"/>
	</g>
</g>
<g>
	<g>
		<path d="M188.5,377c-4.142,0-7.5,3.357-7.5,7.5v15c0,4.143,3.358,7.5,7.5,7.5c4.142,0,7.5-3.357,7.5-7.5v-15
			C196,380.357,192.642,377,188.5,377z"/>
	</g>
</g>
<g>
	<g>
		<path d="M158.5,422c-4.142,0-7.5,3.357-7.5,7.5v15c0,4.143,3.358,7.5,7.5,7.5c4.142,0,7.5-3.357,7.5-7.5v-15
			C166,425.357,162.642,422,158.5,422z"/>
	</g>
</g>
<g>
	<g>
		<path d="M128.5,422c-4.142,0-7.5,3.357-7.5,7.5v15c0,4.143,3.358,7.5,7.5,7.5c4.142,0,7.5-3.357,7.5-7.5v-15
			C136,425.357,132.642,422,128.5,422z"/>
	</g>
</g>
<g>
	<g>
		<path d="M188.5,422c-4.142,0-7.5,3.357-7.5,7.5v15c0,4.143,3.358,7.5,7.5,7.5c4.142,0,7.5-3.357,7.5-7.5v-15
			C196,425.357,192.642,422,188.5,422z"/>
	</g>
</g>
<g>
</g>
<g>
</g>
<g>
</g>
<g>
</g>
<g>
</g>
<g>
</g>
<g>
</g>
<g>
</g>
<g>
</g>
<g>
</g>
<g>
</g>
<g>
</g>
<g>
</g>
<g>
</g>
<g>
</g>
</svg>
