<svg width="511.99938" height="511" xmlns="http://www.w3.org/2000/svg">
 <g>
  <title>Layer 1</title>
  <g stroke="null">
   <g stroke="null">
    <path stroke="null" fill="#222220" d="m498.4997,291.85561c0,-66.38601 -26.76824,-126.62929 -70.06686,-170.53023c-0.33781,-0.44935 -0.69793,-0.88914 -1.10744,-1.29866c-0.40951,-0.40951 -0.84771,-0.76963 -1.29706,-1.10585c-43.90094,-43.29862 -104.14422,-70.06527 -170.52864,-70.06527c-66.38441,0 -126.6277,26.76824 -170.53023,70.06527c-0.44935,0.33781 -0.88755,0.69793 -1.29706,1.10585c-0.40951,0.40951 -0.76963,0.84771 -1.10744,1.29866c-43.29702,43.90094 -70.06527,104.14422 -70.06527,170.53023c0,64.89932 25.27041,125.91065 71.15518,171.80658c0.00637,0.00637 0.01275,0.01434 0.01912,0.02071c0.00478,0.00319 0.00797,0.00797 0.01275,0.01115c0.00637,0.00637 0.01275,0.01275 0.01912,0.01912c2.3328,2.3328 5.39062,3.49761 8.44843,3.49761c3.05941,0 6.11882,-1.1664 8.45162,-3.50079c0.19918,-0.19918 0.37924,-0.41111 0.56089,-0.62144l36.82765,-36.82924c4.66719,-4.66879 4.66719,-12.23445 0,-16.90165c-4.66719,-4.6656 -12.23445,-4.6656 -16.90005,0l-28.73933,28.73933c-33.51169,-37.29134 -52.95329,-84.2246 -55.62708,-134.29056l40.64394,0c6.60004,0 11.95082,-5.34919 11.95082,-11.95082s-5.35078,-11.95082 -11.95082,-11.95082l-40.64075,0c2.77896,-51.42358 23.37262,-98.18475 55.70197,-134.21408l28.66125,28.66125c2.3328,2.3328 5.39221,3.4992 8.45003,3.4992c3.05782,0 6.11723,-1.1664 8.45003,-3.4992c4.66719,-4.66879 4.66719,-12.23445 0,-16.90165l-28.65966,-28.66285c36.03092,-32.32936 82.7905,-52.92301 134.21408,-55.70038l0,40.64235c0,6.60163 5.35078,11.95082 11.95082,11.95082s11.95082,-5.34919 11.95082,-11.95082l0,-40.64235c51.42358,2.77737 98.18315,23.37262 134.21408,55.70197l-28.66125,28.66125c-4.66719,4.66879 -4.66719,12.23445 0,16.90165c2.3328,2.3328 5.39221,3.4992 8.45003,3.4992s6.11723,-1.1664 8.45003,-3.4992l28.66125,-28.66125c32.32936,36.03092 52.9246,82.7905 55.70197,134.21408l-40.64235,0c-6.60004,0 -11.95082,5.34919 -11.95082,11.95082s5.35078,11.95082 11.95082,11.95082l40.64394,0c-2.6738,50.06597 -22.1138,97.00082 -55.62549,134.29216l-28.73933,-28.74092c-4.6656,-4.6656 -12.23286,-4.6656 -16.90005,0c-4.66719,4.66879 -4.66719,12.23445 0,16.90165l37.422,37.422c2.3328,2.3328 5.39221,3.4992 8.45003,3.4992c1.52811,0 3.05782,-0.2916 4.4967,-0.8748c1.43888,-0.5832 2.78693,-1.458 3.95492,-2.6244c45.89593,-45.89752 71.17271,-106.92 71.17271,-171.8257z"/>
    <path stroke="null" fill="#222220" d="m310.40336,154.8068c-6.12997,-2.4555 -13.08376,0.52106 -15.53766,6.64944l-34.53468,86.20525c-1.60938,-0.17209 -3.21875,-0.29001 -4.82972,-0.29001c-16.82038,0 -32.01386,9.31686 -39.65441,24.31434c-7.98633,15.67788 -5.94035,34.41039 5.4687,50.1058c1.1664,1.6046 2.63237,3.07216 4.24812,4.24652c9.26906,6.73867 19.62165,10.30001 29.9376,10.30001c16.82038,0 32.01545,-9.31686 39.65441,-24.31434c7.98633,-15.67788 5.94035,-34.4088 -5.46073,-50.09306c-1.1664,-1.60938 -2.63555,-3.08172 -4.25609,-4.26087c-0.87161,-0.63419 -1.76235,-1.21261 -2.65308,-1.78944l34.26698,-85.53759c2.4539,-6.12519 -0.52265,-13.08216 -6.64944,-15.53607zm-36.5472,146.36727c-3.53904,6.94582 -10.57249,11.26086 -18.35646,11.26086c-5.10539,0 -10.24424,-1.78306 -15.27952,-5.30138c-5.73639,-8.2365 -6.86296,-17.16616 -3.07534,-24.59957c3.53744,-6.94582 10.5709,-11.26086 18.35646,-11.26086c2.48258,0 4.97154,0.43023 7.45412,1.26679c0.08127,0.03346 0.15616,0.07649 0.23902,0.10995c0.26132,0.10357 0.52424,0.18803 0.78716,0.27248c2.27862,0.8748 4.54769,2.07944 6.79763,3.65058c5.7348,8.2365 6.86296,17.16775 3.07694,24.60116z"/>
   </g>
   <g stroke="null"/>
   <g stroke="null"/>
   <g stroke="null"/>
   <g stroke="null"/>
   <g stroke="null"/>
   <g stroke="null"/>
   <g stroke="null"/>
   <g stroke="null"/>
   <g stroke="null"/>
   <g stroke="null"/>
   <g stroke="null"/>
   <g stroke="null"/>
   <g stroke="null"/>
   <g stroke="null"/>
   <g stroke="null"/>
  </g>
 </g>

</svg>