<svg xmlns="http://www.w3.org/2000/svg" width="700" height="700" viewBox="0 0 700 700">
  <metadata><?xpacket begin="﻿" id="W5M0MpCehiHzreSzNTczkc9d"?>
<x:xmpmeta xmlns:x="adobe:ns:meta/" x:xmptk="Adobe XMP Core 5.6-c138 79.159824, 2016/09/14-01:09:01        ">
   <rdf:RDF xmlns:rdf="http://www.w3.org/1999/02/22-rdf-syntax-ns#">
      <rdf:Description rdf:about=""/>
   </rdf:RDF>
</x:xmpmeta>
                                                                                                    
                                                                                                    
                                                                                                    
                                                                                                    
                                                                                                    
                                                                                                    
                                                                                                    
                                                                                                    
                                                                                                    
                                                                                                    
                                                                                                    
                                                                                                    
                                                                                                    
                                                                                                    
                                                                                                    
                                                                                                    
                                                                                                    
                                                                                                    
                                                                                                    
                                                                                                    
                           
<?xpacket end="w"?></metadata>
<defs>
    <style>
      .cls-1 {
        fill-rule: evenodd;
      }
    </style>
  </defs>
  <path id="Forma_1" data-name="Forma 1" class="cls-1" d="M654.283,193.783a9.65,9.65,0,0,0-8.389-4.89H476.706l-34.278-67.818A12.869,12.869,0,0,0,430.945,114H401.583a12.906,12.906,0,0,0-11.991,17.609l22.322,57.282H194.647V139.706a9.657,9.657,0,0,0-14.586-8.327L83.47,188.892H53.655A9.668,9.668,0,0,0,44,198.574V308.506a9.658,9.658,0,0,0,.2,1.98A48.514,48.514,0,0,0,91.461,349H399.518a295.95,295.95,0,0,0,146.551-38.922A297.009,297.009,0,0,0,654.2,203.512,9.7,9.7,0,0,0,654.283,193.783ZM175.336,156.715v32.178H121.3Zm224.18,172.92H91.459a29.112,29.112,0,0,1-28.149-22.2v-28.8H507.262a9.683,9.683,0,0,0,0-19.366H63.31V208.258h22.8l0.019,0,0.018,0,542.158,0C577.119,283.537,490.982,329.635,399.516,329.635Z"/>
  <path class="cls-1" d="M327.626,509.222H131.544l33.245-33.347A7.287,7.287,0,0,0,154.5,465.554L108.825,511.37a7.29,7.29,0,0,0,0,10.32L154.5,567.506a7.308,7.308,0,0,0,10.348-10.321L131.6,523.838H327.685A7.308,7.308,0,1,0,327.626,509.222ZM58.571,654.662V378.338a7.286,7.286,0,1,0-14.571,0V654.662A7.286,7.286,0,1,0,58.571,654.662Z"/>
  <path id="Shape_1_copy" data-name="Shape 1 copy" class="cls-1" d="M372.374,509.222H568.456l-33.245-33.347A7.287,7.287,0,0,1,545.5,465.554l45.675,45.816a7.29,7.29,0,0,1,0,10.32L545.5,567.506a7.308,7.308,0,0,1-10.348-10.321L568.4,523.838H372.315A7.308,7.308,0,1,1,372.374,509.222Zm269.055,145.44V378.338a7.286,7.286,0,1,1,14.571,0V654.662A7.286,7.286,0,1,1,641.429,654.662Z"/>
</svg>
