<?xml version="1.0" encoding="UTF-8"?>
<svg xmlns="http://www.w3.org/2000/svg" viewBox="0 0 512 512" width="512" height="512"><g id="ouline"><path d="M200,80a8,8,0,0,0,8-8V44a28.032,28.032,0,0,0-28-28H108A28.032,28.032,0,0,0,80,44V72a8,8,0,0,0,8,8s.139,153.714.411,154.53l7.9,23.705s16.186,64.544,16.2,64.574A218.1,218.1,0,0,1,120.835,448.8l-8.63,37.4A8,8,0,0,0,120,496H360a8,8,0,0,0,8-8V386.274A116.2,116.2,0,0,0,448,276V262a30.034,30.034,0,0,0-30-30H236a20.023,20.023,0,0,0-20,20v12H200ZM96,64V44a12.013,12.013,0,0,1,12-12h72a12.013,12.013,0,0,1,12,12V64Zm13.766,184L104,230.7V80h80V248ZM352,480H130.057l6.368-27.6A233.955,233.955,0,0,0,131.24,328H232a4,4,0,0,1,4,4v16a44.049,44.049,0,0,0,44,44h52a116.176,116.176,0,0,0,20-1.731ZM232,252a4,4,0,0,1,4-4H418a14.015,14.015,0,0,1,14,14v2H232Zm199.921,28A100.123,100.123,0,0,1,332,376H280a28.032,28.032,0,0,1-28-28V332a20.023,20.023,0,0,0-20-20H126.246l-12-48H184v8a8,8,0,0,0,8,8Z"/></g></svg>
