<svg xmlns="http://www.w3.org/2000/svg" width="612" height="612" viewBox="0 0 612 612">
  <metadata><?xpacket begin="﻿" id="W5M0MpCehiHzreSzNTczkc9d"?>
<x:xmpmeta xmlns:x="adobe:ns:meta/" x:xmptk="Adobe XMP Core 5.6-c138 79.159824, 2016/09/14-01:09:01        ">
   <rdf:RDF xmlns:rdf="http://www.w3.org/1999/02/22-rdf-syntax-ns#">
      <rdf:Description rdf:about=""/>
   </rdf:RDF>
</x:xmpmeta>
                                                                                                    
                                                                                                    
                                                                                                    
                                                                                                    
                                                                                                    
                                                                                                    
                                                                                                    
                                                                                                    
                                                                                                    
                                                                                                    
                                                                                                    
                                                                                                    
                                                                                                    
                                                                                                    
                                                                                                    
                                                                                                    
                                                                                                    
                                                                                                    
                                                                                                    
                                                                                                    
                           
<?xpacket end="w"?></metadata>
<defs>
    <style>
      .cls-1 {
        fill-rule: evenodd;
      }
    </style>
  </defs>
  <path class="cls-1" d="M165.453,123.92a4.012,4.012,0,0,0-.2-0.445l-9.331-17.994a4.015,4.015,0,1,0-7.127,3.7l9.216,17.775A53.392,53.392,0,0,1,109.685,198.8a53.406,53.406,0,0,1-48.329-71.842l48.329-93.214L142.431,96.9a4.016,4.016,0,1,0,7.128-3.7l-36.31-70.033a4.015,4.015,0,0,0-7.129,0L54.112,123.475a4.145,4.145,0,0,0-.2.445,61.423,61.423,0,0,0,55.647,82.914c0.041,0,.082,0,0.123,0s0.081,0,.121,0A61.442,61.442,0,0,0,165.453,123.92Zm80.5,26.913a4.206,4.206,0,0,0-.2-0.445l-9.147-17.642a4.016,4.016,0,1,0-7.129,3.7l9.031,17.418a23.485,23.485,0,1,1-43.927,0l21.963-42.36,7.277,14.034a4.016,4.016,0,1,0,7.128-3.7l-10.841-20.91a4.015,4.015,0,0,0-7.129,0L187.34,150.388a4.1,4.1,0,0,0-.2.445,32.32,32.32,0,0,0,29.282,43.63c0.041,0,.082,0,0.123,0s0.082,0,.124,0A32.323,32.323,0,0,0,245.954,150.833ZM194.7,228.671l-17.087-32.957a4.015,4.015,0,0,0-7.129,0L153.4,228.671a4.025,4.025,0,0,0-.2.445A22.878,22.878,0,0,0,173.926,260c0.041,0,.082,0,0.123,0s0.082,0,.124,0A22.877,22.877,0,0,0,194.9,229.116,4.206,4.206,0,0,0,194.7,228.671Zm-16.035,22.364a14.4,14.4,0,0,1-18.023-18.892l13.405-25.853,13.4,25.853A14.871,14.871,0,0,1,178.666,251.035Z"/>
  <path id="Shape_1_másolat" data-name="Shape 1 másolat" class="cls-1" d="M479.453,123.92a4.012,4.012,0,0,0-.2-0.445l-9.331-17.994a4.015,4.015,0,1,0-7.127,3.7l9.216,17.775a51.761,51.761,0,1,1-96.658,0l48.328-93.214L456.431,96.9a4.016,4.016,0,1,0,7.128-3.7l-36.31-70.033a4.015,4.015,0,0,0-7.129,0L368.112,123.475a4.206,4.206,0,0,0-.2.445,61.423,61.423,0,0,0,55.647,82.914c0.041,0,.082,0,0.123,0s0.081,0,.121,0A61.442,61.442,0,0,0,479.453,123.92Zm80.5,26.913a4.206,4.206,0,0,0-.2-0.445l-9.147-17.642a4.016,4.016,0,1,0-7.129,3.7l9.031,17.418a23.485,23.485,0,1,1-43.927,0l21.963-42.36,7.277,14.034a4.016,4.016,0,1,0,7.128-3.7l-10.841-20.91a4.015,4.015,0,0,0-7.129,0L501.34,150.388a3.911,3.911,0,0,0-.2.445,32.32,32.32,0,0,0,29.282,43.63c0.041,0,.082,0,0.123,0s0.082,0,.124,0A32.323,32.323,0,0,0,559.954,150.833ZM508.7,228.671l-17.087-32.957a4.015,4.015,0,0,0-7.129,0L467.4,228.671a4.025,4.025,0,0,0-.2.445A22.878,22.878,0,0,0,487.926,260c0.041,0,.082,0,0.123,0s0.082,0,.124,0A22.877,22.877,0,0,0,508.9,229.116,4.206,4.206,0,0,0,508.7,228.671Zm-16.035,22.364a14.4,14.4,0,0,1-18.023-18.892l13.405-25.853,13.4,25.853A14.871,14.871,0,0,1,492.666,251.035Z"/>
  <path class="cls-1" d="M553.321,327.407c-14.29,0-20.989-6.143-29.469-13.921C514.405,304.821,503.7,295,482.655,295s-31.751,9.821-41.2,18.486c-8.479,7.778-15.177,13.921-29.467,13.921S391,321.264,382.523,313.486c-9.448-8.665-20.155-18.486-41.2-18.486s-31.75,9.821-41.2,18.487c-8.478,7.777-15.176,13.92-29.465,13.92s-20.985-6.143-29.464-13.92C231.752,304.822,221.045,295,200,295s-31.749,9.821-41.2,18.486c-8.478,7.778-15.176,13.921-29.465,13.921s-20.987-6.143-29.466-13.921C90.429,304.822,79.722,295,58.68,295a8.68,8.68,0,0,0,0,17.36c14.289,0,20.987,6.143,29.465,13.919,9.447,8.665,20.154,18.487,41.2,18.487s31.749-9.821,41.2-18.484c8.478-7.778,15.176-13.921,29.465-13.921s20.984,6.143,29.463,13.92c9.447,8.664,20.154,18.486,41.2,18.486s31.748-9.82,41.2-18.484c8.479-7.778,15.177-13.921,29.466-13.921s20.987,6.143,29.466,13.92c9.448,8.664,20.156,18.486,41.2,18.486s31.75-9.82,41.2-18.485c8.481-7.777,15.178-13.92,29.469-13.92s20.989,6.143,29.468,13.92c9.447,8.665,20.155,18.485,41.2,18.485A8.681,8.681,0,0,0,553.321,327.407Zm0,81.744c-14.29,0-20.989-6.143-29.469-13.921-9.447-8.665-20.154-18.485-41.2-18.485s-31.751,9.82-41.2,18.485c-8.479,7.778-15.177,13.921-29.467,13.921S391,403.008,382.52,395.23c-9.447-8.665-20.153-18.485-41.2-18.485s-31.75,9.82-41.2,18.486c-8.478,7.778-15.176,13.92-29.465,13.92s-20.984-6.143-29.464-13.92c-1.083-.993-2.165-1.986-3.263-2.965a8.679,8.679,0,1,0-11.549,12.958c1.037,0.924,2.059,1.863,3.081,2.8,9.447,8.663,20.154,18.484,41.195,18.484s31.749-9.82,41.2-18.484c8.479-7.778,15.177-13.921,29.466-13.921s20.987,6.143,29.466,13.92c9.448,8.664,20.156,18.486,41.2,18.486s31.75-9.82,41.2-18.484c8.48-7.778,15.178-13.921,29.469-13.921s20.989,6.143,29.468,13.921c9.447,8.664,20.155,18.484,41.2,18.484A8.679,8.679,0,0,0,553.319,409.151Zm-340.944-31.1a56.913,56.913,0,0,0-12.371-1.3c-21.042,0-31.749,9.82-41.2,18.484-8.478,7.778-15.176,13.921-29.465,13.921s-20.987-6.143-29.466-13.921c-9.447-8.665-20.155-18.484-41.2-18.484a8.681,8.681,0,0,0,0,17.361c14.289,0,20.987,6.143,29.465,13.92,9.447,8.664,20.154,18.486,41.2,18.486s31.749-9.821,41.2-18.485c8.478-7.778,15.176-13.921,29.465-13.921a39.02,39.02,0,0,1,8.586.883A8.68,8.68,0,0,0,212.375,378.047ZM553.319,572.639c-14.29,0-20.989-6.143-29.469-13.92-9.447-8.665-20.154-18.485-41.2-18.485s-31.751,9.821-41.2,18.485c-8.479,7.777-15.177,13.92-29.467,13.92S391,566.5,382.52,558.719c-9.447-8.665-20.153-18.485-41.2-18.485s-31.75,9.821-41.2,18.487c-8.478,7.777-15.176,13.919-29.465,13.919S249.676,566.5,241.2,558.721c-9.447-8.665-20.154-18.487-41.2-18.487s-31.748,9.821-41.2,18.485c-8.478,7.777-15.176,13.92-29.465,13.92a8.68,8.68,0,0,0,0,17.36c21.042,0,31.749-9.821,41.2-18.485,8.478-7.777,15.176-13.921,29.464-13.921s20.985,6.144,29.464,13.92c9.447,8.665,20.154,18.487,41.2,18.487s31.749-9.82,41.2-18.485c8.479-7.777,15.177-13.921,29.466-13.921s20.987,6.144,29.466,13.921c9.448,8.664,20.156,18.485,41.2,18.485s31.75-9.82,41.2-18.485c8.481-7.777,15.178-13.921,29.469-13.921s20.989,6.144,29.468,13.921c9.447,8.665,20.155,18.485,41.2,18.485A8.681,8.681,0,0,0,553.319,572.639Zm-444.291-6.2a93.957,93.957,0,0,1-9.152-7.72c-9.447-8.665-20.155-18.487-41.2-18.487a8.68,8.68,0,0,0,0,17.359c14.289,0,20.987,6.144,29.466,13.921a108.583,108.583,0,0,0,10.888,9.119A8.679,8.679,0,1,0,109.028,566.44ZM553.319,490.9c-14.29,0-20.989-6.143-29.469-13.921-9.447-8.664-20.154-18.484-41.2-18.484s-31.749,9.82-41.2,18.483a8.68,8.68,0,0,0,11.731,12.8c8.479-7.777,15.178-13.92,29.467-13.92s20.989,6.143,29.468,13.921c9.447,8.665,20.155,18.485,41.2,18.485A8.68,8.68,0,0,0,553.319,490.9Zm-121.194,5.13a8.677,8.677,0,0,0-10.565-6.249,38.118,38.118,0,0,1-9.573,1.12c-14.289,0-20.987-6.143-29.467-13.921-9.447-8.664-20.154-18.485-41.2-18.485s-31.75,9.821-41.2,18.486c-8.478,7.778-15.176,13.92-29.465,13.92s-20.985-6.143-29.464-13.921c-9.447-8.663-20.154-18.485-41.2-18.485s-31.748,9.821-41.2,18.485c-8.478,7.778-15.176,13.921-29.465,13.921s-20.987-6.143-29.466-13.921c-9.447-8.664-20.155-18.485-41.2-18.485a8.679,8.679,0,0,0,0,17.358c14.289,0,20.987,6.143,29.465,13.92,9.447,8.665,20.154,18.487,41.2,18.487s31.749-9.821,41.2-18.486c8.478-7.778,15.176-13.921,29.465-13.921s20.984,6.143,29.463,13.921c9.447,8.664,20.154,18.485,41.2,18.485s31.748-9.82,41.2-18.485c8.479-7.778,15.177-13.921,29.466-13.921s20.987,6.143,29.466,13.921c9.448,8.664,20.156,18.485,41.2,18.485a55.952,55.952,0,0,0,13.89-1.665A8.678,8.678,0,0,0,432.125,496.025Z"/>
</svg>
