<svg width="511.99938" height="511" xmlns="http://www.w3.org/2000/svg">

 <g>
  <title>Layer 1</title>
  <g stroke="null">
   <path stroke="null" d="m362.34739,100.92673l-27.15202,0l0,-32.46347l9.41079,0a26.58737,26.58737 0 1 0 0,-53.17475l-180.21293,0a26.58737,26.58737 0 0 0 0,53.17475l9.41079,0l0,32.46347l-27.15202,0a63.12384,63.12384 0 0 0 -63.05232,63.05232l0,270.08977a63.12007,63.12007 0 0 0 63.05232,63.05232l215.69539,0a63.12007,63.12007 0 0 0 63.05232,-63.05232l0,-270.08977a63.12384,63.12384 0 0 0 -63.05232,-63.05232zm49.87721,111.04736l-315.4498,0l0,-16.31079l315.4498,0l0,16.31079zm0,13.17511l0,147.74946l-315.4498,0l0,-147.74946l315.4498,0zm-315.4498,160.92457l315.4498,0l0,16.31455l-315.4498,0l0,-16.31455zm54.20617,-344.19789a13.43108,13.43108 0 0 1 13.41226,-13.41226l180.21293,0a13.41226,13.41226 0 1 1 0,26.82453l-180.21293,0a13.42732,13.42732 0 0 1 -13.41226,-13.41226zm35.9944,26.58737l135.04489,0l0,32.46347l-135.04489,0l0,-32.46347zm-40.32337,45.63858l215.69539,0a49.93367,49.93367 0 0 1 49.87721,49.87721l0,18.50915l-315.4498,0l0,-18.50915a49.93367,49.93367 0 0 1 49.87721,-49.87721zm215.69539,369.84418l-215.69539,0a49.93367,49.93367 0 0 1 -49.87721,-49.87721l0,-18.50538l315.4498,0l0,18.50538a49.93367,49.93367 0 0 1 -49.87721,49.87721z"/>
   <path stroke="null" d="m254.4997,350.7833a36.73597,36.73597 0 0 0 36.69457,-36.69457c0,-17.77887 -26.05284,-56.41582 -31.27395,-63.9934a6.836,6.836 0 0 0 -10.84123,0c-5.22111,7.56251 -31.27395,46.19947 -31.27395,63.9934a36.73597,36.73597 0 0 0 36.69457,36.69457zm0,-85.05475c10.71701,16.58558 23.51945,39.34465 23.51945,48.36019a23.51945,23.51945 0 0 1 -47.05397,0c0.01506,-9.00801 12.82126,-31.77084 23.53451,-48.36019z"/>
  </g>
 </g>
</svg>