<?xml version="1.0" encoding="iso-8859-1"?>
<!-- Generator: Adobe Illustrator 19.0.0, SVG Export Plug-In . SVG Version: 6.00 Build 0)  -->
<svg version="1.1" id="Capa_1" xmlns="http://www.w3.org/2000/svg" xmlns:xlink="http://www.w3.org/1999/xlink" x="0px" y="0px"
	 viewBox="0 0 470.002 470.002" style="enable-background:new 0 0 470.002 470.002;" xml:space="preserve">
<g>
	<path d="M393.441,135.556h-2.783c-3.846-51.076-46.633-91.459-98.676-91.459h-2.451C285.887,19.189,264.388,0,238.486,0
		s-47.401,19.189-51.045,44.096h-2.451c-52.043,0-94.831,40.383-98.676,91.459h-2.783c-4.142,0-7.5,3.358-7.5,7.5s3.358,7.5,7.5,7.5
		h309.911c4.142,0,7.5-3.358,7.5-7.5S397.583,135.556,393.441,135.556z M238.486,15c17.609,0,32.35,12.502,35.82,29.096h-71.641
		C206.136,27.502,220.877,15,238.486,15z M184.99,59.096h106.992c43.766,0,79.798,33.667,83.607,76.459H101.383
		C105.192,92.763,141.224,59.096,184.99,59.096z"/>
	<path d="M381.877,165.717c-4.057-0.852-8.031,1.741-8.884,5.794c-7.99,37.957-31.779,70.792-65.404,90.383H169.382
		c-33.625-19.59-57.414-52.425-65.403-90.383c-0.854-4.054-4.834-6.646-8.884-5.794c-4.053,0.854-6.647,4.831-5.794,8.884
		c8.6,40.854,33.698,76.344,69.235,98.262l-10.153,34.279c-0.006,0.02-0.012,0.04-0.018,0.059l-15.658,52.867
		c-2.728-0.416-5.521-0.633-8.364-0.633c-30.483,0-55.282,24.799-55.282,55.282c0,30.482,24.799,55.282,55.282,55.282
		c30.482,0,55.282-24.799,55.282-55.282c0-22.379-13.374-41.679-32.541-50.368l14.056-47.456h154.694l26.753,90.324H202.125
		c-4.142,0-7.5,3.358-7.5,7.5s3.358,7.5,7.5,7.5h144.904l12.562,42.412c0.966,3.261,3.952,5.372,7.188,5.372
		c0.705,0,1.422-0.1,2.133-0.311c3.972-1.177,6.238-5.35,5.062-9.321l-14.171-47.846c-0.006-0.019-0.011-0.038-0.017-0.056
		L328.606,307.2c-0.006-0.019-0.011-0.037-0.017-0.056l-10.153-34.281c35.537-21.918,60.636-57.409,69.236-98.262
		C388.525,170.548,385.931,166.57,381.877,165.717z M164.625,414.718c0,22.211-18.07,40.282-40.282,40.282
		c-22.212,0-40.282-18.07-40.282-40.282c0-22.212,18.07-40.282,40.282-40.282C146.554,374.436,164.625,392.506,164.625,414.718z
		 M165.582,301.894l7.405-25h130.999l7.405,25H165.582z"/>
	<path d="M99.061,414.718c0,4.142,3.358,7.5,7.5,7.5s7.5-3.358,7.5-7.5c0-5.669,4.613-10.282,10.282-10.282
		s10.282,4.613,10.282,10.282S130.012,425,124.343,425c-4.142,0-7.5,3.358-7.5,7.5s3.358,7.5,7.5,7.5
		c13.94,0,25.282-11.341,25.282-25.282s-11.341-25.282-25.282-25.282S99.061,400.778,99.061,414.718z"/>
</g>
<g>
</g>
<g>
</g>
<g>
</g>
<g>
</g>
<g>
</g>
<g>
</g>
<g>
</g>
<g>
</g>
<g>
</g>
<g>
</g>
<g>
</g>
<g>
</g>
<g>
</g>
<g>
</g>
<g>
</g>
</svg>
