<?xml version="1.0" encoding="iso-8859-1"?>
<!-- Generator: Adobe Illustrator 19.0.0, SVG Export Plug-In . SVG Version: 6.00 Build 0)  -->
<svg version="1.1" id="Capa_1" xmlns="http://www.w3.org/2000/svg" xmlns:xlink="http://www.w3.org/1999/xlink" x="0px" y="0px"
	 viewBox="0 0 480 480" style="enable-background:new 0 0 480 480;" xml:space="preserve">
<g>
	<g>
		<g>
			<path d="M228,32c-22.091,0-40,17.909-40,40c0.026,22.08,17.92,39.974,40,40c22.091,0,40-17.909,40-40S250.091,32,228,32z
				 M228.199,96c-10.207,0.042-19.324-6.376-22.727-16H228c4.418,0,8-3.582,8-8s-3.582-8-8-8h-22.528
				c3.378-9.555,12.394-15.958,22.528-16c13.255-0.055,24.044,10.646,24.099,23.9C252.154,85.155,241.453,95.945,228.199,96z"/>
			<path d="M84,64H60c-4.418,0-8,3.582-8,8s3.582,8,8,8h24c4.418,0,8-3.582,8-8S88.418,64,84,64z"/>
			<path d="M140,64h-24c-4.418,0-8,3.582-8,8s3.582,8,8,8h24c4.418,0,8-3.582,8-8S144.418,64,140,64z"/>
			<path d="M156,368c0.026,22.08,17.92,39.974,40,40h64c22.08-0.026,39.974-17.92,40-40v-8h8c13.255,0,24-10.745,24-24v-48
				c0-4.418-3.582-8-8-8H164c-4.418,0-8,3.582-8,8V368z M300,296h16v40c0,4.418-3.582,8-8,8h-8V296z M172,296h112v72
				c0,13.255-10.745,24-24,24h-64c-13.255,0-24-10.745-24-24V296z"/>
			<path d="M396,96h-88c-4.418,0-8,3.582-8,8s3.582,8,8,8h88c4.418,0,8-3.582,8-8S400.418,96,396,96z"/>
			<path d="M308,64V48c0-4.418-3.582-8-8-8s-8,3.582-8,8v16c0,4.418,3.582,8,8,8S308,68.418,308,64z"/>
			<path d="M324,72c4.418,0,8-3.582,8-8V48c0-4.418-3.582-8-8-8s-8,3.582-8,8v16C316,68.418,319.582,72,324,72z"/>
			<path d="M348,72c4.418,0,8-3.582,8-8V48c0-4.418-3.582-8-8-8s-8,3.582-8,8v16C340,68.418,343.582,72,348,72z"/>
			<path d="M372,72c4.418,0,8-3.582,8-8V48c0-4.418-3.582-8-8-8s-8,3.582-8,8v16C364,68.418,367.582,72,372,72z"/>
			<path d="M396,40c-4.418,0-8,3.582-8,8v16c0,4.418,3.582,8,8,8s8-3.582,8-8V48C404,43.582,400.418,40,396,40z"/>
			<path d="M452,152h-40v-8h16c4.418,0,8-3.582,8-8V40c-0.026-22.08-17.92-39.974-40-40H60C37.92,0.026,20.026,17.92,20,40v96
				c0,4.418,3.582,8,8,8h16v272H28c-4.418,0-8,3.582-8,8v16c0.026,22.08,17.92,39.974,40,40h336c22.08-0.026,39.974-17.92,40-40v-16
				c0-4.418-3.582-8-8-8h-16V200h40c4.418,0,8-3.582,8-8v-32C460,155.582,456.418,152,452,152z M36,128V40c0-13.255,10.745-24,24-24
				h336c13.255,0,24,10.745,24,24v88H36z M164,224h32v32c0,4.418,3.582,8,8,8h48c4.418,0,8-3.582,8-8v-32h32c4.418,0,8-3.582,8-8
				v-32h24v8c0,4.418,3.582,8,8,8h64v216H60V144h96v72C156,220.418,159.582,224,164,224z M172,208v-64h112v64H172z M244,224v24h-32
				v-24H244z M324,160v8h-24v-24h96v8h-64C327.582,152,324,155.582,324,160z M420,432v8c0,13.255-10.745,24-24,24H60
				c-13.255,0-24-10.745-24-24v-8H420z M444,184H340v-16h104V184z"/>
		</g>
	</g>
</g>
<g>
</g>
<g>
</g>
<g>
</g>
<g>
</g>
<g>
</g>
<g>
</g>
<g>
</g>
<g>
</g>
<g>
</g>
<g>
</g>
<g>
</g>
<g>
</g>
<g>
</g>
<g>
</g>
<g>
</g>
</svg>
