<?xml version="1.0" encoding="iso-8859-1"?>
<!-- Generator: Adobe Illustrator 18.0.0, SVG Export Plug-In . SVG Version: 6.00 Build 0)  -->
<!DOCTYPE svg PUBLIC "-//W3C//DTD SVG 1.1//EN" "http://www.w3.org/Graphics/SVG/1.1/DTD/svg11.dtd">
<svg version="1.1" id="Capa_1" xmlns="http://www.w3.org/2000/svg" xmlns:xlink="http://www.w3.org/1999/xlink" x="0px" y="0px"
	 viewBox="0 0 420.339 420.339" style="enable-background:new 0 0 420.339 420.339;" xml:space="preserve">
<g>
	<g>
		<polygon points="180.68,280.563 184.549,282.767 184.817,282.298 		"/>
		<path d="M360.251,48.376L300.061,8.79c-3.229-2.123-7.57-1.228-9.695,2.002c-2.124,3.23-1.227,7.57,2.002,9.695l60.19,39.586
			c1.185,0.779,2.521,1.152,3.84,1.152c2.277,0,4.511-1.109,5.855-3.154C364.377,54.841,363.481,50.501,360.251,48.376z"/>
		<path d="M262.414,98.863h-19.905l21.112-82.489c0.959-3.745-1.301-7.559-5.046-8.517c-3.748-0.961-7.558,1.301-8.517,5.045
			l-22,85.961H63.868c-0.726,0-1.456,0.089-2.14,0.332c-3.423,1.214-5.202,4.51-4.715,7.719l46.684,307.476
			c0.52,3.421,3.461,5.949,6.921,5.949h105.037c3.46,0,6.401-2.528,6.921-5.949l46.684-307.476c0.486-3.206-1.287-6.493-4.7-7.715
			C263.875,98.954,263.142,98.863,262.414,98.863z M72.076,112.863h152.399l-11.778,46.021h-22.971l-11.564-34.26
			c-0.145-0.431-0.315-0.857-0.556-1.243c-1.867-2.995-5.31-4.057-8.284-3.053l-63.914,21.575c-3.262,1.101-5.014,4.638-3.913,7.9
			l3.066,9.082H79.064L72.076,112.863z M161.22,288.657l34.84,39.529l-39.53,34.839l-34.84-39.529L161.22,288.657z M180.68,280.563
			l-41.916-23.874l26.078-45.785l45.786,26.079l-25.812,45.315l-0.268,0.469L180.68,280.563z M179.676,172.885l4.344,12.87
			l-49.924,16.853l-10.032-29.723H179.676z M119.337,158.885l-2.093-6.201l49.924-16.853l7.781,23.054H119.337z M209.638,406.339
			h-84.521h-8.481L81.19,172.885h28.098l13.815,40.931c0.125,0.37,0.269,0.737,0.466,1.074c1.388,2.375,3.753,3.589,6.134,3.589
			c0.755,0,1.511-0.122,2.239-0.368l15.702-5.3l-24.51,43.031c-1.913,3.359-0.741,7.634,2.618,9.547l24.72,14.08l-43.29,38.153
			c-1.394,1.228-2.241,2.958-2.358,4.811c-0.116,1.853,0.507,3.677,1.735,5.069l7.96,9.031l36.137,41.001
			c1.383,1.569,3.313,2.371,5.254,2.371c1.644,0,3.295-0.576,4.625-1.748l50.033-44.096c2.346-2.067,3.145-5.56,1.514-8.665
			c-0.214-0.407-0.501-0.771-0.804-1.116l-22.235-25.229c1.718-0.478,3.256-1.603,4.207-3.273l33.008-57.95
			c1.575-2.763,1.159-6.41-1.523-8.806c-0.29-0.259-0.621-0.471-0.959-0.663l-45.47-25.898l17.55-5.924
			c3.262-1.101,5.014-4.639,3.913-7.901l-1.941-5.75l-3.375-10h50.632L209.638,406.339z M247.209,158.885h-20.062l11.778-46.021
			h15.271L247.209,158.885z"/>
		<path d="M276.92,0c-3.866,0-7,3.134-7,7v10.034c0,3.866,3.134,7,7,7c3.866,0,7-3.134,7-7V7C283.92,3.134,280.786,0,276.92,0z"/>
		<path d="M189.801,260.393l8.991-15.283c1.961-3.332,0.849-7.622-2.483-9.582c-3.333-1.963-7.622-0.849-9.583,2.483l-8.991,15.283
			c-1.961,3.332-0.849,7.623,2.483,9.583c1.115,0.656,2.337,0.968,3.543,0.968C186.16,263.845,188.496,262.61,189.801,260.393z"/>
		<path d="M160.069,334.147l-11.623-13.392c-2.533-2.919-6.956-3.232-9.874-0.698c-2.92,2.534-3.232,6.955-0.698,9.875
			l11.623,13.392c1.384,1.595,3.331,2.412,5.289,2.412c1.627,0,3.261-0.563,4.585-1.714
			C162.291,341.487,162.604,337.066,160.069,334.147z"/>
	</g>
</g>
<g>
</g>
<g>
</g>
<g>
</g>
<g>
</g>
<g>
</g>
<g>
</g>
<g>
</g>
<g>
</g>
<g>
</g>
<g>
</g>
<g>
</g>
<g>
</g>
<g>
</g>
<g>
</g>
<g>
</g>
</svg>
