<?xml version="1.0" encoding="iso-8859-1"?>
<!-- Generator: Adobe Illustrator 16.0.0, SVG Export Plug-In . SVG Version: 6.00 Build 0)  -->
<!DOCTYPE svg PUBLIC "-//W3C//DTD SVG 1.1//EN" "http://www.w3.org/Graphics/SVG/1.1/DTD/svg11.dtd">
<svg version="1.1" id="Capa_1" xmlns="http://www.w3.org/2000/svg" xmlns:xlink="http://www.w3.org/1999/xlink" x="0px" y="0px"
	 width="611.999px" height="611.999px" viewBox="0 0 611.999 611.999" style="enable-background:new 0 0 611.999 611.999;"
	 xml:space="preserve">
<g>
	<g>
		<path d="M279.089,330.057l-44.405,0.591l-0.648-46.681l43.811-0.57c13.502-0.161,22.891-5.73,22.832-13.581l-0.331-24.717
			c-0.069-7.769-9.146-12.988-22.589-12.988l-44.487,0.6c-1.265-34.82-7.474-34.96-11.785-34.96c-0.016,0-0.035,0-0.056,0
			l-18.134,0.236c-4.701,0.039-6.934,3.78-8.107,7.526l-76.808,1.623c-7.884,0.154-15.387,3.632-21.13,9.795
			c-7.336,7.871-11.191,19.301-10.585,31.066l0.161,21.012l-57.658,0.806c-16.741,0.21-29.28,8.352-29.168,18.96l0.623,44.234
			c0.075,10.378,12.555,18.203,29.024,18.203l57.792-0.777l0.154,20.758c1.137,22.988,22.491,40.821,40.099,40.821l70.164-1.459
			c1.255,3.807,3.544,7.49,8.262,7.49c0.029,0,0.074,0,0.104,0l18.154-0.249c7.723-0.092,8.981-10.188,9.735-16.22
			c0.683-5.461,1.086-12.276,1.178-19.64l43.905-0.59c8.654-0.134,16.05-2.526,19.786-6.404c2.54-2.637,3.029-5.39,2.993-7.187
			l-0.334-24.697C301.55,335.286,292.485,330.057,279.089,330.057z M279.01,368.244l-50.357,0.675
			c-3.618,0.049-6.514,3.019-6.471,6.635c0.185,15.125-0.924,24.835-1.842,29.188l-10.431,0.144c-0.145-0.593-0.303-1.32-0.47-2.206
			c-0.587-3.104-3.298-5.34-6.44-5.34c-0.049,0-0.092,0-0.142,0l-75.166,1.567c-11.282,0-26.263-13.353-26.998-28.08L100.5,343.75
			c-0.013-1.747-0.721-3.416-1.97-4.638c-1.246-1.22-2.773-1.882-4.678-1.872l-63.745,0.861l-0.459,0.004
			c-10.313,0-15.636-3.961-15.912-5.232l-0.623-44.244c0.203-1.285,5.655-5.569,16.23-5.704l64.181-0.895
			c3.606-0.052,6.491-3.003,6.464-6.605l-0.22-27.811c-0.436-8.526,2.141-16.453,7.074-21.743c2.334-2.508,6.277-5.517,11.804-5.625
			l81.971-1.731c3.156-0.069,5.818-2.373,6.333-5.491c0.128-0.78,0.252-1.436,0.366-1.977l10.432-0.134
			c1.003,4.252,2.334,13.722,2.583,28.552c0.062,3.583,2.982,6.445,6.553,6.445c0.033,0,0.062,0,0.092,0l50.367-0.685l0.413-0.003
			c4.776,0,8.038,0.954,9.497,1.672l0.285,21.429c-1.446,0.764-4.822,1.905-9.86,1.964l-50.38,0.656
			c-1.737,0.023-3.396,0.738-4.612,1.983c-1.213,1.246-1.878,2.924-1.854,4.665l0.833,59.795c0.052,3.622,3.025,6.373,6.645,6.464
			l50.377-0.679l0.4-0.003c4.77,0,8.021,0.967,9.467,1.691l0.288,21.441C287.392,367.046,284.028,368.167,279.01,368.244z"/>
		<path d="M611.415,280.933c-0.144-10.539-12.342-18.187-29.004-18.187l-58.297,0.751l-0.391-20.753
			c0.275-12.03-3.864-23.327-11.357-30.991c-5.852-5.986-13.389-9.283-21.43-9.283l-77.303,0.479
			c-1.229-4.537-3.55-8.995-8.811-8.995l-18.142,0.272c-7.771,0.105-9.021,10.342-9.769,16.459
			c-0.875,7.166-1.282,16.626-1.147,26.634l1.78,134.21c0.639,42.743,7.72,42.743,11.952,42.743c0.022,0,0.065,0,0.085,0l18.311-0.2
			c3.996-0.115,6.192-2.862,7.478-6.094l71.167-0.47c19.449-0.089,39.015-20.832,39.51-42.159l-0.387-20.426l57.179-0.77
			c7.156-0.096,13.958-1.698,19.157-4.518c6.432-3.487,10.077-8.746,10.001-14.423L611.415,280.933z M582.666,331.041l-63.775,0.862
			c-1.744,0.022-3.405,0.743-4.619,1.996c-1.216,1.252-1.878,2.939-1.846,4.684l0.516,26.739
			c-0.357,15.325-15.093,29.023-26.471,29.076l-70.976,0.465c-1.098-1.17-2.622-1.944-4.334-2.062
			c-3.36-0.252-6.415,2.177-6.934,5.546c-0.17,1.093-0.331,1.968-0.479,2.655l-10.438,0.115c-1.035-4.39-2.422-14.27-2.654-29.775
			l-1.78-134.2c-0.21-15.538,0.915-25.461,1.842-29.863l10.411-0.157c0.207,0.859,0.446,2.003,0.695,3.498
			c0.531,3.16,3.265,5.471,6.468,5.471c0.013,0,0.026,0,0.043,0l82.814-0.511c5.478,0,9.467,2.901,11.847,5.337
			c5.038,5.153,7.817,13.001,7.621,21.796l0.511,27.542c0.069,3.609,3.094,6.543,6.641,6.435l64.148-0.829l0.492-0.003
			c10.3,0,15.676,4.035,15.892,5.248l0.587,44.267C598.686,326.644,593.235,330.903,582.666,331.041z"/>
		<path d="M115.723,261.225c3.619,0,6.556-2.937,6.556-6.556c0-5.202,1.272-9.005,3.78-11.306c3.786-3.471,9.679-3.062,9.896-3.035
			c3.642,0.348,6.778-2.255,7.158-5.838c0.378-3.603-2.235-6.828-5.835-7.205c-1.18-0.128-11.823-1.01-19.926,6.281
			c-5.428,4.888-8.182,11.988-8.182,21.104C109.167,258.288,112.101,261.225,115.723,261.225z"/>
		<path d="M136.618,375.93c-5.199,0-9.002-1.271-11.299-3.779c-3.478-3.793-3.058-9.688-3.042-9.896
			c0.351-3.58-2.255-6.779-5.838-7.156c-3.58-0.37-6.825,2.232-7.205,5.835c-0.125,1.188-1.01,11.831,6.284,19.932
			c4.888,5.428,11.988,8.182,21.104,8.182c3.619,0,6.556-2.937,6.556-6.556S140.24,375.93,136.618,375.93z"/>
		<path d="M410.057,231.641c-3.618,0-6.556,2.937-6.556,6.556v123.012c0,3.619,2.938,6.556,6.556,6.556
			c3.619,0,6.557-2.937,6.557-6.556V238.196C416.613,234.574,413.679,231.641,410.057,231.641z"/>
	</g>
</g>
<g>
</g>
<g>
</g>
<g>
</g>
<g>
</g>
<g>
</g>
<g>
</g>
<g>
</g>
<g>
</g>
<g>
</g>
<g>
</g>
<g>
</g>
<g>
</g>
<g>
</g>
<g>
</g>
<g>
</g>
</svg>
