<?xml version="1.0" encoding="iso-8859-1"?>
<!-- Generator: Adobe Illustrator 19.1.0, SVG Export Plug-In . SVG Version: 6.00 Build 0)  -->
<svg version="1.1" id="Capa_1" xmlns="http://www.w3.org/2000/svg" xmlns:xlink="http://www.w3.org/1999/xlink" x="0px" y="0px"
	 viewBox="0 0 480.077 480.077" style="enable-background:new 0 0 480.077 480.077;" xml:space="preserve">
<g>
	<path style="fill:#222222;" d="M239.382,0.004c-40.58,0.071-81.678,10.441-119.344,32.188
		C5.248,98.465-34.08,245.245,32.195,360.035s213.054,154.118,327.844,87.844s154.118-213.054,87.844-327.844
		C403.354,42.91,322.474-0.142,239.382,0.004L239.382,0.004z M326.882,27.098c28.83,11.736,54.077,28.731,75,49.469l-83.625,84.656
		c-10.065-9.998-22.226-18.198-36.094-23.875C282.164,137.348,326.882,27.098,326.882,27.098z M240.039,139.004
		c55.656,0,100.969,45.243,100.969,101.031s-45.312,101.062-100.969,101.062c-55.656,0-100.969-45.274-100.969-101.062
		C139.07,184.246,184.382,139.004,240.039,139.004L240.039,139.004z M240.039,149.098c-50.382,0-91.031,40.687-91.031,90.938
		c0,50.25,40.649,90.969,91.031,90.969s91.031-40.718,91.031-90.969S290.421,149.098,240.039,149.098L240.039,149.098z
		 M240.039,208.035c17.673,0,32,14.327,32,32s-14.327,32-32,32s-32-14.327-32-32S222.365,208.035,240.039,208.035z M211.164,364.223
		c2.934,0,5.6,0.223,8,0.656s4.512,0.932,6.312,1.5s3.301,1.151,4.5,1.75s2.059,1.073,2.594,1.406l-4.5,12.594
		c-2.134-1.133-4.636-2.106-7.469-2.906c-2.833-0.801-6.026-1.187-9.625-1.188c-2.401,0-4.763,0.387-7.062,1.188
		c-2.3,0.801-4.327,2.108-6.094,3.875s-3.184,4.044-4.25,6.844c-1.066,2.799-1.594,6.188-1.594,10.188
		c0,3.2,0.331,6.202,1.031,8.969c0.7,2.767,1.84,5.125,3.406,7.125c1.567,2,3.623,3.583,6.156,4.75s5.586,1.75,9.188,1.75
		c2.266,0,4.294-0.108,6.094-0.375c1.799-0.267,3.412-0.601,4.812-0.969c1.401-0.367,2.621-0.783,3.688-1.25
		c1.066-0.467,2.04-0.882,2.906-1.281l4.312,12.5c-2.199,1.333-5.313,2.527-9.312,3.594c-4,1.067-8.639,1.594-13.906,1.594
		c-11.267,0-19.85-3.139-25.75-9.406s-8.844-15.156-8.844-26.688c0-5.735,0.918-10.844,2.719-15.344
		c1.801-4.499,4.273-8.306,7.406-11.406c3.133-3.101,6.854-5.462,11.188-7.062C201.403,365.029,206.098,364.223,211.164,364.223
		L211.164,364.223z M264.914,365.035c5.933,0,11.322,0.667,16.156,2c4.834,1.333,8.971,3.446,12.438,6.312
		c3.467,2.867,6.133,6.533,8,11s2.812,9.825,2.812,16.094c0,6-0.946,11.221-2.812,15.688c-1.867,4.467-4.504,8.161-7.938,11.094
		c-3.433,2.933-7.629,5.158-12.562,6.625c-4.934,1.467-10.46,2.188-16.594,2.188c-2.799,0-6.079-0.111-9.812-0.344
		c-3.733-0.233-7.399-0.734-11-1.469v-67.5c3.601-0.667,7.35-1.111,11.25-1.344C258.751,365.146,262.114,365.035,264.914,365.035
		L264.914,365.035z M265.695,378.348c-1.066,0-2.148-0.002-3.281,0.031c-1.133,0.034-2.218,0.118-3.219,0.25v43.812
		c0.734,0.067,1.596,0.123,2.562,0.156c0.966,0.034,2.105,0.031,3.438,0.031c7.8,0,13.608-1.972,17.375-5.906
		c3.767-3.934,5.656-9.35,5.656-16.281c0-7.267-1.806-12.767-5.406-16.5S273.495,378.348,265.695,378.348L265.695,378.348z"/>
</g>
<g>
</g>
<g>
</g>
<g>
</g>
<g>
</g>
<g>
</g>
<g>
</g>
<g>
</g>
<g>
</g>
<g>
</g>
<g>
</g>
<g>
</g>
<g>
</g>
<g>
</g>
<g>
</g>
<g>
</g>
</svg>
