<?xml version="1.0" encoding="iso-8859-1"?>
<!-- Generator: Adobe Illustrator 19.0.0, SVG Export Plug-In . SVG Version: 6.00 Build 0)  -->
<svg version="1.1" id="Capa_1" xmlns="http://www.w3.org/2000/svg" xmlns:xlink="http://www.w3.org/1999/xlink" x="0px" y="0px"
	 viewBox="0 0 512 512" style="enable-background:new 0 0 512 512;" xml:space="preserve">
<g>
	<g>
		<path d="M288,373.333v21.333h-64v-21.333h-21.333v32c0,5.891,4.776,10.667,10.667,10.667h85.333
			c5.891,0,10.667-4.776,10.667-10.667v-32H288z"/>
	</g>
</g>
<g>
	<g>
		<rect x="245.333" y="405.333" width="21.333" height="106.667"/>
	</g>
</g>
<g>
	<g>
		<path d="M192,0h-21.333c-11.782,0-21.333,9.551-21.333,21.333v96h21.333v-96H192v96h21.333v-96C213.333,9.551,203.782,0,192,0z"/>
	</g>
</g>
<g>
	<g>
		<path d="M341.333,0H320c-11.782,0-21.333,9.551-21.333,21.333v96H320v-96h21.333v96h21.333v-96C362.667,9.551,353.115,0,341.333,0
			z"/>
	</g>
</g>
<g>
	<g>
		<path d="M160,298.667v-21.333h-21.333v21.333c-0.006,0.295-0.006,0.589,0,0.884c0.244,11.538,9.795,20.693,21.333,20.449h21.333
			v-21.333H160z"/>
	</g>
</g>
<g>
	<g>
		<path d="M426.667,106.667H85.333C73.551,106.667,64,116.218,64,128v21.333c0,11.782,9.551,21.333,21.333,21.333H96v160
			c0,17.673,14.327,32,32,32h256c17.673,0,32-14.327,32-32v-160h10.667c11.782,0,21.333-9.551,21.333-21.333V128
			C448,116.218,438.449,106.667,426.667,106.667z M426.667,149.333h-21.333c-5.891,0-10.667,4.776-10.667,10.667v170.667
			c0,5.891-4.776,10.667-10.667,10.667H128c-5.891,0-10.667-4.776-10.667-10.667V160c0-5.891-4.776-10.667-10.667-10.667H85.333V128
			h341.333V149.333z"/>
	</g>
</g>
<g>
	<g>
		<rect x="138.667" y="149.333" width="234.667" height="21.333"/>
	</g>
</g>
<g>
</g>
<g>
</g>
<g>
</g>
<g>
</g>
<g>
</g>
<g>
</g>
<g>
</g>
<g>
</g>
<g>
</g>
<g>
</g>
<g>
</g>
<g>
</g>
<g>
</g>
<g>
</g>
<g>
</g>
</svg>
