<svg width="511.99938" height="511" xmlns="http://www.w3.org/2000/svg">
 <g>
  <title>Layer 1</title>
  <g id="svg_1"/>
  <g id="svg_2"/>
  <g id="svg_3"/>
  <g id="svg_4"/>
  <g id="svg_5"/>
  <g id="svg_6"/>
  <g id="svg_7"/>
  <g id="svg_8"/>
  <g id="svg_9"/>
  <g id="svg_10"/>
  <g id="svg_11"/>
  <g id="svg_14"/>
  <g id="svg_16"/>
  <g id="svg_17"/>
  <g id="svg_18"/>
  <g id="svg_19" stroke="null">
   <path id="svg_20" d="m415.30616,498.42509l-343.03069,0c-7.67384,0 -14.69046,-4.80794 -17.4594,-11.96462l-22.17845,-57.29928c-2.18175,-5.63754 -1.4976,-12.0158 1.8289,-17.06346c3.3265,-5.04766 8.92094,-8.1883 14.95982,-8.40648l150.64595,-5.40051c-0.74341,-1.0828 -1.17976,-2.39454 -1.17976,-3.80864l0,-14.5073l-105.83922,-9.28995c-2.08748,-0.18316 -3.97294,-1.3306 -5.09614,-3.10024s-1.35753,-3.96486 -0.63298,-5.93113l111.57103,-303.33897l0,-23.24239c-6.92504,-2.64504 -15.87023,-5.11769 -21.49161,-4.85642c0.36901,0.75149 0.77843,1.52992 1.11242,2.17367c2.2868,4.36889 8.36069,15.96989 -2.38915,21.60204c-11.50134,6.02002 -38.69513,-6.653 -49.85169,-12.38212c-3.30764,-1.69961 -4.61131,-5.75605 -2.91439,-9.06639c1.69692,-3.30764 5.75336,-4.6167 9.06639,-2.91708c14.15984,7.26443 30.08932,12.79423 35.95851,12.65686c-0.50638,-1.17976 -1.26595,-2.63157 -1.79927,-3.64972c-2.3703,-4.52781 -5.05574,-9.65897 -2.83897,-14.86824c0.87539,-2.05516 2.86591,-4.78369 7.37217,-6.09813c12.75921,-3.71437 33.27307,4.96955 37.25678,6.74727c2.42417,1.0828 3.98641,3.4908 3.98641,6.14931l0,24.00735c25.92514,8.45227 102.78754,94.26848 135.76701,178.239c28.63752,72.92439 59.6291,93.76623 50.51961,125.33161c-3.80864,13.18748 -16.06685,22.39932 -29.81459,22.39932l-156.47203,0l0,13.94167c0,1.23902 -0.33669,2.40262 -0.92118,3.40192l265.99599,-9.53776c5.72373,-0.19663 10.86028,2.80396 13.49723,7.84892c2.63696,5.04497 2.15212,11.00842 -1.26326,15.56317l-59.38406,79.17875c-3.52043,4.68942 -9.12026,7.48799 -14.98136,7.48799l-0.00002,-0.00002zm62.69171,-96.62199c-0.03232,0 -0.05656,0 -0.08081,0.00269l-428.00859,15.34499c-1.72116,0.05926 -3.25108,0.92118 -4.1992,2.35683c-0.94812,1.43834 -1.13397,3.18374 -0.51177,4.78908l22.17576,57.29928c0.7892,2.039 2.71238,3.35882 4.89951,3.35882l343.03339,0c1.64574,0 3.21606,-0.78651 4.20728,-2.10364l59.38406,-79.17875c0.11043,-0.14545 0.44443,-0.58988 0.10235,-1.24441c-0.30167,-0.57103 -0.77035,-0.6249 -1.00199,-0.6249l0.00001,0.00001zm-257.10198,-34.73026l147.93626,0c7.78158,0 14.72009,-5.20927 16.87491,-12.66763c8.63812,-29.92233 -40.93256,-52.45652 -68.11558,-121.67193c-27.00794,-68.77637 -60.37615,-147.40544 -97.99387,-161.31479c14.99214,29.37554 45.65788,95.69542 49.11366,152.76036c4.26115,70.29013 -29.77688,121.14919 -47.81539,142.89399l0.00001,0zm-117.89273,-9.03407l95.89205,8.41725l0,-269.12855l-95.89205,260.7113zm109.35965,-270.78776l0,268.76493c16.99881,-21.47544 46.69758,-68.46392 42.9051,-131.02095c-2.94133,-48.55341 -27.45506,-105.90387 -42.9051,-137.74398z" stroke="null"/>
   <g id="svg_21" stroke="null"/>
   <g id="svg_22" stroke="null"/>
   <g id="svg_23" stroke="null"/>
   <g id="svg_24" stroke="null"/>
   <g id="svg_25" stroke="null"/>
   <g id="svg_26" stroke="null"/>
   <g id="svg_27" stroke="null"/>
   <g id="svg_28" stroke="null"/>
   <g id="svg_29" stroke="null"/>
   <g id="svg_30" stroke="null"/>
   <g id="svg_31" stroke="null"/>
   <g id="svg_32" stroke="null"/>
   <g id="svg_33" stroke="null"/>
   <g id="svg_34" stroke="null"/>
   <g id="svg_35" stroke="null"/>
   <polyline stroke="null" opacity="NaN" points="324.99969482421875,286.5 325.99969482421875,286.5 325.99969482421875,285.5 328.99969482421875,283.5 330.99969482421875,279.5 333.99969482421875,274.5 335.99969482421875,270.5 336.99969482421875,267.5 337.99969482421875,266.5 338.99969482421875,265.5 339.99969482421875,264.5 339.99969482421875,263.5 340.99969482421875,262.5 340.99969482421875,260.5 340.99969482421875,259.5 340.99969482421875,257.5 340.99969482421875,256.5 338.99969482421875,256.5 336.99969482421875,256.5 333.99969482421875,256.5 328.99969482421875,256.5 325.99969482421875,258.5 321.99969482421875,262.5 317.99969482421875,267.5 313.99969482421875,273.5 310.99969482421875,279.5 307.99969482421875,284.5 306.99969482421875,290.5 305.99969482421875,296.5 305.99969482421875,303.5 305.99969482421875,307.5 305.99969482421875,310.5 305.99969482421875,311.5 305.99969482421875,305.5 304.99969482421875,297.5 300.99969482421875,289.5 294.99969482421875,280.5 291.99969482421875,272.5 289.99969482421875,264.5 289.99969482421875,256.5 289.99969482421875,250.5 291.99969482421875,247.5 296.99969482421875,245.5 303.99969482421875,245.5 311.99969482421875,247.5 326.99969482421875,254.5 337.99969482421875,262.5 345.99969482421875,270.5 351.99969482421875,279.5 350.99969482421875,286.5 345.99969482421875,292.5 336.99969482421875,295.5 328.99969482421875,297.5 322.99969482421875,297.5 321.99969482421875,298.5 320.99969482421875,298.5 320.99969482421875,297.5 " id="svg_12" fill="none" stroke-linecap="round"/>
   <polyline fill="none" stroke="null" opacity="NaN" points="420.99969482421875,98.5 420.99969482421875,99.5 421.99969482421875,101.5 422.99969482421875,108.5 424.99969482421875,115.5 427.99969482421875,124.5 429.99969482421875,132.5 432.99969482421875,139.5 436.99969482421875,146.5 438.99969482421875,150.5 440.99969482421875,154.5 440.99969482421875,156.5 441.99969482421875,156.5 442.99969482421875,156.5 442.99969482421875,155.5 442.99969482421875,152.5 442.99969482421875,147.5 442.99969482421875,142.5 440.99969482421875,135.5 437.99969482421875,127.5 435.99969482421875,122.5 434.99969482421875,117.5 433.99969482421875,113.5 " id="svg_13" stroke-linecap="round"/>
  </g>
  <path stroke="null" opacity="NaN" d="m56.99969,205.5" id="svg_15"/>
  <path transform="rotate(-179.358 724.282 430.391)" stroke="#000" id="svg_38" fill="#ffffff"/>
  <path id="svg_41" d="m143.2847,291.04748l0,-0.99999l1.49,0.99999l-1.49,0z" stroke="#ffffff" fill="#ffffff"/>
  <path stroke="#000" id="svg_39" d="m211.6147,383.03249l0,-349.99999l295.99998,349.99999l-295.99998,0z" fill="#000000"/>
 </g>

</svg>