<svg width="511.99938" height="511" xmlns="http://www.w3.org/2000/svg">
 <g>
  <title>Layer 1</title>
  <g>
   <g/>
   <g/>
   <g/>
   <g/>
   <g/>
   <g/>
   <g/>
   <g/>
   <g/>
   <g/>
   <g/>
   <g/>
   <g/>
   <g/>
   <g/>
   <g stroke="null">
    <path stroke="null" d="m414.30616,498.42509l-343.03069,0c-7.67384,0 -14.69046,-4.80794 -17.4594,-11.96462l-22.17845,-57.29928c-2.18175,-5.63754 -1.4976,-12.0158 1.8289,-17.06346c3.3265,-5.04766 8.92094,-8.1883 14.95982,-8.40648l150.64595,-5.40051c-0.74341,-1.0828 -1.17976,-2.39454 -1.17976,-3.80864l0,-14.5073l-105.83922,-9.28995c-2.08748,-0.18316 -3.97294,-1.3306 -5.09614,-3.10024s-1.35753,-3.96486 -0.63298,-5.93113l111.57103,-303.33897l0,-23.24239c-6.92504,-2.64504 -15.87023,-5.11769 -21.49161,-4.85642c0.36901,0.75149 0.77843,1.52992 1.11242,2.17367c2.2868,4.36889 8.36069,15.96989 -2.38915,21.60204c-11.50134,6.02002 -38.69513,-6.653 -49.85169,-12.38212c-3.30764,-1.69961 -4.61131,-5.75605 -2.91439,-9.06639c1.69692,-3.30764 5.75336,-4.6167 9.06639,-2.91708c14.15984,7.26443 30.08932,12.79423 35.95851,12.65686c-0.50638,-1.17976 -1.26595,-2.63157 -1.79927,-3.64972c-2.3703,-4.52781 -5.05574,-9.65897 -2.83897,-14.86824c0.87539,-2.05516 2.86591,-4.78369 7.37217,-6.09813c12.75921,-3.71437 33.27307,4.96955 37.25678,6.74727c2.42417,1.0828 3.98641,3.4908 3.98641,6.14931l0,24.00735c25.92514,8.45227 144.78754,51.26848 177.76701,135.239c28.63752,72.92439 17.6291,136.76623 8.51961,168.33161c-3.80864,13.18748 -16.06685,22.39932 -29.81459,22.39932l-156.47203,0l0,13.94167c0,1.23902 -0.33669,2.40262 -0.92118,3.40192l265.99599,-9.53776c5.72373,-0.19663 10.86028,2.80396 13.49723,7.84892c2.63696,5.04497 2.15212,11.00842 -1.26326,15.56317l-59.38406,79.17875c-3.52043,4.68942 -9.12026,7.48799 -14.98136,7.48799zm62.69171,-96.62199c-0.03232,0 -0.05656,0 -0.08081,0.00269l-428.00859,15.34499c-1.72116,0.05926 -3.25108,0.92118 -4.1992,2.35683c-0.94812,1.43834 -1.13397,3.18374 -0.51177,4.78908l22.17576,57.29928c0.7892,2.039 2.71238,3.35882 4.89951,3.35882l343.03339,0c1.64574,0 3.21606,-0.78651 4.20728,-2.10364l59.38406,-79.17875c0.11043,-0.14545 0.44443,-0.58988 0.10235,-1.24441c-0.30167,-0.57103 -0.77035,-0.6249 -1.00199,-0.6249zm-257.10198,-34.73026l147.93626,0c7.78158,0 14.72009,-5.20927 16.87491,-12.66763c8.63812,-29.92233 19.06744,-90.45652 -8.11558,-159.67193c-27.00794,-68.77637 -120.37615,-109.40544 -157.99387,-123.31479c14.99214,29.37554 45.65788,95.69542 49.11366,152.76036c4.26115,70.29013 -29.77688,121.14919 -47.81539,142.89399zm-117.89273,-9.03407l95.89205,8.41725l0,-269.12855l-95.89205,260.7113zm109.35965,-270.78776l0,268.76493c16.99881,-21.47544 46.69758,-68.46392 42.9051,-131.02095c-2.94133,-48.55341 -27.45506,-105.90387 -42.9051,-137.74398z"/>
    <g stroke="null"/>
    <g stroke="null"/>
    <g stroke="null"/>
    <g stroke="null"/>
    <g stroke="null"/>
    <g stroke="null"/>
    <g stroke="null"/>
    <g stroke="null"/>
    <g stroke="null"/>
    <g stroke="null"/>
    <g stroke="null"/>
    <g stroke="null"/>
    <g stroke="null"/>
    <g stroke="null"/>
    <g stroke="null"/>
   </g>
  </g>
  <path stroke="null" id="svg_11" d="m202.21472,367.22747l0,-289l-113.00004,289l113.00004,0z"/>
 </g>

</svg>